<?xml version="1.0" standalone="no"?>
<!DOCTYPE svg PUBLIC "-//W3C//DTD SVG 20010904//EN"
 "http://www.w3.org/TR/2001/REC-SVG-20010904/DTD/svg10.dtd">
<svg version="1.0" xmlns="http://www.w3.org/2000/svg"
 width="48.000000pt" height="48.000000pt" viewBox="0 0 48.000000 48.000000"
 preserveAspectRatio="xMidYMid meet">

<g transform="translate(0.000000,888.000000) scale(0.100000,-0.100000)"
fill="#000000" stroke="none">
<path d="M0 4440 l0 -4440 2364 0 c2244 0 2365 1 2369 18 4 16 5 16 6 0 1 -11
9 -18 22 -18 14 0 19 6 17 18 -1 9 2 17 7 17 6 0 10 -7 10 -15 0 -11 13 -16
48 -18 33 -2 47 0 42 7 -3 6 -1 11 4 11 6 0 11 -4 11 -10 0 -6 35 -10 85 -10
l84 0 -6 33 c-3 17 -13 38 -22 45 -14 12 -12 13 12 9 25 -4 28 -2 23 17 -3 11
-6 29 -6 39 0 10 -8 17 -20 17 -15 0 -20 7 -20 25 0 14 -4 25 -10 25 -5 0 -10
5 -10 10 0 6 16 10 35 10 19 0 35 5 35 10 0 6 -7 10 -15 10 -8 0 -15 5 -15 10
0 6 5 10 10 10 6 0 10 10 9 23 -4 39 1 58 11 52 12 -7 13 15 2 33 -6 9 -14 7
-31 -9 -17 -16 -20 -24 -10 -35 16 -20 6 -17 -19 5 -12 10 -22 23 -22 29 0 6
-7 9 -15 6 -13 -5 -13 -9 -3 -22 11 -13 8 -12 -19 2 -19 9 -35 27 -39 41 -9
35 -26 31 -22 -5 1 -17 -2 -34 -9 -38 -8 -5 -9 -12 -2 -22 8 -13 10 -13 18 0
6 8 13 11 17 7 4 -4 0 -15 -10 -26 -9 -10 -16 -24 -14 -32 2 -7 -5 -15 -14
-17 -14 -3 -18 3 -18 22 0 16 -6 26 -15 26 -8 0 -15 5 -15 10 0 6 -7 10 -16
10 -12 0 -15 6 -10 22 3 13 6 26 6 29 0 4 22 21 49 39 36 23 52 40 56 62 8 32
-8 52 -33 43 -8 -3 -20 -5 -28 -5 -9 0 -12 -4 -9 -10 3 -5 1 -10 -4 -10 -6 0
-11 5 -11 10 0 7 -38 10 -104 9 -58 -1 -110 2 -116 6 -6 4 -27 4 -47 0 -31 -6
-34 -9 -29 -31 7 -25 -8 -34 -17 -10 -8 21 3 54 21 61 21 9 620 7 680 -1 38
-6 60 -24 28 -24 -7 0 -16 -9 -19 -21 -3 -12 -10 -18 -16 -15 -5 4 -15 -3 -21
-14 -6 -12 -21 -31 -32 -42 -13 -13 -18 -28 -15 -45 4 -20 1 -24 -14 -20 -26
7 -33 -8 -12 -24 9 -8 18 -13 20 -11 1 1 4 2 6 1 1 0 25 -2 54 -4 44 -2 52 0
57 17 3 13 10 18 19 15 8 -3 19 -1 25 5 6 6 12 6 17 -2 4 -7 -1 -14 -14 -17
-12 -3 -21 -12 -21 -19 0 -8 -5 -23 -12 -33 -11 -19 -10 -21 30 -66 14 -16 16
-45 2 -45 -5 0 -10 4 -10 8 0 4 -9 8 -20 9 -23 2 -23 2 -11 -29 8 -22 6 -23
-35 -25 -47 -2 -62 16 -49 57 7 22 25 27 25 8 0 -21 23 9 25 32 1 15 -4 20
-21 20 -13 0 -26 -5 -30 -11 -3 -6 -20 -8 -38 -5 -53 10 -56 3 -47 -122 5 -62
11 -115 14 -118 2 -3 17 1 32 8 23 10 29 10 33 0 3 -9 99 -12 430 -11 235 0
422 3 416 5 -12 5 -6 54 6 54 5 0 11 -13 15 -30 l7 -30 1335 0 c735 0 1334 3
1331 6 -3 3 2 28 12 56 10 29 15 59 12 67 -6 14 -7 14 -10 -1 -2 -10 -7 -18
-12 -18 -5 0 -4 14 1 30 6 17 17 30 24 30 18 0 25 26 20 78 -3 24 0 42 5 42 6
0 15 11 20 25 10 27 24 32 36 13 4 -6 3 -8 -3 -5 -10 6 -19 -11 -37 -67 -5
-13 -2 -17 8 -13 13 5 13 1 5 -20 -7 -19 -6 -28 3 -34 16 -10 28 8 28 41 0 18
3 21 9 11 5 -7 14 -10 20 -6 9 5 9 10 0 21 -10 12 -10 14 1 12 7 -2 15 3 17
11 4 10 -1 11 -18 6 l-24 -7 23 24 c22 24 31 55 12 43 -5 -3 -10 1 -10 9 0 8
4 18 10 21 6 4 10 100 10 256 0 213 -2 250 -15 255 -8 4 -15 15 -15 25 0 21
16 26 23 7 3 -7 6 6 6 29 1 23 -3 45 -9 48 -5 3 -7 0 -4 -8 5 -15 -20 -47 -37
-47 -12 0 -12 17 1 25 6 3 10 14 10 25 0 10 7 21 16 24 8 3 13 10 9 15 -3 5
-1 12 4 16 6 3 10 28 9 55 0 28 -4 47 -9 44 -5 -3 -9 0 -9 5 0 6 4 11 9 11 5
0 10 43 10 95 1 87 -8 118 -23 80 -3 -9 -19 -21 -36 -26 -16 -6 -30 -15 -30
-20 0 -5 -8 -9 -17 -9 -11 0 -14 3 -7 8 5 4 10 17 10 29 0 17 -4 20 -18 12
-12 -6 -18 -6 -18 1 0 16 -37 12 -44 -5 -3 -8 -3 -22 0 -30 4 -8 1 -15 -5 -15
-6 0 -11 5 -11 10 0 6 -4 10 -10 10 -5 0 -10 -6 -10 -14 0 -8 -7 -17 -16 -20
-22 -9 -24 -8 -24 9 0 8 -4 15 -10 15 -5 0 -7 -7 -4 -15 4 -8 1 -15 -5 -15 -6
0 -11 7 -11 15 0 9 -9 15 -25 15 -18 0 -25 5 -25 19 0 11 -4 23 -10 26 -6 3
-7 -1 -4 -9 4 -11 0 -16 -10 -16 -9 0 -16 7 -16 16 0 11 -6 14 -20 9 -12 -4
-31 0 -44 9 -23 14 -36 12 -36 -6 0 -4 6 -8 14 -8 21 0 31 -21 15 -31 -19 -12
-39 9 -39 42 0 15 -4 31 -10 34 -16 10 -11 43 8 48 16 4 16 5 -1 6 -14 1 -17
6 -11 24 3 12 11 24 16 25 5 2 4 10 -2 17 -8 10 -5 24 15 54 14 23 21 41 15
41 -14 0 -13 33 2 48 8 8 8 12 1 12 -6 0 -11 20 -11 45 -1 32 3 47 16 54 15 9
15 10 1 11 -19 0 -28 42 -18 80 4 14 7 21 8 16 1 -5 8 -3 16 4 9 7 13 21 10
31 -8 25 4 61 17 53 5 -3 8 -15 5 -25 -3 -12 0 -19 10 -19 8 0 11 -5 7 -11 -4
-7 -1 -10 7 -7 8 3 19 15 25 27 7 13 17 28 24 34 10 9 11 9 6 0 -10 -18 4 -16
26 4 20 18 25 4 6 -15 -19 -19 5 -13 32 8 14 11 30 20 35 20 6 0 3 -5 -5 -10
-13 -8 -12 -10 3 -10 11 0 21 9 25 22 5 21 6 21 13 2 7 -17 8 -17 8 -1 1 10 5
16 9 13 5 -3 19 4 31 15 12 11 27 17 34 13 6 -4 9 -4 5 1 -4 4 7 19 24 33 21
18 33 23 36 14 2 -6 8 -12 13 -12 14 0 11 26 -6 40 -8 6 -23 37 -35 67 -11 30
-34 71 -50 92 -27 33 -166 140 -305 236 -103 70 -290 163 -303 150 -5 -4 -62
23 -62 30 0 2 4 15 10 29 7 19 6 24 -4 20 -7 -3 -25 8 -40 23 -35 35 -101 42
-109 11 -4 -12 -10 -17 -17 -13 -9 6 -9 10 1 16 11 6 11 13 3 26 -6 10 -16 19
-23 19 -6 1 -14 2 -19 3 -4 0 -13 10 -20 22 -13 20 -12 21 16 14 18 -3 33 -2
37 4 12 20 33 12 28 -10 -5 -17 -2 -20 18 -18 29 4 89 -19 89 -35 0 -6 5 -4
10 4 14 21 12 30 -5 30 -9 0 -19 10 -24 23 -5 13 -16 29 -25 36 -14 12 -14 15
-1 25 23 17 4 34 -32 29 -27 -4 -31 -8 -23 -22 7 -15 5 -17 -21 -13 -28 4 -41
21 -16 23 6 0 0 5 -14 10 -33 12 -49 73 -26 96 19 19 47 6 47 -22 0 -43 10
-55 47 -55 33 0 34 1 28 30 -6 28 -4 30 22 30 21 1 24 3 13 9 -21 12 -208 43
-219 37 -5 -3 -3 -23 5 -43 16 -45 18 -83 4 -83 -9 0 -30 62 -30 92 0 30 -20
31 -20 1 -1 -18 -14 7 -39 74 -21 57 -44 110 -51 118 -7 9 -10 18 -7 21 3 4
-4 15 -16 25 -12 10 -19 18 -16 19 29 1 259 -69 311 -95 37 -19 89 -40 115
-46 26 -6 62 -20 79 -30 17 -11 38 -19 47 -19 9 0 26 -14 39 -30 17 -22 40
-35 77 -45 29 -7 62 -21 74 -29 12 -9 38 -27 57 -40 19 -13 42 -31 49 -40 11
-13 16 -14 23 -4 11 17 112 -90 175 -187 25 -38 76 -112 112 -163 72 -101 79
-102 80 -5 1 32 -4 53 -11 56 -10 4 -10 6 0 6 9 1 12 637 12 3146 l0 3145
-4440 0 -4440 0 0 -4440z m5717 4084 c-3 -3 -12 -4 -19 -1 -8 3 -5 6 6 6 11 1
17 -2 13 -5z m-2524 -41 c-7 -2 -19 -2 -25 0 -7 3 -2 5 12 5 14 0 19 -2 13 -5z
m2690 -111 c12 -10 23 -23 25 -30 4 -22 -16 -12 -38 18 -24 34 -19 39 13 12z
m-2928 -208 c-50 -42 -67 -45 -27 -4 17 17 35 30 41 30 6 0 11 5 11 12 0 6 3
8 8 4 4 -4 -11 -23 -33 -42z m3152 -63 c18 -23 16 -34 -4 -27 -13 5 -11 0 7
-20 l25 -27 -27 17 c-15 10 -30 26 -33 37 -4 10 -13 19 -20 19 -8 0 -12 6 -9
14 7 17 44 9 61 -13z m-3207 -5 c0 -2 -8 -10 -17 -17 -16 -13 -17 -12 -4 4 13
16 21 21 21 13z m3231 -113 c13 -16 12 -17 -3 -4 -10 7 -18 15 -18 17 0 8 8 3
21 -13z m-3266 -53 c-3 -5 -11 -10 -16 -10 -6 0 -7 5 -4 10 3 6 11 10 16 10 6
0 7 -4 4 -10z m3335 -33 c0 -6 -9 -2 -20 8 -11 10 -20 23 -20 28 0 6 9 2 20
-8 11 -10 20 -23 20 -28z m-50 -3 c0 -8 5 -12 10 -9 6 3 10 0 10 -7 0 -7 10
-18 23 -23 12 -6 22 -15 22 -22 0 -6 3 -15 8 -19 14 -15 7 -24 -12 -13 -10 7
-18 19 -17 27 0 8 -5 17 -13 20 -9 3 -11 0 -6 -8 5 -8 3 -11 -6 -8 -8 3 -14
10 -14 17 0 7 -8 18 -17 25 -22 16 -23 36 -3 36 8 0 15 -7 15 -16z m-762 -46
c9 5 36 10 60 11 35 2 48 -3 72 -26 17 -15 30 -33 30 -40 0 -6 14 -20 30 -30
17 -9 29 -21 27 -26 -1 -5 23 -36 55 -69 32 -32 56 -63 53 -67 -2 -5 2 -14 10
-21 8 -7 15 -24 15 -39 0 -14 7 -35 15 -45 8 -10 12 -22 10 -26 -3 -5 2 -21
10 -36 8 -16 15 -51 15 -77 0 -27 5 -58 12 -70 6 -12 13 -58 14 -102 1 -44 5
-89 10 -99 5 -13 4 -17 -3 -13 -7 4 -13 -10 -18 -38 -5 -34 -3 -49 9 -61 20
-19 20 -25 1 -18 -12 5 -14 -3 -12 -47 2 -29 9 -55 15 -57 7 -2 12 -8 12 -14
0 -6 11 -24 25 -40 30 -35 67 -104 72 -133 18 -107 25 -143 34 -158 5 -10 7
-22 4 -27 -7 -11 25 -70 38 -70 5 0 5 9 2 20 -3 11 -2 20 3 20 6 0 12 -16 14
-35 2 -19 0 -35 -4 -35 -12 0 -9 -43 5 -61 7 -9 17 -14 23 -12 6 2 16 -7 23
-19 11 -22 11 -22 6 5 -3 17 -2 26 3 23 6 -3 12 3 15 13 5 22 57 35 57 15 0
-30 17 -12 38 39 13 30 36 67 52 82 59 56 143 25 157 -57 5 -32 3 -36 -13 -32
-23 5 -28 1 -78 -55 -37 -42 -38 -46 -32 -95 5 -48 81 -282 96 -299 8 -10 -12
73 -29 116 -14 36 -14 37 3 31 17 -6 26 36 26 118 0 68 18 148 33 148 7 0 7
-35 2 -107 -4 -60 -9 -196 -10 -303 -3 -228 -31 -406 -89 -551 -74 -189 -127
-250 -184 -213 -31 21 -63 94 -60 139 2 35 14 46 24 21 4 -10 15 -11 50 -4 51
11 68 3 88 -46 l13 -31 8 28 c10 39 -2 75 -37 111 -29 28 -31 36 -31 96 1 36
-3 73 -8 82 -13 25 -1 45 47 78 35 23 44 26 44 13 0 -9 -8 -25 -17 -36 -17
-19 -17 -20 3 -9 37 19 46 40 52 114 12 163 9 187 -33 263 -22 39 -39 73 -37
78 1 4 -5 7 -13 7 -8 0 -15 1 -15 3 0 1 9 36 20 77 10 41 18 76 16 78 -6 5
-52 -80 -71 -130 -18 -49 -40 -62 -49 -30 -14 47 -17 90 -7 96 7 5 7 13 -1 26
-9 14 -14 16 -20 7 -6 -8 -10 -5 -14 10 -4 13 -10 20 -15 18 -8 -6 9 -55 20
-55 3 0 7 -27 8 -60 2 -53 0 -60 -17 -60 -10 0 -21 6 -24 13 -15 31 10 -69 40
-166 39 -125 42 -180 14 -260 -11 -31 -20 -66 -20 -77 0 -11 -4 -20 -10 -20
-5 0 -10 -10 -10 -23 0 -13 -6 -43 -14 -68 -8 -24 -21 -80 -30 -124 -9 -44
-21 -99 -26 -123 -6 -24 -17 -120 -26 -215 -8 -95 -24 -215 -34 -267 -16 -79
-17 -96 -6 -102 24 -14 87 -117 127 -208 79 -182 87 -355 30 -630 -40 -193
-43 -204 -81 -285 -17 -38 -39 -86 -47 -105 -26 -59 -101 -209 -130 -258 -52
-91 -218 -325 -233 -330 -15 -5 7 -40 29 -47 29 -9 101 65 101 103 0 31 16 52
39 52 17 1 71 44 71 57 0 5 9 15 20 23 12 9 18 21 14 32 -6 21 -3 22 30 7 20
-9 22 -15 14 -28 -7 -12 -6 -32 6 -70 16 -53 15 -54 -9 -83 -14 -16 -25 -37
-25 -45 0 -9 -27 -43 -59 -77 -133 -137 -198 -202 -226 -227 -90 -77 -204
-166 -230 -179 -16 -9 -49 -28 -71 -42 -56 -36 -294 -113 -294 -96 0 3 40 22
89 42 74 31 154 77 214 126 74 59 88 75 101 120 8 27 26 66 40 87 14 21 26 42
26 48 0 6 -3 6 -8 -1 -7 -11 -73 -37 -78 -31 -8 7 42 67 56 67 8 0 24 18 34
40 11 22 26 40 33 40 10 0 12 6 8 20 -5 14 2 28 22 48 15 16 35 41 43 56 8 16
27 38 42 51 18 15 28 33 28 51 0 16 11 39 24 53 27 28 136 206 136 221 0 5 11
21 25 36 28 30 95 161 95 186 0 9 -6 18 -12 21 -7 2 -10 8 -6 12 4 4 15 2 24
-6 16 -13 17 -11 11 27 -5 33 0 56 29 125 33 79 58 166 69 241 13 88 16 341 5
395 -19 91 -68 231 -98 276 -15 22 -32 47 -37 57 -6 9 -16 15 -24 12 -10 -3
-12 4 -9 29 3 19 2 44 -3 56 -4 12 -4 23 1 25 12 4 22 148 10 148 -5 0 -8 23
-8 50 1 28 -3 55 -9 61 -6 6 -9 26 -6 45 4 22 2 34 -6 34 -6 0 -11 5 -11 11 0
6 6 9 14 6 10 -4 12 0 8 15 -3 11 1 24 8 28 11 7 11 12 2 23 -10 12 -10 18 3
31 14 14 14 18 -1 47 -15 29 -15 33 0 41 14 8 14 12 -3 46 -16 32 -17 40 -6
56 11 15 11 24 -1 58 -7 22 -12 43 -10 47 2 3 -3 15 -11 26 -11 14 -17 16 -20
8 -3 -7 -11 -13 -19 -13 -8 0 -14 6 -14 13 0 6 -7 3 -16 -8 -18 -24 -17 -24
-40 -3 -28 24 -91 20 -136 -8 -20 -13 -48 -24 -62 -24 -13 0 -26 -7 -29 -15
-3 -8 -27 -23 -52 -35 -37 -17 -45 -25 -40 -40 4 -14 -2 -23 -22 -34 -21 -11
-23 -15 -10 -16 15 0 14 -4 -9 -25 -18 -16 -25 -31 -21 -45 3 -12 -1 -24 -11
-29 -15 -9 -15 -11 1 -28 15 -18 15 -21 1 -42 -9 -12 -22 -20 -30 -17 -8 3
-14 1 -14 -4 0 -11 35 -31 42 -24 3 2 1 -13 -5 -35 -8 -31 -8 -43 3 -56 7 -9
15 -28 16 -42 5 -44 11 -51 40 -45 19 3 25 1 20 -7 -4 -6 -14 -11 -23 -11 -9
0 -13 -6 -10 -15 4 -8 1 -17 -4 -21 -10 -6 -8 -27 7 -76 4 -13 0 -18 -13 -18
-14 0 -15 -2 -4 -9 7 -5 11 -13 7 -19 -6 -10 19 -65 42 -90 18 -20 15 -34 -10
-30 -25 4 -36 -17 -13 -25 8 -4 15 -1 15 5 0 7 5 6 15 -2 8 -7 12 -16 9 -21
-3 -5 4 -25 16 -44 20 -33 19 -40 -5 -35 -5 1 -6 -2 -2 -7 5 -4 13 -9 18 -9 5
-1 12 -2 16 -3 4 0 -3 -8 -15 -17 -28 -19 -51 -60 -30 -52 11 5 13 -1 10 -23
-2 -16 -9 -29 -14 -29 -6 0 -8 6 -5 13 6 17 -19 51 -32 42 -6 -3 -21 1 -33 10
l-23 16 28 -5 c22 -4 27 -1 27 17 0 16 -3 18 -12 9 -22 -22 -31 -13 -25 24 6
34 5 35 -12 20 -21 -20 -38 -21 -22 -2 14 16 4 46 -15 46 -8 0 -14 4 -14 9 0
11 39 24 69 21 l23 -2 -17 34 c-10 18 -21 40 -25 48 -7 15 -50 27 -50 14 0 -4
14 -20 31 -36 17 -16 29 -31 27 -33 -7 -6 -47 -25 -52 -25 -3 0 -6 7 -6 15 0
8 -4 15 -10 15 -5 0 -10 5 -10 11 0 5 5 7 10 4 6 -3 10 -1 10 5 0 6 -8 10 -17
9 -31 -3 -36 1 -22 17 11 14 10 18 -5 29 -10 8 -24 11 -32 8 -8 -3 -14 1 -14
8 0 8 -7 23 -16 34 -13 17 -16 18 -24 5 -8 -13 -10 -12 -10 3 0 23 -16 21 -34
-5 -9 -12 -19 -19 -22 -15 -4 4 -1 13 6 22 7 9 10 18 6 22 -3 3 -6 1 -6 -5 0
-7 -15 -12 -36 -12 -25 0 -33 3 -28 13 5 8 2 8 -9 -2 -15 -11 -17 -11 -17 2 0
8 6 18 13 21 6 3 -1 4 -17 0 -26 -5 -28 -3 -16 11 12 15 11 15 -16 4 -43 -19
-49 -26 -34 -44 8 -9 8 -15 2 -15 -6 0 -13 4 -16 9 -3 4 -20 4 -39 -2 l-33
-11 24 -23 c12 -13 25 -23 27 -23 7 0 75 -68 75 -74 0 -10 -40 -7 -61 5 -11 5
-72 26 -135 45 -87 27 -129 35 -170 32 -53 -3 -67 3 -41 19 19 11 48 58 41 66
-10 9 7 48 18 41 6 -4 8 1 4 14 -4 11 -2 23 4 27 5 3 10 13 10 21 0 8 -3 13
-7 11 -5 -3 -6 15 -4 40 2 34 8 47 22 50 10 3 19 9 19 14 0 5 21 14 47 20 31
8 58 25 83 50 39 40 68 95 56 106 -19 19 -183 4 -232 -22 -37 -19 -78 -19
-124 1 -36 16 -70 61 -70 92 0 13 -2 14 -9 3 -17 -27 -22 10 -15 102 4 50 7
96 6 100 -5 19 -12 242 -13 428 -1 171 1 200 16 223 10 14 14 26 11 26 -4 0
-2 9 4 20 6 12 21 20 36 20 14 0 22 4 19 10 -3 6 -2 10 3 10 6 0 12 -7 16 -15
3 -8 14 -15 24 -15 40 0 74 -58 87 -146 6 -48 34 -141 35 -119 0 14 48 11 62
-3 7 -7 20 -12 30 -12 10 0 18 -4 18 -9 0 -11 35 -20 47 -12 6 3 12 11 14 17
8 23 107 -27 177 -90 99 -90 136 -116 168 -121 16 -2 39 -7 50 -11 19 -5 22
-2 20 19 0 14 -5 25 -11 24 -5 -1 -9 4 -7 11 1 6 -7 12 -17 12 -11 0 -50 23
-86 50 -36 28 -70 50 -76 50 -5 0 -9 5 -9 11 0 5 4 7 10 4 5 -3 21 1 34 10 14
9 29 14 33 12 5 -3 49 -8 98 -10 50 -2 82 -2 73 0 -33 8 -19 20 29 26 26 3 52
12 58 21 7 9 15 13 18 9 4 -3 7 -1 7 5 0 5 16 20 35 32 19 12 35 28 35 36 0 8
4 14 9 14 5 0 12 9 16 19 8 27 36 36 41 14 4 -14 18 -19 67 -20 79 -4 127 4
127 21 0 7 15 25 33 41 28 23 29 26 9 20 l-24 -7 23 23 c21 21 22 24 6 27 -9
2 -15 8 -12 13 4 5 1 9 -5 9 -8 0 -7 6 1 21 8 16 8 23 -1 29 -6 4 -16 27 -21
51 -9 41 -19 70 -40 111 -5 10 -9 24 -9 31 0 23 -78 96 -138 130 -37 21 -128
20 -141 -2 -5 -7 -21 -11 -37 -10 -48 5 -142 -11 -147 -26 -3 -7 -28 -18 -55
-24 -28 -6 -74 -20 -104 -31 -29 -11 -78 -23 -108 -26 -30 -4 -62 -10 -71 -15
-8 -4 -41 -10 -72 -13 -65 -6 -75 7 -34 48 29 29 19 59 -17 54 -13 -1 -30 3
-39 10 -13 12 -18 10 -29 -7 -20 -33 -88 -22 -75 12 3 8 -1 27 -9 42 -20 39
-17 62 11 91 30 30 31 34 5 34 -11 0 -20 5 -20 12 0 6 -10 3 -22 -8 -18 -16
-20 -16 -15 -2 3 9 0 19 -7 21 -9 4 -17 -12 -26 -51 -7 -32 -16 -61 -20 -67
-12 -15 -30 -122 -30 -179 0 -49 0 -50 -16 -28 -9 14 -19 56 -23 103 -11 125
-34 131 -71 20 -13 -39 -26 -71 -30 -71 -3 0 -17 23 -29 50 -25 55 -30 58 -66
34 -24 -16 -45 -12 -45 8 0 14 -40 68 -51 68 -5 0 -9 -7 -9 -15 0 -8 -4 -15
-9 -15 -15 0 -61 41 -58 53 1 7 -3 11 -10 10 -9 -2 -10 4 -4 21 8 21 7 23 -16
20 -13 -1 -27 -5 -30 -8 -3 -3 -12 6 -20 20 -16 31 -16 37 -3 29 14 -9 12 7
-4 27 -7 10 -16 15 -19 11 -10 -9 -25 39 -25 80 0 20 4 34 9 32 5 -3 19 -1 31
5 21 10 22 10 5 -3 -20 -16 -9 -31 12 -17 8 4 12 17 9 28 -4 15 -2 19 8 15 8
-3 20 -1 27 4 6 4 23 8 37 7 63 -3 161 -16 228 -30 88 -20 122 -14 122 21 0
19 -5 25 -21 25 -15 0 -19 4 -14 19 3 11 1 22 -5 26 -7 4 -9 18 -6 30 3 13 1
27 -5 30 -19 13 30 48 59 42 14 -3 32 -3 39 0 18 7 6 23 -18 23 -11 0 -38 19
-59 42 -40 41 -49 55 -30 43 15 -9 12 22 -4 53 -8 16 -14 35 -14 42 2 39 -3
60 -16 60 -8 0 -17 7 -20 16 -4 12 -13 14 -32 10 -17 -4 -30 -1 -41 10 -16 15
-16 17 3 31 10 8 18 19 17 24 -2 5 1 9 6 9 4 0 22 23 39 50 17 28 38 50 46 50
14 0 66 20 108 41 24 12 58 11 58 -1 0 -7 8 -6 23 1 12 7 41 13 65 14 24 0 46
6 50 11 11 16 42 25 42 12 0 -9 3 -9 12 0 7 7 22 12 34 12 12 0 27 7 34 15 7
8 19 15 26 15 8 0 23 5 34 10 11 6 29 14 39 20 13 6 21 6 23 -1 2 -6 19 1 38
15 46 34 119 68 131 61 5 -4 19 3 31 14 12 12 35 21 54 21 20 0 50 13 80 33
62 43 108 65 112 55 2 -4 11 -4 20 0z m-2538 -111 c0 -2 -17 -19 -37 -38 l-38
-34 34 38 c33 34 41 42 41 34z m3335 -32 c20 -15 40 -23 43 -20 3 3 16 -18 29
-46 13 -28 22 -53 20 -55 -2 -2 -12 14 -22 36 -20 44 -29 49 -40 23 -6 -17 -7
-17 -20 1 -8 10 -12 22 -10 27 3 4 -4 10 -15 14 -21 7 -48 45 -32 45 5 0 26
-11 47 -25z m-3418 -55 c-1 -10 -4 -17 -8 -14 -4 2 -15 -6 -23 -18 -21 -29
-20 -18 1 26 17 36 33 40 30 6z m43 -65 c-7 -9 -15 -13 -17 -11 -7 7 7 26 19
26 6 0 6 -6 -2 -15z m3460 -56 c0 -5 -11 -2 -25 7 -26 17 -30 26 -18 38 8 8
43 -29 43 -45z m-3008 -38 c-1 -7 11 -23 28 -37 16 -14 30 -32 30 -40 0 -8 8
-14 18 -14 13 0 14 -2 3 -9 -7 -5 -11 -17 -7 -27 13 -44 14 -74 3 -74 -8 0 -8
-3 1 -12 9 -9 7 -17 -11 -37 -17 -19 -18 -23 -4 -18 21 8 22 0 1 -20 -9 -10
-12 -18 -6 -22 16 -9 26 -61 13 -61 -6 0 -11 10 -12 23 l0 22 -10 -23 c-6 -15
-5 -31 2 -44 8 -14 8 -23 0 -31 -15 -15 -14 -30 1 -21 7 4 8 3 4 -4 -4 -6 -13
-9 -21 -6 -10 4 -9 -5 6 -36 12 -24 19 -51 16 -61 -3 -12 0 -16 9 -12 12 5 17
-12 13 -43 0 -4 5 -10 13 -15 9 -6 13 -34 13 -98 0 -49 3 -87 8 -84 14 9 7
-21 -10 -39 -10 -11 -18 -35 -20 -55 -1 -22 -11 -43 -27 -58 -15 -13 -26 -29
-26 -35 0 -5 -5 -10 -10 -10 -6 0 -22 -26 -36 -57 -15 -32 -30 -60 -34 -63
-11 -8 -22 -42 -27 -79 -2 -19 -9 -43 -14 -54 -6 -11 -13 -43 -15 -71 -3 -28
-6 -62 -8 -76 -1 -14 -4 -33 -4 -43 -1 -12 -6 -15 -14 -11 -8 5 -7 0 2 -11 12
-15 12 -19 2 -23 -10 -3 -7 -8 8 -19 15 -10 19 -21 15 -36 -4 -12 -9 -30 -11
-39 -4 -12 0 -18 10 -18 20 0 30 -18 19 -33 -6 -7 -9 -31 -9 -54 1 -34 -3 -43
-16 -43 -9 0 -20 -4 -23 -10 -3 -6 1 -7 9 -4 21 8 20 -10 0 -30 -8 -9 -12 -16
-7 -16 13 0 -21 -20 -35 -20 -10 0 -10 5 -1 22 10 18 9 20 -4 15 -13 -5 -15 0
-12 29 5 37 -12 47 -35 19 -7 -9 -24 -14 -38 -12 -22 3 -28 12 -44 68 -28 98
-24 214 11 340 31 111 37 150 47 269 9 127 46 290 65 290 5 0 9 5 9 12 0 13
67 78 81 78 4 0 11 10 14 21 6 17 9 19 17 8 6 -10 8 -2 3 23 -3 20 -2 39 3 42
10 6 3 66 -7 66 -5 0 -6 127 0 156 1 5 0 14 -1 19 -2 6 -4 24 -6 40 -2 17 -7
50 -11 75 -5 25 -5 61 -1 80 17 70 41 145 51 158 12 15 33 10 29 -7z m2938
-195 c0 -2 -9 -6 -20 -9 -11 -3 -20 -1 -20 4 0 5 9 9 20 9 11 0 20 -2 20 -4z
m-1975 -54 c-6 -7 -35 18 -35 31 0 5 9 2 20 -8 11 -10 18 -20 15 -23z m145 6
c0 -6 -7 -5 -16 2 -13 11 -16 10 -21 -8 -7 -28 -23 -29 -23 -2 0 11 7 20 15
20 8 0 15 5 15 11 0 8 5 8 15 -1 8 -7 15 -17 15 -22z m-1560 -7 c8 -16 5 -25
-15 -48 -19 -22 -24 -24 -25 -10 0 9 5 17 10 17 6 0 10 5 10 11 0 5 -4 7 -10
4 -11 -7 -13 6 -4 29 8 21 21 20 34 -3z m1490 -18 c0 -19 -6 -16 -24 12 -17
25 -16 25 4 13 11 -7 20 -18 20 -25z m1910 -33 c0 -5 -2 -10 -4 -10 -3 0 -8 5
-11 10 -3 6 -1 10 4 10 6 0 11 -4 11 -10z m-26 -36 c10 -25 -1 -29 -14 -5 -6
12 -7 21 -1 21 5 0 12 -7 15 -16z m-3384 -64 c-6 -11 -16 -18 -21 -14 -6 3 -3
12 8 21 10 8 12 12 6 8 -7 -3 -13 -2 -13 2 0 5 6 15 13 22 17 17 22 -10 7 -39z
m22 -22 c-7 -7 -12 -8 -12 -2 0 14 12 26 19 19 2 -3 -1 -11 -7 -17z m518 -74
c0 -8 -4 -12 -10 -9 -5 3 -10 10 -10 16 0 5 5 9 10 9 6 0 10 -7 10 -16z m945
-14 c3 -5 1 -10 -4 -10 -6 0 -11 5 -11 10 0 6 2 10 4 10 3 0 8 -4 11 -10z m85
-30 c0 -5 -2 -10 -4 -10 -3 0 -8 5 -11 10 -3 6 -1 10 4 10 6 0 11 -4 11 -10z
m30 -40 c0 -5 -2 -10 -4 -10 -3 0 -8 5 -11 10 -3 6 -1 10 4 10 6 0 11 -4 11
-10z m-1716 -479 c-4 -35 -2 -72 5 -91 l11 -32 -40 36 c-22 19 -46 33 -53 30
-34 -13 4 84 42 106 35 21 41 12 35 -49z m2064 -39 c2 -7 -3 -12 -12 -12 -9 0
-16 7 -16 16 0 17 22 14 28 -4z m1302 -41 c0 -4 -6 -8 -14 -8 -8 0 -12 6 -9
14 5 13 23 9 23 -6z m-3115 -91 c3 -5 1 -10 -4 -10 -6 0 -11 5 -11 10 0 6 2
10 4 10 3 0 8 -4 11 -10z m-229 -197 c-9 -26 -34 -97 -56 -158 -38 -104 -40
-107 -34 -55 6 51 76 326 92 360 14 31 12 -101 -2 -147z m171 29 c-14 -17 -16
-12 -10 23 5 25 7 27 13 10 4 -11 3 -26 -3 -33z m-19 -322 c-1 -22 -6 -40 -11
-40 -5 0 -7 10 -3 23 3 12 6 30 6 40 0 9 2 17 5 17 3 0 4 -18 3 -40z m1444
-27 c-10 -4 -9 -9 4 -24 12 -13 13 -19 4 -19 -9 0 -11 -18 -8 -70 2 -38 1 -70
-2 -70 -3 0 -5 -39 -5 -87 0 -63 -4 -88 -14 -91 -10 -3 -10 -6 -2 -12 9 -5 9
-14 0 -36 -7 -16 -11 -43 -10 -60 1 -18 -4 -36 -15 -44 -14 -13 -19 -11 -35 9
-25 31 -24 76 2 94 14 11 17 16 7 19 -10 4 -10 10 1 34 7 16 15 40 18 53 2 14
12 30 21 37 16 12 16 12 -2 11 -11 -1 -25 10 -36 31 -10 18 -21 33 -24 33 -28
-3 -36 2 -36 19 0 11 6 19 13 18 6 -2 11 4 9 13 -1 8 9 21 22 29 14 7 22 18
19 26 -8 20 14 17 26 -3 9 -16 12 -16 21 -3 7 11 5 16 -8 18 -9 2 -21 9 -27
14 -7 7 -3 9 13 5 15 -3 22 -1 22 9 0 8 5 14 11 14 8 0 8 4 0 13 -8 10 -7 17
1 25 6 6 14 9 17 5 3 -3 0 -8 -7 -10z m-1135 -55 c-3 -8 -6 -5 -6 6 -1 11 2
17 5 13 3 -3 4 -12 1 -19z m2999 -40 c4 -6 -5 -21 -22 -35 -47 -37 -60 -26
-23 21 22 28 34 32 45 14z m-3209 -98 c-3 -12 0 -17 8 -14 7 3 16 0 21 -7 4
-7 3 -14 -4 -17 -8 -2 -7 -13 5 -35 10 -18 16 -36 15 -41 -2 -4 2 -14 8 -21 6
-7 10 -17 9 -21 -1 -5 0 -11 1 -14 6 -16 20 -110 24 -155 0 -11 5 -26 10 -34
5 -8 4 -16 -5 -22 -11 -7 -11 -9 -1 -9 7 0 10 -5 7 -10 -4 -6 -2 -16 3 -23 12
-14 11 -68 0 -60 -15 8 -8 -10 7 -21 14 -10 14 -15 0 -49 -9 -21 -13 -42 -10
-47 3 -5 1 -19 -5 -30 -6 -12 -7 -20 -1 -20 5 0 9 -34 9 -77 0 -43 -1 -73 -3
-68 -6 16 -33 224 -40 305 -4 41 -18 131 -32 200 -13 69 -26 152 -28 185 -2
33 -7 78 -11 99 -5 30 -4 37 5 31 7 -4 11 -15 8 -25z m-290 -58 c23 -85 24
-98 4 -57 -20 42 -38 125 -25 112 5 -4 14 -29 21 -55z m111 6 c2 -34 -4 -60
-26 -104 -16 -33 -32 -66 -34 -74 -3 -10 -6 -8 -10 8 -4 12 -2 22 3 22 5 0 9
20 9 44 0 23 5 57 11 74 7 22 7 36 0 51 -9 16 -8 20 7 24 31 8 37 1 40 -45z
m3372 -70 c0 -10 -43 3 -62 20 -30 25 -9 33 27 9 19 -12 35 -25 35 -29z
m-3305 11 c-4 -5 -13 -9 -22 -9 -13 0 -13 3 -3 15 13 15 35 11 25 -6z m1281
-166 c-14 -14 -26 -22 -26 -18 0 4 -7 2 -15 -5 -10 -8 -15 -9 -15 -2 0 6 6 15
13 19 7 4 21 21 31 37 16 26 20 27 28 12 7 -13 3 -23 -16 -43z m-1252 11 c8
-21 -22 -101 -40 -108 -17 -7 -44 31 -44 61 0 16 8 27 24 33 13 5 27 14 31 19
9 16 22 13 29 -5z m2992 -111 c-11 -11 -17 4 -9 23 7 18 8 18 11 1 2 -10 1
-21 -2 -24z m569 -150 c131 -55 259 -130 387 -226 125 -94 205 -196 306 -388
33 -64 77 -142 97 -174 46 -72 130 -244 122 -251 -3 -3 -21 18 -40 48 -43 67
-123 156 -139 155 -7 -1 -43 13 -79 30 -36 18 -78 35 -93 39 -25 6 -37 24 -16
24 23 0 114 -41 146 -65 20 -15 38 -25 41 -22 7 8 -72 64 -132 94 -62 32 -86
56 -88 91 -2 23 2 27 23 26 23 -2 23 -1 5 12 -10 8 -27 14 -37 14 -12 0 -26
16 -40 44 -12 24 -31 49 -42 55 -12 5 -15 10 -8 10 21 1 13 40 -13 63 -13 11
-22 25 -19 29 2 4 0 10 -5 13 -5 3 -7 14 -4 24 3 12 -16 38 -57 80 -69 69 -66
81 5 26 26 -19 52 -33 58 -31 12 4 -5 21 -73 77 -24 19 -49 41 -56 48 -7 6
-17 12 -22 12 -6 0 -12 4 -14 8 -3 8 -136 76 -256 131 -56 25 -82 48 -41 36
13 -4 51 -19 84 -32z m-621 1 c3 -8 2 -12 -4 -9 -6 3 -10 10 -10 16 0 14 7 11
14 -7z m-3434 -149 c0 -2 -10 -9 -22 -15 -22 -11 -22 -10 -4 4 21 17 26 19 26
11z m-173 -137 c-68 -68 -92 -99 -126 -171 -28 -57 -42 -96 -39 -112 4 -21 -1
-28 -41 -46 -55 -27 -151 -91 -151 -102 0 -4 12 1 28 12 15 11 53 32 84 46
l58 25 -2 -40 c-1 -23 -6 -40 -13 -40 -7 0 -39 -14 -72 -30 -42 -21 -90 -60
-153 -123 -87 -88 -101 -93 -55 -17 12 19 24 43 28 53 4 10 38 62 76 115 38
54 79 119 91 146 29 60 146 186 269 288 52 43 96 78 98 78 2 0 -34 -37 -80
-82z m2770 20 c-3 -8 -6 -5 -6 6 -1 11 2 17 5 13 3 -3 4 -12 1 -19z m-545 -31
c15 -11 25 -24 22 -29 -3 -4 6 -8 20 -8 28 0 35 -17 12 -26 -16 -6 -86 27
-104 49 -15 17 -5 50 12 40 6 -4 23 -16 38 -26z m1143 13 c-3 -5 -12 -10 -18
-10 -7 0 -6 4 3 10 19 12 23 12 15 0z m-55 -64 c-13 -13 -35 7 -25 24 5 8 11
8 21 -1 10 -8 12 -15 4 -23z m-990 0 c0 -3 -4 -8 -10 -11 -5 -3 -10 -1 -10 4
0 6 5 11 10 11 6 0 10 -2 10 -4z m-1514 -98 c-29 -39 -94 -172 -118 -243 -29
-83 -48 -191 -49 -283 -2 -82 -2 -84 -9 -32 -9 71 4 220 25 290 24 76 90 206
132 258 40 49 55 57 19 10z m-908 -93 c-12 -25 -26 -45 -30 -45 -9 0 16 54 34
78 19 23 18 12 -4 -33z m2599 32 c3 8 12 9 28 3 12 -5 26 -6 29 -3 3 4 6 -2 6
-12 0 -15 2 -15 16 -4 12 10 17 10 23 1 4 -7 15 -10 23 -7 9 4 18 -1 22 -11 6
-16 8 -15 26 1 11 10 20 13 20 8 0 -11 64 -10 93 2 10 4 28 3 40 -4 109 -56
173 -124 138 -145 -5 -3 -7 -14 -4 -24 3 -15 -5 -22 -39 -35 -24 -10 -51 -17
-60 -17 -22 0 -68 21 -68 30 0 13 -44 19 -57 8 -21 -17 -16 36 7 79 22 41 24
52 12 71 -7 10 -22 8 -73 -9 -118 -38 -249 -39 -249 -2 0 17 -17 17 -23 1 -3
-7 -6 0 -6 16 -1 21 3 27 14 22 10 -4 19 3 27 18 9 21 13 23 31 13 15 -9 21
-9 24 0z m1195 -39 c47 -99 62 -181 51 -288 l-10 -95 -2 75 c-2 95 -35 264
-61 308 -21 35 -25 52 -12 52 4 0 19 -24 34 -52z m-1319 -5 c7 -36 -1 -43 -19
-19 -11 15 -15 16 -19 5 -5 -14 -45 -24 -45 -13 0 22 24 44 41 39 11 -4 19 -2
19 4 0 23 18 10 23 -16z m1222 -140 c-9 -31 -23 -65 -30 -76 -12 -17 -13 -16
-20 10 -4 17 -2 29 4 31 6 2 11 12 11 23 0 10 5 19 10 19 6 0 10 7 10 15 0 8
6 26 12 41 21 44 22 3 3 -63z m-3882 -107 c-45 -23 -90 -49 -100 -57 -15 -12
-15 -10 1 9 24 28 77 61 125 78 65 24 57 14 -26 -30z m5142 -45 c72 -36 132
-96 216 -216 111 -161 130 -204 217 -490 103 -339 119 -556 66 -903 -5 -30 -8
-33 -29 -28 -18 5 -24 1 -29 -19 -7 -27 -33 -34 -42 -11 -3 8 -12 12 -19 10
-7 -3 -19 4 -25 16 -12 22 -5 60 11 60 5 0 9 82 10 198 0 108 4 231 8 273 9
88 2 245 -10 214 -4 -11 -5 -31 -2 -45 4 -19 2 -22 -6 -10 -7 10 -8 -23 -4
-111 5 -108 4 -127 -11 -141 -14 -15 -15 -23 -4 -62 9 -33 9 -51 1 -68 -6 -13
-17 -45 -24 -71 -14 -57 -11 -57 -150 -1 -48 19 -96 34 -108 34 -12 0 -31 5
-42 11 -11 6 -25 9 -32 6 -14 -4 80 -49 178 -84 106 -38 162 -110 82 -106 -46
2 -96 14 -103 24 -3 5 -9 7 -13 4 -5 -2 -16 4 -26 15 -10 11 -25 20 -34 20 -9
0 -43 13 -76 29 -33 16 -77 32 -97 36 -21 4 -38 11 -38 15 0 4 -18 12 -39 19
-43 12 -61 42 -41 66 14 17 29 15 84 -9 52 -23 112 -33 102 -18 -4 7 -15 12
-25 12 -9 0 -26 7 -37 15 -10 8 -28 15 -40 15 -11 0 -32 13 -47 28 -30 31 -35
77 -18 155 28 126 35 167 37 215 1 28 9 63 18 77 22 34 20 53 -6 57 -21 3 -23
8 -22 70 1 37 5 73 11 80 10 14 10 114 0 125 -11 11 -8 41 6 47 9 5 9 7 0 12
-9 4 -8 15 2 45 8 21 12 40 10 40 -3 1 -11 2 -17 3 -22 2 -20 34 1 41 25 8 29
56 7 74 -8 7 -15 20 -15 29 -1 9 -2 53 -4 97 -2 44 -8 90 -15 102 -23 42 -17
46 55 40 45 -5 88 -17 128 -36z m-5095 -1 c0 -5 -5 -10 -11 -10 -6 0 -8 -9 -4
-21 7 -22 -21 -99 -36 -99 -5 0 -6 -7 -3 -15 4 -8 1 -15 -6 -15 -7 0 -9 -8 -5
-20 3 -11 2 -20 -4 -20 -10 0 -27 -39 -23 -53 1 -5 -9 -45 -24 -90 -14 -45
-27 -102 -29 -127 -2 -25 -6 -58 -9 -75 -17 -91 -18 -105 -8 -105 14 0 21 -71
10 -93 -6 -11 -6 -23 0 -30 18 -23 22 -87 6 -100 -37 -30 -54 -48 -54 -57 0
-7 6 -7 19 0 31 16 36 12 14 -12 -26 -30 -48 -138 -31 -151 9 -6 8 -7 -4 -3
-12 3 -24 -5 -39 -27 -31 -44 -127 -139 -157 -154 -23 -12 -24 -12 -20 12 3
16 1 25 -7 25 -29 0 -33 104 -15 374 5 77 8 141 6 143 -5 5 -25 -137 -32 -218
-3 -35 -8 -75 -11 -89 l-6 -25 -7 25 c-6 21 -8 18 -15 -23 -4 -26 -5 -66 -1
-87 4 -26 1 -54 -10 -82 -9 -24 -22 -69 -30 -102 -8 -32 -21 -65 -29 -72 -7
-8 -15 -19 -17 -26 -3 -7 -9 -8 -18 -3 -10 6 -12 40 -7 164 4 86 11 172 16
191 5 19 23 89 40 155 43 165 125 403 166 485 44 87 136 231 187 293 22 26 74
70 116 97 78 51 92 57 92 40z m2811 -21 c14 -5 48 -12 75 -14 79 -8 90 -10
117 -28 14 -9 33 -14 41 -11 9 3 28 -4 43 -16 37 -28 59 -122 35 -142 -13 -11
-15 -10 -10 3 3 9 2 22 -3 30 -8 12 -10 12 -18 -1 -7 -10 -6 -17 2 -22 9 -5 8
-10 -2 -20 -11 -10 -14 -10 -18 0 -3 6 -9 10 -14 6 -5 -3 -9 3 -9 13 0 15 -2
16 -10 3 -15 -23 -12 -37 10 -43 30 -8 24 -23 -7 -21 -41 2 -42 2 -36 22 2 10
-3 24 -11 31 -14 11 -16 11 -16 -5 0 -11 4 -26 10 -34 11 -18 -6 -41 -26 -33
-9 3 -14 -1 -14 -12 0 -14 -4 -14 -30 5 -16 12 -30 17 -30 12 0 -6 6 -12 13
-15 6 -2 8 -8 4 -13 -5 -5 -21 -1 -38 8 -16 9 -29 13 -29 8 0 -5 -7 -7 -15 -4
-8 4 -15 11 -15 18 0 7 -12 12 -27 11 -16 0 -31 3 -34 8 -4 5 -15 4 -27 -2
-15 -8 -23 -7 -31 3 -6 7 -7 17 -3 21 4 5 1 5 -5 1 -8 -4 -13 -2 -13 5 0 8 -5
8 -16 -2 -15 -12 -16 -10 -10 19 5 20 4 32 -3 32 -5 0 -11 -15 -13 -32 l-3
-33 -23 42 c-12 23 -22 50 -22 60 0 10 -7 29 -16 41 -17 24 -10 52 9 33 20
-20 29 -11 13 14 -20 30 -20 36 -1 29 9 -4 15 0 15 8 0 8 5 19 10 24 12 12
165 7 201 -7z m-294 -6 c-4 -3 -2 -12 3 -19 14 -16 -7 -104 -24 -98 -6 2 -18
-5 -26 -17 -39 -56 -39 -56 -40 -36 0 10 -4 16 -8 13 -4 -2 -9 6 -10 19 -1 13
3 27 8 30 5 3 7 11 4 18 -9 24 25 71 58 84 40 14 43 15 35 6z m665 -78 c3 3 3
-6 0 -20 -5 -28 -41 -55 -43 -33 -2 17 1 40 7 57 3 10 8 10 18 2 7 -6 15 -8
18 -6z m-622 -50 c-7 -9 -15 -13 -19 -10 -3 3 1 10 9 15 21 14 24 12 10 -5z
m-77 -30 c-3 -9 -8 -14 -10 -11 -3 3 -2 9 2 15 9 16 15 13 8 -4z m-1596 -82
c-3 -10 -5 -4 -5 12 0 17 2 24 5 18 2 -7 2 -21 0 -30z m2163 -43 c0 -5 -4 -10
-10 -10 -5 0 -10 5 -10 10 0 6 5 10 10 10 6 0 10 -4 10 -10z m1113 -372 c4
-15 0 -26 -14 -36 -11 -8 -18 -20 -15 -28 7 -18 -14 -66 -28 -61 -19 6 -16 24
9 61 13 20 24 40 24 44 -6 40 15 58 24 20z m-79 -186 c-8 -21 -21 -42 -29 -48
-8 -6 -15 -19 -15 -28 0 -10 -6 -16 -12 -13 -16 5 -11 38 6 52 8 6 17 26 21
45 10 47 14 53 31 39 11 -9 11 -16 -2 -47z m36 -114 c0 -37 -40 -113 -55 -107
-19 8 -9 81 13 100 12 9 22 22 22 28 0 6 5 11 10 11 6 0 10 -15 10 -32z
m-4218 0 c-7 -7 -12 -8 -12 -2 0 14 12 26 19 19 2 -3 -1 -11 -7 -17z m-642 5
c-1 -5 -15 -24 -33 -45 -27 -29 -41 -37 -80 -41 -80 -9 -157 -30 -170 -45 -10
-13 -8 -15 13 -9 74 21 160 31 171 20 15 -15 -8 -152 -29 -173 -13 -13 -14
-13 -7 5 4 11 11 43 15 72 5 28 11 57 15 62 10 17 -35 13 -93 -8 -29 -11 -55
-20 -57 -20 -19 -1 -34 -21 -40 -53 -9 -46 -1 -47 93 -19 34 11 62 15 62 10 0
-9 -51 -24 -118 -35 -23 -4 -41 -9 -38 -11 2 -2 -6 -15 -18 -27 -37 -41 -76
-124 -76 -163 0 -21 -4 -43 -8 -50 -8 -12 -97 -63 -268 -154 -53 -27 -126 -72
-162 -98 -37 -27 -80 -55 -97 -64 -31 -16 -79 -60 -154 -141 -37 -39 -46 -44
-53 -32 -12 21 -28 20 -28 -1 0 -15 -2 -16 -10 -3 -5 9 -5 19 2 27 6 7 10 63
9 131 0 106 2 122 20 141 28 29 34 27 34 -15 0 -23 -6 -40 -18 -49 -13 -10
-15 -14 -5 -18 24 -8 63 14 118 67 66 65 167 137 281 201 46 26 105 61 130 76
25 16 71 38 103 49 69 23 133 58 140 76 3 8 0 11 -10 7 -8 -3 -14 1 -14 10 0
12 -16 9 -74 -19 -41 -19 -79 -34 -84 -34 -5 0 -15 -7 -22 -15 -16 -19 -30
-19 -30 1 0 8 -5 12 -10 9 -6 -4 -9 -13 -8 -22 2 -10 -24 -30 -79 -60 -64 -34
-81 -40 -76 -26 6 16 4 16 -17 -2 -16 -14 -22 -16 -18 -5 25 71 15 60 -24 -25
-5 -12 -37 -42 -71 -67 -34 -25 -86 -67 -115 -93 -28 -26 -52 -43 -53 -38 0 4
-4 -1 -9 -12 -7 -17 -9 -15 -9 11 -1 18 9 45 24 65 13 19 42 64 65 100 51 84
169 221 184 216 6 -2 10 -14 9 -26 -2 -11 3 -21 10 -21 6 0 13 11 13 25 2 31
29 74 52 83 9 3 25 13 34 21 9 9 49 27 90 40 50 16 82 34 103 56 25 27 59 41
208 89 207 66 288 86 287 69z m11 -57 c-14 -36 -27 -60 -29 -55 -4 9 44 119
51 119 3 0 -7 -29 -22 -64z m6717 -147 c-2 -6 -8 -10 -13 -10 -5 0 -11 4 -13
10 -2 6 4 11 13 11 9 0 15 -5 13 -11z m-169 -62 c0 -21 -1 -21 -9 -2 -12 28
-12 37 0 30 6 -3 10 -16 9 -28z m-6766 -34 c-13 -2 -33 -2 -45 0 -13 2 -3 4
22 4 25 0 35 -2 23 -4z m460 -53 c-3 -12 -8 -19 -11 -16 -5 6 5 36 12 36 2 0
2 -9 -1 -20z m-586 -72 c-3 -7 -5 -2 -5 12 0 14 2 19 5 13 2 -7 2 -19 0 -25z
m5917 23 c7 -11 -41 -24 -55 -16 -5 4 -7 11 -4 16 8 12 52 12 59 0z m190 -186
c81 -22 135 -44 76 -31 -14 3 -56 13 -94 21 -69 16 -116 34 -86 35 8 0 55 -11
104 -25z m1829 -25 c20 0 20 0 1 -15 -26 -19 -31 -19 -45 7 -10 18 -9 20 6 15
9 -4 26 -7 38 -7z m-1411 -105 c25 -9 57 -28 71 -43 25 -26 26 -30 16 -82 -6
-30 -14 -91 -20 -135 -5 -44 -11 -96 -14 -115 -3 -19 -7 -51 -9 -70 -2 -19 -7
-46 -10 -60 -4 -14 -10 -97 -15 -185 -11 -202 -32 -255 -76 -189 -16 25 -16
29 3 73 53 118 82 329 81 578 -2 196 -6 216 -48 193 -18 -9 -21 -8 -21 8 0 10
-5 23 -12 30 -16 16 -1 15 54 -3z m444 -43 c-6 -6 -56 10 -56 18 0 5 13 3 30
-3 16 -6 28 -13 26 -15z m149 -37 c69 -28 68 -28 60 -15 -3 6 1 7 10 4 9 -4
13 -9 11 -12 -3 -3 2 -11 12 -18 10 -8 12 -13 5 -14 -11 0 -44 14 -163 67 -50
23 6 12 65 -12z m-4186 -38 c4 -11 3 -31 -3 -44 -9 -21 -16 -24 -45 -19 -51 8
-67 46 -20 46 12 0 17 5 14 10 -4 6 -4 17 -1 25 7 19 46 7 55 -18z m2169 18
c38 -9 102 -64 102 -89 0 -27 -55 -20 -92 12 -18 16 -53 44 -78 61 l-45 33 40
-5 c22 -3 55 -8 73 -12z m-2 -79 c42 -42 45 -79 8 -109 -43 -35 -94 -91 -94
-102 0 -13 -29 -39 -53 -48 -9 -3 -17 -16 -17 -27 0 -13 -7 -20 -19 -20 -11 0
-27 -7 -36 -16 -31 -31 -90 -67 -147 -90 -51 -20 -168 -103 -176 -125 -2 -5
-17 -9 -33 -9 -31 0 -72 -17 -150 -63 -26 -15 -60 -29 -75 -31 -16 -2 -46 -7
-67 -11 -24 -5 -42 -3 -52 5 -8 6 -23 9 -34 5 -24 -7 -39 14 -20 29 8 6 14 18
14 26 0 10 10 15 30 16 17 0 43 6 58 12 16 7 32 12 36 12 5 0 14 6 20 14 6 7
25 16 41 20 17 3 30 12 30 20 0 9 6 13 14 10 25 -10 179 69 195 99 8 15 22 27
30 27 9 0 28 11 43 24 14 14 28 23 31 20 2 -2 10 2 17 11 10 12 10 18 0 30
-10 12 -10 15 3 15 10 0 13 6 10 18 -3 12 14 34 54 71 32 29 89 82 126 117 37
36 71 63 75 60 5 -3 26 1 48 9 53 19 52 19 90 -19z m2337 -18 c12 -7 27 -13
32 -14 6 0 15 -2 22 -2 13 -2 15 -62 2 -62 -26 0 -59 23 -65 45 -3 14 -10 25
-15 25 -5 0 -9 5 -9 10 0 13 7 13 33 -2z m-4392 -54 c24 -9 61 -16 82 -15 20
0 37 -4 37 -10 0 -5 8 -9 18 -9 9 0 22 -8 28 -18 6 -9 36 -30 66 -45 47 -24
63 -40 108 -108 49 -77 111 -220 109 -257 0 -9 -9 12 -21 48 -11 36 -24 67
-29 68 -5 2 -32 38 -60 80 -63 96 -158 188 -202 195 -49 8 -207 68 -207 78 0
13 22 11 71 -7z m2974 -43 c160 -49 389 -140 357 -141 -20 0 -3 -20 18 -20 26
0 33 -41 21 -124 -18 -116 -20 -125 -16 -51 3 39 7 81 10 95 3 14 -4 6 -15
-18 -19 -42 -21 -43 -52 -37 -72 16 -364 108 -399 126 -50 25 -51 25 -47 -13
3 -31 7 -34 63 -49 94 -26 316 -86 363 -99 35 -9 42 -15 42 -35 0 -14 -4 -25
-8 -25 -5 0 -75 20 -157 45 -81 25 -184 54 -229 65 -117 30 -127 42 -142 179
l-6 64 33 -7 c18 -3 37 -12 41 -19 5 -8 8 -4 8 12 0 16 4 21 15 18 11 -5 13 0
8 23 -7 37 5 38 92 11z m1430 -69 c-9 -9 -25 11 -25 32 0 37 14 40 22 4 3 -18
5 -34 3 -36z m-6240 28 c3 -5 1 -10 -4 -10 -6 0 -11 5 -11 10 0 6 2 10 4 10 3
0 8 -4 11 -10z m-2005 -20 c0 -15 -7 -20 -27 -20 -22 0 -25 2 -13 10 13 9 13
11 0 20 -12 8 -9 10 13 10 20 0 27 -5 27 -20z m1963 -7 c-7 -2 -19 -2 -25 0
-7 3 -2 5 12 5 14 0 19 -2 13 -5z m4623 -30 c-4 -21 -8 -62 -10 -91 -3 -45 -1
-55 18 -67 30 -19 143 -59 261 -90 139 -37 307 -95 328 -113 40 -35 9 -54 -50
-31 -15 6 -127 41 -248 79 -121 37 -231 72 -245 78 -84 37 -103 101 -67 230
14 52 21 55 13 5z m1666 -85 c-9 -20 -11 -18 -11 22 0 40 2 42 11 23 8 -17 8
-29 0 -45z m-6233 16 c-10 -23 -13 -25 -16 -11 -3 10 1 25 8 33 17 21 21 11 8
-22z m3466 -4 c-3 -5 -10 -10 -16 -10 -5 0 -9 5 -9 10 0 6 7 10 16 10 8 0 12
-4 9 -10z m2805 -20 c0 -5 -5 -10 -11 -10 -5 0 -7 5 -4 10 3 6 8 10 11 10 2 0
4 -4 4 -10z m124 -51 c-9 -11 -19 -17 -21 -15 -8 7 21 45 30 39 4 -3 1 -14 -9
-24z m-6156 -55 c29 -20 29 -37 0 -28 -22 7 -38 21 -38 37 0 11 14 8 38 -9z
m6072 -16 c0 -13 -23 -5 -28 10 -2 7 2 10 12 6 9 -3 16 -11 16 -16z m-6120 -8
c0 -5 -7 -10 -15 -10 -8 0 -15 5 -15 10 0 6 7 10 15 10 8 0 15 -4 15 -10z
m4335 -20 c10 -11 44 -27 74 -36 141 -39 211 -68 211 -85 0 -13 -38 -5 -85 16
-16 8 -50 19 -75 25 -25 6 -61 16 -81 21 -35 9 -89 52 -89 70 0 16 27 9 45
-11z m-1402 -27 c-7 -2 -19 -2 -25 0 -7 3 -2 5 12 5 14 0 19 -2 13 -5z m457 0
c-8 -3 -23 -12 -32 -21 -16 -14 -18 -13 -18 1 0 17 15 25 45 25 14 0 15 -1 5
-5z m-1303 -95 c-3 -8 -6 -5 -6 6 -1 11 2 17 5 13 3 -3 4 -12 1 -19z m358 -1
c-7 -27 17 -53 37 -41 20 13 68 10 68 -3 0 -7 -7 -13 -15 -13 -8 0 -15 -3 -15
-7 -1 -25 -44 -56 -80 -59 -34 -3 -40 -1 -40 17 0 11 7 36 15 55 8 19 14 38
14 42 -3 18 2 32 11 32 6 0 8 -10 5 -23z m-532 -51 c13 -37 13 -47 2 -56 -19
-16 -63 -1 -71 23 -4 12 -14 27 -23 34 -18 13 -8 28 24 36 46 11 53 7 68 -37z
m2930 8 c113 -33 140 -45 128 -57 -6 -6 -26 -2 -53 12 -25 11 -51 21 -59 21
-9 0 -19 3 -23 7 -4 4 -13 8 -19 9 -31 2 -77 17 -77 25 0 12 -1 12 103 -17z
m-1245 -56 c3 -28 4 -28 -70 -43 -26 -5 -22 15 9 47 33 34 57 33 61 -4z m1922
-28 c0 -5 -5 -10 -11 -10 -5 0 -7 5 -4 10 3 6 8 10 11 10 2 0 4 -4 4 -10z
m-1258 -46 c57 -19 166 -55 243 -80 77 -25 194 -62 260 -84 66 -21 135 -41
153 -45 17 -4 32 -11 32 -17 0 -11 -21 -8 -90 16 -25 8 -112 36 -195 61 -324
100 -555 183 -513 185 3 0 53 -16 110 -36z m-912 -150 c0 -8 -16 -22 -35 -30
-49 -20 -52 -18 -20 16 31 33 55 39 55 14z m732 -66 c-9 -9 -12 -4 -11 23 0
32 1 33 11 11 8 -17 8 -26 0 -34z m1286 -94 c-12 -28 -13 -27 -16 33 -2 38 2
71 10 85 12 21 13 19 16 -33 2 -30 -3 -69 -10 -85z m-6412 -1 c-14 -14 -20 17
-16 82 2 38 3 38 12 -18 6 -32 8 -61 4 -64z m4384 83 c0 -2 -8 -10 -17 -17
-16 -13 -17 -12 -4 4 13 16 21 21 21 13z m3083 -10 c3 -8 -1 -20 -9 -27 -12
-10 -14 -8 -10 12 6 30 5 29 10 29 2 0 6 -6 9 -14z m-3206 -24 c22 -14 -3 -38
-82 -75 -16 -8 -41 -26 -54 -41 -14 -14 -29 -26 -34 -26 -5 0 -29 -14 -53 -32
-30 -21 -58 -32 -84 -34 -22 -1 -55 -9 -73 -17 -42 -20 -80 -12 -72 14 4 11 2
19 -4 19 -6 0 -11 -8 -11 -17 0 -13 -3 -14 -12 -5 -7 7 -20 12 -30 12 -15 0
-17 4 -9 18 10 19 71 42 111 42 22 0 23 -1 5 -20 -18 -20 -17 -20 15 -20 35 0
78 27 140 88 55 53 130 76 130 39 0 -7 4 -7 12 1 7 7 20 12 30 12 10 0 25 11
34 25 18 27 22 29 41 17z m3304 -27 c5 4 9 1 9 -5 0 -6 -7 -13 -15 -16 -8 -4
-15 -16 -15 -28 0 -12 -9 -27 -20 -34 -22 -13 -27 -3 -8 16 7 7 8 12 4 12 -5
0 -4 6 1 13 6 6 14 26 18 42 6 22 9 25 12 12 3 -9 9 -15 14 -12z m-500 -72
c-9 -15 -10 -13 -11 12 0 17 4 41 8 55 6 23 7 21 10 -12 2 -21 -1 -46 -7 -55z
m-7751 36 c0 -9 -7 -22 -15 -29 -17 -14 -18 -8 -9 40 5 22 9 28 15 18 5 -7 9
-20 9 -29z m7950 31 c0 -5 -5 -10 -11 -10 -5 0 -7 5 -4 10 3 6 8 10 11 10 2 0
4 -4 4 -10z m-1904 -16 c-3 -9 -6 -18 -6 -20 0 -2 -7 -4 -15 -4 -8 0 -15 -7
-15 -15 0 -8 -7 -15 -16 -15 -13 0 -14 3 -5 14 9 11 9 16 0 22 -8 4 -2 11 17
20 39 17 47 17 40 -2z m2044 12 c0 -3 -4 -8 -10 -11 -5 -3 -10 -1 -10 4 0 6 5
11 10 11 6 0 10 -2 10 -4z m-2120 -15 c0 -5 -7 -14 -15 -21 -12 -10 -15 -10
-15 2 0 8 3 18 7 21 9 10 23 9 23 -2z m1756 -38 c-11 -11 -19 6 -11 24 8 17 8
17 12 0 3 -10 2 -21 -1 -24z m164 23 c0 -2 -7 -7 -16 -10 -8 -3 -12 -2 -9 4 6
10 25 14 25 6z m-1282 -26 c10 -17 10 -21 -3 -27 -21 -7 -39 11 -32 31 8 22
20 20 35 -4z m1650 -45 c-3 -3 -9 2 -12 12 -6 14 -5 15 5 6 7 -7 10 -15 7 -18z
m-1552 -49 c-9 -56 -26 -61 -26 -7 0 50 9 76 23 62 5 -5 7 -29 3 -55z m1164
54 c0 -5 -8 -10 -17 -10 -15 0 -16 2 -3 10 19 12 20 12 20 0z m368 -20 c3 -12
2 -12 -8 -3 -7 6 -19 9 -26 6 -8 -3 -14 0 -14 7 0 16 43 8 48 -10z m-278 -20
c0 -5 -4 -10 -10 -10 -5 0 -10 5 -10 10 0 6 5 10 10 10 6 0 10 -4 10 -10z
m317 -10 c-5 -31 -17 -36 -17 -7 0 15 4 27 10 27 5 0 9 -9 7 -20z m-47 -1 c0
-5 -4 -7 -10 -4 -12 7 -12 3 -4 -20 5 -13 8 -14 15 -3 6 9 9 9 9 1 0 -21 -23
-26 -36 -8 -10 14 -11 22 -3 32 14 16 29 17 29 2z m-60 -23 c-5 -14 -5 -27 1
-33 6 -6 5 -14 -4 -22 -11 -9 -17 -8 -28 6 -11 13 -11 17 -1 20 6 3 12 13 12
22 0 19 8 31 21 31 5 0 4 -11 -1 -24z m-3889 -34 c-13 -9 -38 -22 -55 -28 -20
-7 -32 -19 -34 -32 -3 -18 -10 -22 -35 -21 -18 1 -24 3 -15 6 15 4 15 6 -4 25
-11 11 -16 24 -11 29 12 12 112 38 148 38 l30 0 -24 -17z m2299 -39 c14 -6 59
-18 100 -28 89 -21 96 -25 79 -36 -24 -16 -164 14 -153 32 2 4 -12 13 -31 20
-19 7 -35 17 -35 22 0 4 3 7 8 5 4 -2 18 -9 32 -15z m-2580 -39 c0 -10 -15
-14 -50 -14 -69 0 -69 25 0 26 36 1 50 -3 50 -12z m115 -4 c8 -13 -5 -13 -25
0 -13 8 -13 10 2 10 9 0 20 -4 23 -10z m4087 -33 c3 -6 4 -17 1 -24 -4 -11 -8
-12 -13 -3 -5 9 -9 9 -14 1 -4 -6 -4 -15 -1 -21 3 -5 1 -10 -5 -10 -14 0 -49
40 -50 57 0 23 67 23 82 0z m-2572 -17 c0 -5 -7 -10 -15 -10 -8 0 -15 5 -15
10 0 6 7 10 15 10 8 0 15 -4 15 -10z m392 -15 c2 2 21 -2 42 -9 34 -12 37 -15
21 -24 -13 -7 -31 -5 -64 6 -57 20 -54 19 -46 31 4 7 12 8 24 1 10 -5 20 -7
23 -5z m156 -48 c2 -11 -2 -14 -17 -10 -22 5 -26 14 -14 27 10 10 28 1 31 -17z
m412 13 c12 -7 13 -13 4 -27 -10 -16 -28 -18 -175 -17 -161 1 -235 12 -213 34
5 5 72 11 149 12 77 2 158 4 180 5 22 2 47 -1 55 -7z m-745 -29 c118 -2 238
-22 287 -47 16 -9 28 -17 25 -20 -2 -2 -35 0 -73 6 -38 5 -101 10 -140 10 -39
0 -74 3 -78 8 -4 4 -29 7 -54 8 -60 1 -151 12 -163 19 -29 18 23 38 66 25 11
-4 70 -7 130 -9z m547 -55 c31 -8 60 -11 64 -7 4 3 4 -1 2 -9 -3 -8 -12 -13
-19 -11 -8 2 -61 4 -118 5 -71 1 -106 5 -108 13 -3 8 12 13 44 16 26 2 55 4
63 5 8 1 41 -5 72 -12z m-74 -134 c11 -14 12 -14 12 4 1 19 1 19 15 0 18 -24
20 -95 3 -101 -9 -4 -14 -33 -16 -88 -4 -145 3 -133 -77 -128 -39 2 -74 5 -78
8 -10 6 -5 283 4 283 16 0 24 -43 29 -155 l5 -120 30 0 c30 0 30 1 33 59 2 32
-4 101 -12 154 -9 52 -13 99 -10 104 8 12 46 0 62 -20z m389 6 c-3 -8 -6 -5
-6 6 -1 11 2 17 5 13 3 -3 4 -12 1 -19z m-3272 -118 c-11 -4 -30 -6 -41 -3
-26 6 -70 -35 -54 -51 5 -5 10 -14 10 -20 0 -6 -5 -5 -12 2 -18 18 -69 15 -84
-5 -17 -23 -18 -43 -1 -43 8 0 19 -11 25 -24 13 -28 -2 -54 -33 -59 -31 -4
-45 -16 -45 -38 0 -16 4 -19 21 -14 16 5 20 3 17 -6 -3 -8 -13 -13 -22 -13 -9
1 -16 -3 -16 -9 0 -16 -31 31 -34 51 -2 11 -13 17 -31 17 -16 1 -30 6 -33 13
-4 13 2 15 68 16 39 1 45 4 48 24 2 12 -2 22 -8 22 -7 0 -10 6 -7 14 3 8 3 17
-1 20 -9 10 -11 37 -2 31 5 -3 11 -1 14 3 5 9 -22 26 -54 35 -8 2 -20 -3 -26
-12 -10 -13 -18 -13 -51 -3 -22 7 -50 12 -62 12 -11 0 -21 5 -21 10 0 6 6 10
13 10 8 0 7 3 -3 10 -19 12 42 16 265 17 104 1 172 -2 160 -7z m1970 -30 c4
-6 22 -17 41 -25 38 -16 47 -36 12 -28 -29 7 -78 41 -78 54 0 12 17 12 25 -1z
m-2380 -102 c17 -4 34 -3 39 2 28 28 41 -17 15 -49 -11 -13 -19 -32 -19 -43 0
-15 5 -18 21 -13 20 7 21 4 15 -20 -8 -31 -53 -95 -67 -95 -9 0 -13 14 -10 37
1 7 -8 17 -20 23 -26 15 -58 84 -59 128 0 33 -1 33 -37 30 -29 -2 -38 1 -38
12 0 9 9 15 24 15 14 0 26 6 29 13 2 6 12 12 22 12 10 0 22 5 26 11 4 7 11 -1
18 -21 8 -25 19 -36 41 -42z m35 43 c0 -5 -7 -11 -15 -15 -9 -3 -15 0 -15 9 0
8 7 15 15 15 8 0 15 -4 15 -9z m40 5 c0 -3 -4 -8 -10 -11 -5 -3 -10 -1 -10 4
0 6 5 11 10 11 6 0 10 -2 10 -4z m895 -16 c3 -5 15 -10 26 -10 17 0 25 -16 20
-43 -1 -5 11 -7 26 -6 49 4 58 0 59 -27 2 -23 -1 -25 -26 -19 -15 3 -31 2 -34
-4 -3 -5 -26 -9 -51 -9 -24 0 -49 -3 -55 -7 -7 -4 -14 2 -17 14 -3 12 -9 21
-14 21 -10 0 -12 60 -3 84 7 18 59 22 69 6z m1505 -26 c0 -2 -9 0 -20 6 -11 6
-20 13 -20 16 0 2 9 0 20 -6 11 -6 20 -13 20 -16z m-1278 -16 c-9 -9 -15 -9
-24 0 -9 9 -7 12 12 12 19 0 21 -3 12 -12z m-587 -31 c-4 -15 -3 -18 3 -9 9
13 42 6 42 -9 0 -9 -16 -13 -34 -10 -5 1 -21 -10 -37 -25 -18 -18 -34 -24 -45
-20 -10 4 -20 2 -24 -4 -3 -6 -21 -14 -38 -19 -34 -10 -49 0 -35 22 11 16 10
50 -1 58 -10 8 1 29 15 29 5 0 9 -7 9 -16 0 -9 8 -23 18 -30 10 -8 12 -13 5
-14 -15 0 -18 -20 -3 -20 5 0 19 10 30 22 16 17 23 20 29 10 6 -10 10 -10 20
2 7 8 10 19 7 25 -8 12 23 43 35 35 5 -3 7 -15 4 -27z m2000 14 c97 -3 96 -11
-1 -11 -56 0 -86 5 -100 15 -18 14 -18 15 6 7 14 -5 56 -10 95 -11z m2599 -16
c3 -8 1 -15 -4 -15 -6 0 -10 7 -10 15 0 8 2 15 4 15 2 0 6 -7 10 -15z m-4654
-16 c0 -6 -4 -7 -10 -4 -5 3 -10 11 -10 16 0 6 5 7 10 4 6 -3 10 -11 10 -16z
m2347 15 c-3 -3 -12 -4 -19 -1 -8 3 -5 6 6 6 11 1 17 -2 13 -5z m2273 -21 c0
-18 -28 -53 -42 -53 -4 0 -8 7 -8 15 0 8 6 12 14 9 8 -3 16 3 19 16 4 16 2 20
-9 16 -8 -3 -14 -1 -14 3 0 11 22 20 33 14 4 -2 7 -11 7 -20z m-2057 10 c-7
-2 -21 -2 -30 0 -10 3 -4 5 12 5 17 0 24 -2 18 -5z m507 -8 c0 -8 -7 -15 -15
-15 -26 0 -18 20 13 29 1 1 2 -6 2 -14z m-1847 -11 c3 -4 1 -16 -5 -27 -9 -18
-11 -19 -20 -4 -13 25 6 49 25 31z m-367 -61 c-3 -3 -12 2 -21 10 -13 14 -13
16 3 19 16 3 30 -18 18 -29z m2147 15 c89 3 180 -12 202 -34 8 -9 15 -26 15
-40 0 -22 -3 -24 -35 -21 -19 2 -42 10 -51 18 -9 7 -37 14 -63 15 -25 1 -71 6
-101 10 -58 8 -104 11 -184 14 -36 1 -53 -3 -61 -14 -15 -20 -25 -10 -25 26 0
28 22 39 35 18 10 -16 25 -12 25 6 0 15 9 16 83 8 45 -5 117 -7 160 -6z m1667
2 c0 -5 -5 -10 -11 -10 -5 0 -7 5 -4 10 3 6 8 10 11 10 2 0 4 -4 4 -10z
m-2025 -10 c3 -5 -3 -10 -14 -10 -11 0 -23 5 -26 10 -3 6 3 10 14 10 11 0 23
-4 26 -10z m1945 -47 c0 -7 -6 -13 -14 -13 -15 0 -29 38 -19 53 7 12 33 -20
33 -40z m-1920 19 c0 -10 -13 -33 -29 -52 -23 -27 -32 -32 -41 -23 -21 20 -3
63 33 78 18 8 33 14 35 15 1 0 2 -8 2 -18z m-5205 -2 c-3 -5 -10 -10 -16 -10
-5 0 -9 5 -9 10 0 6 7 10 16 10 8 0 12 -4 9 -10z m2114 -24 c12 -14 5 -66 -8
-66 -24 2 -45 35 -42 68 1 16 36 15 50 -2z m377 -3 c-7 -7 -77 -5 -85 2 -2 3
17 5 44 5 27 0 45 -3 41 -7z m3329 -22 c-21 -6 -25 -26 -12 -48 5 -9 3 -13 -7
-13 -11 0 -16 9 -16 29 0 16 -3 36 -6 45 -5 14 -2 14 27 4 29 -10 31 -13 14
-17z m-3867 -1 c7 -11 10 -20 6 -20 -13 0 -44 21 -44 30 0 17 25 11 38 -10z
m343 -16 c-9 -28 -9 -29 -10 -3 -1 14 2 29 6 32 11 12 13 2 4 -29z m2020 29
c0 -5 2 -16 4 -25 4 -22 1 -22 -19 -2 -9 8 -14 20 -11 25 7 11 25 12 26 2z
m-1602 -45 c0 -18 -4 -42 -9 -53 -6 -14 -8 -5 -8 33 0 28 5 52 9 52 5 0 9 -15
8 -32z m4372 5 c-8 -15 -10 -15 -11 -2 0 17 10 32 18 25 2 -3 -1 -13 -7 -23z
m-1826 8 c3 -5 1 -12 -5 -16 -5 -3 -10 1 -10 9 0 18 6 21 15 7z m-3255 -47 c0
-34 -17 -30 -22 5 -3 21 -1 28 9 24 7 -3 13 -16 13 -29z m-358 -26 c-6 -6 -19
-7 -29 -3 -17 7 -17 8 2 15 24 9 41 2 27 -12z m1025 0 c-3 -8 -6 -5 -6 6 -1
11 2 17 5 13 3 -3 4 -12 1 -19z m-152 -8 c3 -5 1 -10 -4 -10 -6 0 -11 5 -11
10 0 6 2 10 4 10 3 0 8 -4 11 -10z m3902 -6 c-3 -3 -12 -4 -19 -1 -8 3 -5 6 6
6 11 1 17 -2 13 -5z m-1230 -36 c-1 -18 -5 -32 -9 -30 -5 1 -12 2 -18 2 -5 0
-10 8 -10 18 0 10 -5 23 -12 30 -9 9 -5 12 19 12 29 0 31 -2 30 -32z m-674
-23 c-3 -8 -9 -15 -14 -15 -10 0 -12 24 -3 33 11 11 24 -3 17 -18z m-1283 11
c0 -2 -3 -11 -6 -20 -9 -23 -24 -20 -24 4 0 11 7 20 15 20 8 0 15 -2 15 -4z
m-160 -26 c0 -5 -2 -10 -4 -10 -3 0 -8 5 -11 10 -3 6 -1 10 4 10 6 0 11 -4 11
-10z"/>
<path d="M4450 6943 c0 -13 5 -23 10 -23 13 0 13 11 0 30 -8 12 -10 11 -10 -7z"/>
<path d="M4510 6875 c0 -8 5 -15 10 -15 6 0 10 7 10 15 0 8 -4 15 -10 15 -5 0
-10 -7 -10 -15z"/>
<path d="M4050 6680 c20 -13 33 -13 25 0 -3 6 -14 10 -23 10 -15 0 -15 -2 -2
-10z"/>
<path d="M4825 6508 c-10 -25 -2 -53 15 -53 20 0 24 26 6 50 -13 18 -15 18
-21 3z"/>
<path d="M5972 6376 c1 -20 6 -40 11 -43 6 -4 8 0 4 9 -3 9 0 21 6 27 8 8 7
15 -6 28 -15 16 -16 14 -15 -21z"/>
<path d="M6027 5765 c-19 -58 -57 -230 -57 -259 0 -12 14 2 38 40 34 53 39 69
44 139 3 44 3 91 -1 105 -7 23 -9 21 -24 -25z"/>
<path d="M4804 5475 c3 -8 1 -15 -4 -15 -6 0 -10 -7 -10 -15 0 -8 4 -15 8 -15
4 0 27 -38 51 -84 23 -47 46 -86 51 -88 5 -2 21 -20 37 -40 62 -82 151 -187
215 -255 37 -40 77 -91 90 -114 13 -23 32 -58 43 -78 11 -21 26 -36 33 -33 14
4 17 42 3 42 -5 0 -13 10 -17 22 -3 12 -16 30 -28 41 -21 18 -21 18 20 14 23
-3 48 0 55 5 11 8 10 9 -3 4 -10 -3 -20 -1 -23 5 -4 5 -10 7 -15 4 -4 -3 -15
-2 -24 1 -12 5 -14 10 -6 19 8 10 7 16 -7 24 -17 10 -16 11 5 17 14 4 21 12
18 20 -3 7 -1 16 4 19 6 4 10 12 10 18 0 7 -8 2 -18 -11 -14 -18 -22 -21 -42
-14 -15 6 -19 11 -12 16 7 4 12 14 12 23 0 9 -3 13 -7 10 -3 -4 -12 1 -18 10
-11 14 -10 20 4 31 14 12 14 12 -7 7 -15 -4 -24 -1 -28 9 -3 9 -12 16 -20 16
-23 0 -16 18 9 23 20 3 19 5 -10 16 -18 7 -33 17 -33 22 0 5 -5 9 -11 9 -16 0
-71 59 -65 69 7 11 -18 33 -27 25 -4 -4 -11 5 -16 19 -6 14 -21 33 -34 41 -13
9 -29 31 -37 50 -7 19 -23 40 -36 46 -12 7 -25 21 -27 31 -3 11 -14 19 -25 19
-11 0 -22 7 -26 15 -3 8 -13 15 -22 15 -10 0 -14 -5 -10 -15z"/>
<path d="M5490 5450 c0 -5 5 -10 10 -10 6 0 10 5 10 10 0 6 -4 10 -10 10 -5 0
-10 -4 -10 -10z"/>
<path d="M5296 5219 c-11 -11 -15 -19 -10 -19 16 0 37 17 33 27 -2 6 -13 2
-23 -8z"/>
<path d="M5300 5180 c0 -5 10 -10 23 -10 21 -1 22 -1 3 -15 -16 -12 -17 -15
-4 -15 17 0 27 18 21 38 -5 14 -43 16 -43 2z"/>
<path d="M5275 5130 c-3 -5 -2 -10 4 -10 5 0 13 5 16 10 3 6 2 10 -4 10 -5 0
-13 -4 -16 -10z"/>
<path d="M4920 4800 c0 -5 5 -10 10 -10 6 0 10 5 10 10 0 6 -4 10 -10 10 -5 0
-10 -4 -10 -10z"/>
<path d="M5336 4718 c5 -8 2 -9 -9 -5 -9 3 -19 2 -22 -3 -6 -10 -1 -12 40 -12
46 0 49 2 29 17 -23 17 -48 20 -38 3z"/>
<path d="M5415 4560 c3 -5 11 -10 16 -10 6 0 7 5 4 10 -3 6 -11 10 -16 10 -6
0 -7 -4 -4 -10z"/>
<path d="M4215 5600 c3 -5 8 -10 11 -10 2 0 4 5 4 10 0 6 -5 10 -11 10 -5 0
-7 -4 -4 -10z"/>
<path d="M7422 3410 c0 -14 2 -19 5 -12 2 6 2 18 0 25 -3 6 -5 1 -5 -13z"/>
<path d="M7422 3360 c0 -14 2 -19 5 -12 2 6 2 18 0 25 -3 6 -5 1 -5 -13z"/>
<path d="M7460 2590 c0 -5 10 -15 23 -21 22 -12 22 -12 3 10 -21 23 -26 26
-26 11z"/>
<path d="M4470 4121 c0 -5 5 -13 10 -16 6 -3 10 -2 10 4 0 5 -4 13 -10 16 -5
3 -10 2 -10 -4z"/>
<path d="M4460 4070 c0 -5 5 -10 11 -10 5 0 7 5 4 10 -3 6 -8 10 -11 10 -2 0
-4 -4 -4 -10z"/>
<path d="M926 3024 c-5 -14 -4 -15 9 -4 17 14 19 20 6 20 -5 0 -12 -7 -15 -16z"/>
<path d="M864 3009 c-21 -12 -51 -32 -66 -46 -14 -14 -28 -24 -30 -23 -7 6
-48 -12 -48 -20 0 -4 -15 -17 -32 -29 -50 -31 -18 -25 64 13 62 28 144 80 98
61 -8 -3 -7 0 4 7 70 49 77 72 10 37z m-34 -54 c0 -2 -10 -9 -22 -15 -22 -11
-22 -10 -4 4 21 17 26 19 26 11z m-70 -29 c0 -2 -7 -7 -16 -10 -8 -3 -12 -2
-9 4 6 10 25 14 25 6z"/>
<path d="M365 2730 c-3 -6 1 -7 9 -4 18 7 21 14 7 14 -6 0 -13 -4 -16 -10z"/>
<path d="M3795 510 c3 -5 10 -10 16 -10 5 0 9 5 9 10 0 6 -7 10 -16 10 -8 0
-12 -4 -9 -10z"/>
<path d="M3840 510 c0 -5 4 -10 9 -10 6 0 13 5 16 10 3 6 -1 10 -9 10 -9 0
-16 -4 -16 -10z"/>
<path d="M3577 314 c-8 -8 3 -34 14 -34 11 0 12 27 0 34 -4 3 -11 3 -14 0z"/>
<path d="M6948 273 c12 -2 30 -2 40 0 9 3 -1 5 -23 4 -22 0 -30 -2 -17 -4z"/>
<path d="M7680 3210 c0 -6 7 -13 15 -16 8 -4 15 -14 15 -23 0 -14 2 -14 10 -1
6 10 4 20 -7 32 -18 20 -33 23 -33 8z"/>
<path d="M7730 3128 c0 -9 5 -20 10 -23 13 -8 13 5 0 25 -8 13 -10 13 -10 -2z"/>
<path d="M7784 3100 c3 -14 6 -33 6 -42 0 -15 3 -15 28 -2 15 7 38 14 52 15
21 0 18 3 -14 15 -22 8 -41 12 -44 9 -3 -2 -11 3 -19 13 -13 16 -14 15 -9 -8z"/>
<path d="M7750 3080 c0 -8 5 -22 10 -30 9 -13 10 -13 10 0 0 8 -5 22 -10 30
-9 13 -10 13 -10 0z"/>
<path d="M8096 2955 c4 -8 12 -15 20 -15 20 0 17 7 -6 20 -16 9 -18 8 -14 -5z"/>
<path d="M8165 2922 c34 -21 65 -33 65 -27 0 6 -76 45 -87 45 -4 0 6 -8 22
-18z"/>
<path d="M8080 2889 c0 -5 5 -19 11 -33 9 -20 30 -31 92 -52 139 -46 411 -211
527 -320 85 -80 130 -104 130 -69 0 8 -5 15 -10 15 -6 0 -51 38 -100 84 -95
90 -213 175 -289 208 -25 11 -59 30 -76 42 -16 12 -62 34 -101 50 -39 15 -96
40 -128 55 -31 15 -56 24 -56 20z"/>
<path d="M8030 2880 c0 -5 5 -10 11 -10 5 0 7 5 4 10 -3 6 -8 10 -11 10 -2 0
-4 -4 -4 -10z"/>
<path d="M8247 2879 c7 -7 15 -10 18 -7 3 3 -2 9 -12 12 -14 6 -15 5 -6 -5z"/>
<path d="M8550 1906 c0 -9 5 -16 10 -16 6 0 10 4 10 9 0 6 -4 13 -10 16 -5 3
-10 -1 -10 -9z"/>
<path d="M8618 1913 c7 -3 16 -2 19 1 4 3 -2 6 -13 5 -11 0 -14 -3 -6 -6z"/>
<path d="M8592 1895 c6 -10 -16 -36 -28 -34 -14 2 -13 -9 1 -21 12 -10 15 -10
15 3 0 9 8 20 18 26 14 8 15 12 3 23 -8 7 -11 9 -9 3z"/>
<path d="M8665 1890 c-3 -6 1 -7 9 -4 18 7 21 14 7 14 -6 0 -13 -4 -16 -10z"/>
<path d="M8620 1850 c0 -5 5 -10 11 -10 5 0 7 5 4 10 -3 6 -8 10 -11 10 -2 0
-4 -4 -4 -10z"/>
<path d="M8586 1815 c-16 -12 -17 -15 -4 -15 9 0 18 7 22 15 7 18 6 18 -18 0z"/>
<path d="M8646 1821 c-4 -7 -5 -15 -2 -18 9 -9 19 4 14 18 -4 11 -6 11 -12 0z"/>
<path d="M8792 1750 c0 -14 2 -19 5 -12 2 6 2 18 0 25 -3 6 -5 1 -5 -13z"/>
<path d="M8750 1741 c0 -6 5 -13 10 -16 6 -3 10 1 10 9 0 9 -4 16 -10 16 -5 0
-10 -4 -10 -9z"/>
<path d="M8450 1733 c0 -5 5 -15 10 -23 8 -12 10 -11 10 8 0 12 -4 22 -10 22
-5 0 -10 -3 -10 -7z"/>
<path d="M8546 1683 c-6 -14 -5 -15 5 -6 7 7 10 15 7 18 -3 3 -9 -2 -12 -12z"/>
<path d="M8645 1549 c-10 -15 3 -25 16 -12 7 7 7 13 1 17 -6 3 -14 1 -17 -5z"/>
<path d="M8774 1525 c3 -9 6 -21 6 -26 0 -14 17 -11 23 4 3 7 -4 19 -15 26
-18 11 -20 11 -14 -4z"/>
<path d="M8468 1503 c7 -3 16 -2 19 1 4 3 -2 6 -13 5 -11 0 -14 -3 -6 -6z"/>
<path d="M8555 1500 c3 -5 8 -10 11 -10 2 0 4 5 4 10 0 6 -5 10 -11 10 -5 0
-7 -4 -4 -10z"/>
<path d="M8790 1469 c0 -5 5 -7 10 -4 6 3 10 8 10 11 0 2 -4 4 -10 4 -5 0 -10
-5 -10 -11z"/>
<path d="M8476 1455 c4 -8 13 -15 21 -15 13 0 13 3 3 15 -7 8 -16 15 -21 15
-5 0 -6 -7 -3 -15z"/>
<path d="M8547 1410 c-17 -20 -16 -20 15 -15 18 4 35 9 38 12 3 3 -5 3 -18 0
-18 -4 -22 -2 -18 9 7 19 4 18 -17 -6z"/>
<path d="M8623 1395 c21 -20 22 -36 2 -29 -8 4 -15 1 -15 -5 0 -6 4 -11 9 -11
5 0 12 -10 14 -22 l4 -23 2 23 c1 25 21 31 21 6 0 -25 25 -10 27 17 1 14 0 17
-3 7 -5 -15 -8 -16 -19 -5 -7 7 -15 22 -17 33 -2 10 -12 20 -22 22 -18 4 -19
3 -3 -13z"/>
<path d="M8800 1330 c0 -5 5 -10 11 -10 5 0 7 5 4 10 -3 6 -8 10 -11 10 -2 0
-4 -4 -4 -10z"/>
<path d="M5020 480 c0 -5 7 -7 15 -4 8 4 15 8 15 10 0 2 -7 4 -15 4 -8 0 -15
-4 -15 -10z"/>
<path d="M8765 130 c-3 -5 -1 -10 4 -10 6 0 11 5 11 10 0 6 -2 10 -4 10 -3 0
-8 -4 -11 -10z"/>
<path d="M8801 114 c0 -11 3 -14 6 -6 3 7 2 16 -1 19 -3 4 -6 -2 -5 -13z"/>
<path d="M8757 103 c-3 -4 -9 -25 -15 -45 -9 -33 -8 -36 7 -27 27 17 41 56 26
69 -7 6 -15 7 -18 3z"/>
</g>
</svg>
