<?xml version="1.0" standalone="no"?>
<!DOCTYPE svg PUBLIC "-//W3C//DTD SVG 20010904//EN"
 "http://www.w3.org/TR/2001/REC-SVG-20010904/DTD/svg10.dtd">
<svg version="1.0" xmlns="http://www.w3.org/2000/svg"
 width="48.000000pt" height="48.000000pt" viewBox="0 0 48.000000 48.000000"
 preserveAspectRatio="xMidYMid meet">

<g transform="translate(0.000000,888.000000) scale(0.100000,-0.100000)"
fill="#000000" stroke="none">
<path d="M0 4440 l0 -4440 2077 0 2076 0 -18 20 c-28 31 -9 36 29 7 l34 -27
967 0 c612 0 964 3 960 9 -3 6 3 15 14 21 13 7 22 7 26 0 3 -5 1 -10 -4 -10
-6 0 -11 -4 -11 -10 0 -6 49 -10 128 -9 70 0 121 3 115 6 -7 2 -13 9 -13 15 0
7 23 9 71 4 46 -4 68 -3 64 4 -3 5 -12 10 -19 10 -13 0 -46 31 -46 42 0 8 27
4 36 -5 4 -4 18 -7 30 -7 13 0 26 -4 29 -10 3 -5 13 -10 21 -10 11 0 8 9 -12
35 -15 21 -33 34 -41 31 -7 -3 -13 -1 -13 4 0 19 -3 25 -19 37 -60 46 123 -37
244 -111 60 -36 126 -48 140 -26 10 16 -7 32 -88 86 -39 26 -75 52 -78 57 -4
5 -11 7 -16 4 -6 -4 -33 5 -62 19 -28 14 -57 27 -63 28 -31 5 -58 18 -58 27 0
6 9 8 19 4 11 -3 22 -1 26 5 3 5 17 8 31 5 13 -3 36 -7 51 -11 15 -3 49 -16
76 -29 28 -13 62 -22 78 -20 22 3 29 0 29 -13 0 -10 13 1 31 28 17 25 28 37
25 27 -16 -45 -16 -50 -1 -24 15 26 35 36 35 17 0 -5 7 -7 16 -3 12 4 14 0 8
-21 -6 -26 10 -38 19 -14 4 10 8 10 15 -1 5 -7 14 -11 20 -7 10 6 44 -30 56
-57 3 -9 7 -8 14 2 7 9 9 0 7 -32 -4 -53 9 -75 47 -80 15 -1 30 -6 34 -10 4
-3 397 -6 875 -7 l869 0 0 4440 0 4440 -4440 0 -4440 0 0 -4440z m4347 4305
c338 -42 587 -188 757 -444 46 -69 126 -232 126 -258 0 -8 14 -13 33 -14 29
-1 27 -2 -18 -15 -51 -15 -215 -11 -215 5 0 18 -210 103 -357 146 -77 22 -343
67 -364 62 -16 -4 -99 75 -99 95 0 20 -4 20 -71 14 -39 -4 -77 -10 -85 -13
-11 -4 -14 5 -14 36 0 24 5 41 11 41 8 0 8 4 1 13 -6 7 -18 46 -26 87 l-15 75
6 -92 c3 -59 2 -93 -4 -93 -10 0 -29 110 -24 138 1 9 -15 11 -71 5 -130 -14
-163 -11 -166 13 -3 20 3 22 90 28 117 9 168 22 168 42 0 10 -6 14 -15 10 -8
-3 -73 -11 -145 -17 -134 -12 -176 -26 -152 -50 8 -9 12 -42 11 -98 -1 -59 -4
-78 -9 -61 -7 22 -8 22 -9 4 -1 -11 -4 -23 -7 -27 -8 -8 -34 3 -34 14 0 4 7 6
15 3 12 -5 15 2 15 34 0 34 -3 39 -19 35 -11 -3 -28 5 -44 21 -14 14 -31 26
-37 26 -15 0 -12 16 5 30 22 18 9 30 -32 30 -27 0 -34 3 -29 15 7 19 -5 19
-30 0 -14 -11 -15 -14 -4 -15 13 0 13 -2 0 -9 -15 -10 -33 -5 -26 8 3 3 -4 7
-14 7 -10 0 -18 -5 -17 -11 1 -5 -10 -10 -24 -11 -14 -1 -32 -4 -40 -8 -8 -4
-5 0 6 9 34 28 217 112 290 133 237 68 448 86 682 57z m-907 -210 c-7 -8 -17
-15 -22 -15 -6 0 -5 7 2 15 7 8 17 15 22 15 6 0 5 -7 -2 -15z m852 -356 c9 -5
20 -18 23 -29 3 -11 11 -20 16 -20 5 0 9 -5 9 -10 0 -13 -47 -3 -77 16 -12 8
-32 14 -43 14 -23 0 -23 19 0 -215 4 -49 6 -92 4 -94 -10 -11 -16 14 -25 107
-5 55 -13 121 -18 148 -8 40 -7 51 5 60 8 7 14 16 13 20 -1 5 -1 13 0 17 1 9
67 -1 93 -14z m363 -43 c94 -25 172 -55 143 -56 -9 0 -29 5 -45 12 -15 6 -35
13 -43 14 -34 7 -174 53 -160 53 8 0 56 -10 105 -23z m-584 -33 c12 -58 20
-223 12 -223 -5 0 -14 48 -21 108 -7 59 -15 118 -19 131 -4 17 -2 22 8 19 7
-2 16 -18 20 -35z m-330 -152 c2 -60 0 -113 -4 -117 -4 -4 -7 8 -7 28 0 19 -2
84 -5 144 -3 72 -2 100 4 82 5 -15 11 -77 12 -137z m757 103 c110 -25 156 -45
165 -68 7 -19 -42 -27 -168 -28 -110 -1 -121 2 -143 33 -17 24 -52 90 -52 97
0 7 90 -8 198 -34z m276 11 c50 -8 113 -23 140 -32 l51 -18 -79 -3 c-60 -2
-91 2 -130 17 -28 11 -69 27 -91 35 -39 15 -39 15 -10 15 17 0 70 -6 119 -14z
m644 -12 c-10 -2 -26 -2 -35 0 -10 3 -2 5 17 5 19 0 27 -2 18 -5z m127 -3 c4
-6 -6 -10 -22 -9 -25 0 -26 1 -8 9 11 5 21 9 22 9 1 1 5 -3 8 -9z m-85 -19 c0
-9 -47 -21 -81 -21 -27 0 -24 18 4 23 41 8 77 7 77 -2z m69 -38 c0 -16 -3 -22
-6 -13 -3 8 -10 21 -16 28 -7 8 -5 12 7 12 11 0 16 -8 15 -27z m-1016 -60 c-7
-2 -21 -2 -30 0 -10 3 -4 5 12 5 17 0 24 -2 18 -5z m-86 -9 c-3 -3 -12 -4 -19
-1 -8 3 -5 6 6 6 11 1 17 -2 13 -5z m-54 -19 c-3 -9 -20 -23 -37 -31 l-31 -16
35 31 c41 36 41 36 33 16z m315 2 c-7 -7 -29 -24 -48 -37 -19 -13 -38 -29 -42
-35 -5 -5 -5 5 -2 23 6 28 4 32 -15 32 -12 0 -19 -4 -16 -10 12 -19 -6 -31
-22 -15 -13 14 -18 14 -37 2 -11 -8 -22 -26 -24 -41 -3 -26 -4 -26 -93 -26
-57 0 -88 4 -84 10 12 19 90 59 130 66 22 4 62 15 90 25 60 22 184 27 163 6z
m398 -20 c81 -41 135 -107 128 -154 -1 -7 -2 -17 -3 -22 0 -5 -23 2 -49 15
-87 43 -195 64 -377 73 -93 5 -176 6 -184 3 -8 -3 -12 -1 -8 5 9 15 130 73
162 78 17 3 55 12 85 20 81 22 183 14 246 -18z m-2211 -7 c4 -6 -7 -10 -24
-10 -17 0 -31 5 -31 10 0 6 11 10 24 10 14 0 28 -4 31 -10z m2704 -130 c12
-69 26 -143 31 -165 16 -70 19 -145 5 -145 -18 0 -28 32 -14 41 8 4 10 21 6
45 -14 94 -58 340 -63 354 -3 10 -2 12 4 5 6 -5 19 -66 31 -135z m-1280 126
c-12 -10 -59 -15 -59 -6 0 5 14 10 32 10 17 0 29 -2 27 -4z m-1466 -33 c-13
-2 -35 -2 -50 0 -16 2 -5 4 22 4 28 0 40 -2 28 -4z m1254 -9 c2 -7 -27 -14
-84 -18 -48 -4 -123 -9 -165 -13 -47 -3 -78 -2 -78 4 0 5 19 10 43 12 23 1 83
8 132 15 103 16 147 16 152 0z m-1364 -1 c-7 -2 -19 -2 -25 0 -7 3 -2 5 12 5
14 0 19 -2 13 -5z m-53 -13 c0 -5 11 -12 25 -16 27 -7 24 -24 -4 -24 -10 0
-23 11 -29 25 -7 15 -8 25 -2 25 6 0 10 -4 10 -10z m1568 -160 c1 -17 -4 -10
-14 20 -7 25 -13 59 -13 75 1 25 4 21 14 -20 7 -27 13 -61 13 -75z m1022 14
c0 -7 3 -21 6 -31 5 -17 5 -17 -6 0 -7 10 -16 33 -21 50 -8 30 -7 30 6 13 8
-11 15 -25 15 -32z m397 -16 c-3 -7 -5 -2 -5 12 0 14 2 19 5 13 2 -7 2 -19 0
-25z m20 -120 c-3 -8 -6 -5 -6 6 -1 11 2 17 5 13 3 -3 4 -12 1 -19z m-3090
-140 c-2 -13 -4 -3 -4 22 0 25 2 35 4 23 2 -13 2 -33 0 -45z m2208 22 c15 -7
9 -9 -26 -9 -25 -1 -75 -4 -110 -7 -35 -4 -61 -3 -57 1 4 4 42 11 85 15 43 4
80 8 83 8 3 0 14 -3 25 -8z m-2195 -140 c0 -5 -5 -10 -11 -10 -5 0 -7 5 -4 10
3 6 8 10 11 10 2 0 4 -4 4 -10z m2887 -27 c10 -21 10 -29 1 -34 -9 -6 -9 -13
-1 -31 l12 -23 0 24 c1 16 5 21 16 17 10 -4 15 1 16 17 1 21 1 21 9 -3 14 -43
12 -70 -5 -64 -9 4 -15 0 -15 -7 0 -11 -3 -11 -10 1 -8 12 -10 10 -10 -8 0
-13 4 -20 10 -17 6 3 7 -1 4 -10 -8 -20 13 -45 32 -38 11 4 14 -12 14 -90 l0
-94 273 -7 c479 -12 631 -23 816 -61 222 -45 372 -143 529 -345 74 -96 115
-183 161 -346 48 -170 60 -252 76 -494 3 -41 8 -99 11 -127 6 -49 8 -53 33
-54 l26 -1 -25 -7 c-31 -9 -33 -41 -3 -56 19 -10 16 -13 -37 -24 -58 -13 -120
-8 -120 10 0 5 5 9 11 9 8 0 8 4 0 13 -6 8 -17 40 -26 73 -14 55 -14 56 -12
17 4 -74 -9 -31 -22 67 -35 281 -141 732 -201 850 -39 77 -166 234 -182 224
-5 -3 -28 10 -51 29 -23 19 -77 53 -119 76 -43 24 -78 47 -78 53 0 5 -12 7
-28 3 -15 -3 -59 1 -98 9 -65 14 -212 24 -416 29 -90 2 -126 17 -41 17 25 0
44 3 41 6 -3 3 -94 7 -202 9 -107 2 -199 6 -204 9 -10 6 -39 -11 -31 -18 3 -3
57 -8 119 -11 63 -3 115 -7 117 -9 2 -2 -67 -6 -154 -10 -87 -4 -162 -11 -168
-16 -23 -19 -37 6 -30 52 6 37 4 45 -9 45 -16 0 -19 -21 -20 -156 -1 -19 -5
-36 -11 -38 -14 -4 -54 57 -66 100 -14 51 -59 327 -59 363 0 56 60 82 75 33
12 -36 23 -19 17 26 -5 52 15 63 35 18z m-2036 -80 c0 -38 6 -115 13 -173 7
-58 9 -121 5 -139 -4 -19 -6 -38 -3 -42 11 -19 -39 7 -56 29 -29 36 -40 88
-45 199 -2 54 -6 106 -10 115 -7 17 10 58 29 70 6 4 23 8 39 8 27 0 27 -1 28
-67z m-535 -488 c4 -83 10 -152 14 -155 4 -3 8 -28 8 -56 0 -28 3 -62 6 -75 5
-18 5 -20 -3 -8 -18 29 -52 167 -54 221 -1 29 -1 98 1 153 4 145 19 100 28
-80z m3064 155 c0 -5 -4 -10 -9 -10 -6 0 -13 5 -16 10 -3 6 1 10 9 10 9 0 16
-4 16 -10z m-1433 -6 c-3 -3 -12 -4 -19 -1 -8 3 -5 6 6 6 11 1 17 -2 13 -5z
m111 -11 c-15 -2 -42 -2 -60 0 -18 2 -6 4 27 4 33 0 48 -2 33 -4z m1572 -43
c357 -22 493 -62 613 -182 32 -32 62 -58 67 -58 15 0 78 -78 117 -146 41 -72
53 -106 77 -214 8 -36 18 -73 21 -82 9 -22 -11 -24 -31 -3 -9 8 -11 15 -6 15
5 0 9 8 9 18 1 22 -19 106 -26 112 -8 7 -29 44 -58 102 -13 25 -31 52 -38 58
-8 7 -15 18 -15 24 -1 32 -189 206 -223 206 -7 0 -26 8 -42 18 -48 30 -126 52
-196 57 -35 2 -91 7 -124 10 -33 3 -105 1 -160 -4 -55 -5 -105 -5 -110 -1 -6
5 -42 9 -80 10 -129 2 -444 -8 -454 -14 -6 -4 -13 -29 -17 -56 -4 -27 -10 -48
-14 -45 -4 2 -5 16 -2 30 3 18 0 25 -9 23 -7 -2 -13 2 -14 9 0 6 -3 15 -7 19
-13 12 -9 24 7 24 9 0 12 6 9 15 -4 8 0 25 9 38 14 22 18 22 258 26 134 1 332
-2 439 -9z m105 -181 c41 -6 34 -7 -37 -5 -49 2 -88 1 -88 -3 0 -4 -35 -3 -77
1 -43 3 -93 4 -112 1 -26 -4 -32 -3 -26 7 5 8 24 11 57 8 27 -3 51 -1 54 4 6
10 134 2 229 -13z m556 4 c13 -16 12 -17 -3 -4 -10 7 -18 15 -18 17 0 8 8 3
21 -13z m-983 -10 c-21 -2 -55 -2 -75 0 -21 2 -4 4 37 4 41 0 58 -2 38 -4z
m635 -15 c65 -14 54 -21 -14 -8 -30 6 -73 11 -96 11 -24 1 -43 5 -43 11 0 11
72 5 153 -14z m-1303 -22 c0 -2 -8 -10 -17 -17 -16 -13 -17 -12 -4 4 13 16 21
21 21 13z m1438 -34 c-15 -3 -78 23 -78 33 0 2 21 -4 48 -13 27 -9 40 -18 30
-20z m-385 11 c-7 -2 -19 -2 -25 0 -7 3 -2 5 12 5 14 0 19 -2 13 -5z m-1139
-70 c-43 -52 -46 -60 -41 -100 4 -41 4 -43 -10 -24 -8 12 -11 26 -8 31 3 6 -1
10 -10 10 -10 0 1 20 35 64 43 55 58 69 78 75 1 1 -19 -25 -44 -56z m1571 47
c3 -6 -1 -7 -9 -4 -18 7 -21 14 -7 14 6 0 13 -4 16 -10z m-185 -10 c0 -5 -2
-10 -4 -10 -3 0 -8 5 -11 10 -3 6 -1 10 4 10 6 0 11 -4 11 -10z m-1278 -112
c-8 -8 -9 -4 -5 13 4 13 8 18 11 10 2 -7 -1 -18 -6 -23z m-73 -33 c6 3 11 -1
11 -9 0 -9 -5 -16 -11 -16 -21 0 -49 21 -49 37 0 14 2 14 19 -1 11 -10 25 -15
30 -11z m-464 -44 c3 -5 -5 -12 -17 -14 -13 -2 -4 -5 19 -6 50 -1 70 -21 21
-21 -18 0 -53 -11 -76 -25 -29 -16 -49 -22 -59 -17 -13 8 -12 11 3 27 17 17
17 17 -4 11 -40 -13 -24 14 21 34 46 21 82 25 92 11z m240 -4 c-9 -5 -28 -6
-42 -3 -16 5 -22 3 -18 -4 3 -5 -3 -10 -14 -10 -11 0 -23 -4 -26 -10 -3 -5
-11 -10 -17 -10 -14 0 21 34 42 43 8 3 32 5 53 4 29 0 35 -3 22 -10z m459
-152 c16 -90 22 -99 83 -120 67 -23 87 -51 101 -138 7 -47 6 -57 -5 -57 -8 0
-11 -5 -7 -12 4 -6 3 -8 -3 -5 -6 4 -23 -5 -39 -18 -43 -37 -53 -45 -59 -45
-3 0 -24 -21 -48 -47 -112 -127 -161 -168 -267 -220 -96 -47 -290 -109 -290
-93 0 12 125 70 150 70 27 0 90 29 90 42 0 5 4 7 8 4 11 -7 112 88 112 104 0
9 -6 8 -18 -3 -10 -10 -22 -17 -26 -17 -4 0 -21 -9 -37 -21 -25 -18 -86 -41
-112 -43 -4 -1 -18 -10 -30 -22 -12 -11 -30 -23 -40 -27 -17 -6 -17 -6 0 18
10 13 32 29 50 35 17 6 43 23 57 37 15 14 29 23 32 20 6 -6 17 1 53 34 9 8 28
23 42 33 17 13 19 17 5 12 -15 -5 -17 -4 -7 8 6 7 8 21 5 31 -6 14 -3 16 17
10 18 -5 21 -4 9 4 -13 9 -13 11 2 11 9 0 19 4 22 8 2 4 -12 8 -32 8 -31 0
-44 -7 -78 -43 -23 -24 -49 -43 -59 -43 -14 0 -15 3 -6 14 13 15 87 192 103
246 14 49 42 101 92 174 24 34 51 91 62 126 l19 63 21 -49 c12 -27 24 -67 28
-89z m-1087 69 c18 -14 38 -35 44 -47 9 -15 -1 -10 -30 16 -24 22 -57 45 -75
53 l-31 15 30 -6 c17 -4 45 -18 62 -31z m-40 -20 c11 -7 31 -28 44 -46 l22
-33 -39 36 c-21 20 -52 44 -69 53 -26 15 -27 16 -5 10 14 -3 35 -12 47 -20z
m-626 -11 c13 -15 11 -16 -11 -10 -14 4 -29 7 -33 7 -5 0 -5 5 -2 10 9 15 31
12 46 -7z m1072 -151 c4 10 7 10 15 -1 6 -8 19 -12 31 -8 12 3 21 1 21 -4 0
-13 -84 -11 -98 3 -20 20 -14 32 7 14 15 -13 20 -14 24 -4z m2473 -355 c8 -60
13 -111 11 -114 -3 -3 -8 17 -12 44 -3 26 -15 95 -27 153 -29 150 -31 163 -8
90 10 -36 27 -114 36 -173z m-1552 111 c26 -36 18 -52 -9 -20 -14 17 -25 33
-25 36 0 14 20 4 34 -16z m303 -74 c40 -8 94 -14 121 -14 65 0 154 -17 208
-40 52 -23 60 -43 12 -29 -18 5 -60 8 -93 8 -33 -1 -50 -4 -37 -6 12 -2 20 -8
17 -13 -3 -5 21 -15 53 -21 44 -9 70 -22 103 -51 l44 -39 -49 26 c-57 29 -74
28 -211 -17 -49 -16 -100 -27 -112 -25 -17 3 -32 -5 -55 -32 -41 -47 -58 -57
-70 -40 -7 11 -11 11 -15 2 -2 -7 -14 -13 -26 -13 -12 0 -28 -10 -36 -22 -8
-13 -20 -32 -28 -44 -13 -20 -12 -20 37 -14 28 4 50 5 50 3 0 -1 -12 -9 -28
-17 -31 -16 -79 -61 -93 -88 -16 -29 0 -21 45 25 57 56 106 97 117 97 6 0 26
8 47 19 20 10 53 21 72 25 19 3 72 20 117 37 66 25 90 30 120 24 l38 -8 -35
-8 c-115 -25 -162 -45 -215 -94 -22 -20 -53 -43 -70 -50 -16 -8 -24 -14 -16
-15 11 0 10 -5 -4 -20 -10 -11 -22 -17 -26 -14 -5 3 -9 0 -9 -5 0 -22 -2 -26
-16 -34 -8 -4 -14 -14 -14 -22 0 -8 -16 -29 -36 -47 -38 -35 -70 -86 -60 -96
9 -9 26 12 31 38 2 12 7 25 11 29 4 3 4 -2 0 -13 -5 -14 -2 -17 10 -12 11 4
10 -1 -6 -24 -12 -17 -19 -30 -16 -30 7 0 -28 -98 -58 -161 -54 -114 -112
-278 -123 -349 -3 -19 -9 -43 -14 -52 -5 -9 -9 -28 -9 -42 0 -17 -4 -24 -14
-20 -15 6 -18 84 -3 84 5 0 5 5 2 10 -3 6 -1 10 5 10 6 0 9 8 6 18 -4 10 3 63
14 118 12 54 25 121 29 149 5 27 13 51 18 52 6 2 8 15 5 30 -3 18 -1 24 7 19
6 -4 11 -1 11 6 0 10 2 10 8 1 5 -8 13 19 21 65 7 42 18 86 24 97 10 19 9 19
-14 4 -26 -18 -37 -44 -98 -231 -33 -98 -41 -135 -35 -163 5 -29 2 -41 -14
-58 -19 -21 -29 -71 -58 -269 -3 -21 -9 -38 -14 -38 -5 0 -3 -13 3 -29 9 -25
8 -33 -8 -52 -11 -12 -14 -19 -7 -15 8 5 12 -2 12 -24 0 -20 -4 -29 -11 -25
-6 4 -8 13 -5 21 3 7 1 16 -4 19 -14 8 -13 42 1 47 8 3 8 14 1 40 -7 25 -7 39
1 47 8 8 8 11 -1 11 -6 0 -9 6 -6 14 3 8 1 17 -4 20 -6 3 -13 -1 -16 -10 -5
-14 -9 -14 -23 -3 -13 11 -17 11 -20 2 -3 -7 -12 -13 -20 -13 -13 0 -14 -16
-8 -122 4 -68 9 -131 10 -140 2 -10 0 -20 -6 -23 -5 -4 -9 6 -9 20 0 26 -2 26
-57 25 -96 -3 -93 -4 -93 35 0 40 -4 39 75 21 33 -8 63 -12 67 -10 9 6 -6 55
-31 101 -11 21 -27 54 -35 74 -11 30 -22 39 -60 52 -60 21 -59 5 3 -31 l49
-28 -29 -16 c-16 -10 -29 -25 -29 -34 0 -10 -3 -14 -7 -11 -3 4 -13 1 -21 -6
-17 -13 -62 -17 -62 -5 0 4 4 8 8 8 5 0 9 15 10 33 1 17 11 68 22 112 18 71
19 81 5 91 -14 10 -302 74 -335 74 -13 0 -13 1 0 11 11 7 4 8 -25 5 -22 -3
-31 -3 -21 0 12 4 15 8 7 13 -7 5 -1 20 19 48 29 39 32 40 65 32 71 -18 97
-26 178 -55 9 -4 17 -10 17 -15 0 -5 11 -9 24 -9 13 0 29 -7 36 -15 13 -16 43
-6 68 24 12 14 13 11 8 -19 -3 -19 -8 -45 -11 -56 -6 -20 -2 -22 52 -28 96
-12 98 -13 99 -53 2 -40 11 -48 67 -57 45 -7 47 -6 50 22 0 11 5 18 11 15 5
-4 6 4 2 18 -13 45 -13 54 3 66 10 8 12 12 4 13 -19 0 -10 44 11 56 19 11 18
12 -4 19 -20 6 -21 9 -9 19 8 6 15 18 16 26 5 39 36 138 53 167 39 67 82 177
85 219 2 24 1 44 -2 44 -3 0 -19 -10 -36 -22 l-32 -23 23 29 c12 16 22 33 22
38 0 11 -39 -35 -104 -120 -53 -70 -108 -112 -147 -112 -18 0 -29 -8 -38 -26
-16 -36 -7 -41 34 -21 43 21 71 22 34 2 -64 -35 -101 -35 -277 1 -92 19 -182
37 -200 41 -18 3 -35 10 -38 15 -7 11 0 10 171 -28 61 -13 134 -27 163 -31 51
-6 55 -5 84 28 l31 33 -32 13 c-41 17 -239 71 -290 79 -37 6 -59 24 -29 24 6
0 8 3 4 7 -4 4 -22 -10 -40 -31 l-32 -39 2 29 c1 16 2 33 3 37 3 19 77 82 93
79 16 -3 16 -5 1 -28 -8 -14 -14 -26 -12 -28 2 -1 49 -12 105 -24 105 -22 214
-63 214 -81 0 -21 20 -10 26 14 11 42 -18 72 -92 95 -73 22 -86 24 -64 10 8
-5 11 -10 5 -9 -21 0 -159 37 -145 38 8 1 24 16 36 34 59 91 58 93 -1 37 -64
-60 -63 -55 8 33 26 33 47 54 47 48 0 -19 112 -53 286 -86 99 -19 114 -19 114
0 0 8 -6 15 -12 15 -10 0 -9 3 1 9 15 10 -32 25 -189 61 -52 11 -113 26 -135
32 l-39 10 39 19 c52 24 57 24 49 -6 -5 -21 -3 -25 15 -25 14 0 21 6 21 19 0
10 11 29 24 42 18 17 22 27 14 36 -7 8 -6 24 2 48 11 33 15 36 39 30 14 -4 33
-13 42 -21 10 -9 19 -10 25 -4 6 6 33 2 74 -11 36 -12 92 -27 125 -34 60 -14
60 -14 82 13 13 15 21 31 20 37 -2 5 -61 26 -132 47 -70 21 -134 43 -141 49
-10 8 -23 8 -49 -1 -20 -7 -39 -9 -42 -6 -8 8 27 46 52 56 11 4 29 25 40 46
11 22 27 46 35 55 26 29 112 58 195 67 85 9 99 8 212 -14z m563 2 c66 -32 120
-68 131 -87 18 -35 5 -39 -30 -9 -47 42 -122 76 -216 99 l-80 20 80 -3 c48 -2
94 -10 115 -20z m-245 -6 c-22 -11 -43 -20 -48 -20 -17 0 14 29 36 33 47 9 50
6 12 -13z m-810 -87 c-10 -16 -23 -35 -29 -44 -19 -27 -180 -156 -232 -185
-27 -15 -51 -30 -54 -34 -3 -4 -36 -22 -75 -39 -38 -17 -77 -36 -86 -40 -8 -5
-27 -7 -42 -4 -14 3 -40 0 -57 -5 -32 -12 -99 3 -83 19 4 4 42 19 83 32 65 22
141 55 320 140 57 27 139 82 210 141 30 25 57 46 59 46 2 0 -5 -12 -14 -27z
m1078 -11 c15 -15 27 -33 27 -38 0 -12 43 -34 65 -34 8 0 15 6 16 13 0 9 2 9
6 -1 3 -7 28 -34 56 -60 51 -48 137 -156 137 -174 0 -5 -19 14 -42 44 -59 73
-154 169 -161 161 -12 -11 -95 28 -113 54 -11 14 -27 34 -36 45 -17 17 -17 18
0 18 10 0 30 -13 45 -28z m-1499 -40 c2 -4 -4 -9 -15 -9 -11 -1 -17 2 -14 8 7
11 22 12 29 1z m1376 -94 c0 -6 -7 -5 -15 2 -8 7 -15 17 -15 22 0 6 7 5 15 -2
8 -7 15 -17 15 -22z m122 1 c9 -13 20 -44 23 -69 6 -42 5 -44 -9 -26 -9 11
-16 29 -16 39 0 11 -15 34 -33 51 -34 31 -34 32 -8 30 14 0 33 -11 43 -25z
m725 -91 c-3 -7 -5 -2 -5 12 0 14 2 19 5 13 2 -7 2 -19 0 -25z m261 -192 c2
-155 1 -174 -15 -180 -20 -8 -33 10 -33 46 0 15 -5 30 -10 33 -11 7 -3 52 12
72 5 7 5 14 -2 18 -5 3 -10 16 -10 28 0 18 2 19 10 7 16 -25 23 14 10 54 -13
42 -20 47 -59 48 -45 1 -27 25 26 32 25 3 50 3 56 -1 6 -3 7 -1 3 5 -4 7 -4
12 1 12 4 0 9 -78 11 -174z m-1259 148 c-6 -7 -24 -16 -40 -19 -16 -4 -31 -11
-34 -15 -3 -5 -25 -18 -48 -28 -58 -26 -104 -68 -173 -158 -52 -67 -59 -74
-67 -56 -9 19 15 65 49 97 6 5 21 25 33 43 12 17 29 32 37 32 8 0 14 4 14 9 0
14 122 83 170 96 60 15 73 15 59 -1z m981 -14 c0 -5 -7 -7 -15 -4 -8 4 -12 10
-9 15 6 11 24 2 24 -11z m-872 -30 c77 -22 175 -75 251 -139 25 -21 72 -55
103 -75 31 -20 74 -57 95 -82 21 -26 79 -73 128 -106 68 -45 103 -77 143 -129
l54 -70 18 33 c11 20 24 32 34 30 23 -4 21 62 -2 96 -28 40 -34 62 -18 62 8 0
16 5 18 11 2 7 12 -1 22 -16 13 -19 18 -45 17 -86 0 -32 3 -60 7 -63 4 -2 24
3 45 11 36 15 37 16 38 72 1 31 1 61 0 67 0 5 22 22 49 37 28 15 50 24 50 20
0 -3 11 4 25 17 l25 23 0 -79 0 -79 -33 -15 c-33 -15 -55 -59 -23 -47 10 4 16
1 16 -9 0 -8 5 -12 10 -9 6 4 10 -10 10 -36 0 -46 -9 -50 -12 -6 -1 15 -8 27
-14 27 -7 0 -14 6 -17 13 -2 6 -7 -6 -11 -28 -9 -53 14 -116 63 -175 21 -25
46 -58 57 -75 16 -25 17 -28 2 -23 -22 9 -31 -17 -15 -43 9 -15 19 -19 40 -15
19 4 27 1 27 -8 0 -8 -6 -17 -12 -19 -7 -3 -3 -6 9 -6 12 -1 25 -6 29 -13 5
-8 2 -9 -11 -4 -10 4 -28 0 -43 -10 -23 -15 -25 -15 -19 0 6 15 4 15 -23 1
-38 -20 -53 -19 -67 4 -11 17 -9 21 7 26 11 4 20 11 20 17 0 6 9 8 20 5 17 -4
18 -2 9 14 -6 12 -15 17 -22 12 -7 -4 -20 -6 -31 -4 -10 1 -16 -1 -13 -6 2 -4
-5 -17 -16 -28 l-20 -20 5 22 c5 17 2 21 -16 17 -17 -3 -26 6 -45 42 -44 82
-116 128 -166 106 -13 -6 -33 -8 -45 -5 l-21 6 20 -39 c12 -21 21 -44 21 -51
0 -7 5 -13 11 -13 5 0 7 -4 4 -10 -10 -17 5 -32 20 -20 16 14 28 -2 18 -25 -4
-12 3 -26 23 -44 29 -26 84 -95 84 -105 0 -3 16 -21 35 -41 20 -19 33 -35 29
-35 -4 0 1 -9 10 -19 10 -11 15 -24 12 -29 -3 -6 2 -8 12 -5 17 4 25 -6 50
-61 3 -5 -1 -6 -7 -2 -7 4 -10 2 -9 -5 4 -16 -50 -47 -182 -105 l-105 -46 -72
79 c-81 87 -123 156 -99 161 9 2 -2 18 -31 45 -52 48 -76 88 -66 114 4 13 3
15 -5 8 -16 -15 -18 -96 -3 -120 7 -11 30 -32 51 -47 22 -16 47 -48 60 -75 12
-27 48 -78 79 -115 67 -81 61 -82 229 2 64 31 127 60 139 64 11 4 27 13 33 21
11 13 26 -2 96 -92 46 -60 98 -125 114 -145 50 -61 130 -197 124 -212 -3 -7 5
-22 18 -32 29 -24 68 -78 68 -96 0 -7 10 -24 21 -38 l20 -25 -6 25 c-4 14 -25
56 -46 93 -21 38 -39 72 -39 76 0 4 -9 16 -20 26 -12 11 -18 25 -15 34 3 8 3
12 -1 8 -4 -4 -16 5 -26 20 -17 26 -17 28 0 35 14 6 14 7 -4 7 -12 1 -29 12
-38 26 -16 25 -16 25 3 13 11 -6 17 -16 14 -22 -3 -5 -1 -6 5 -3 5 4 9 15 7
25 -2 9 -4 21 -4 25 -1 5 -5 6 -10 3 -5 -4 -8 5 -7 19 2 13 -1 22 -5 19 -8 -5
-14 18 -10 39 1 4 -10 11 -23 16 -24 10 -36 29 -36 59 0 9 -13 31 -30 47 -71
72 -101 116 -149 228 -12 26 -26 47 -31 47 -6 0 -10 7 -10 15 0 9 6 12 15 8
10 -3 15 -1 13 7 -2 7 3 15 11 18 9 3 11 0 6 -8 -6 -9 2 -11 32 -5 31 5 48 2
76 -15 33 -20 56 -54 44 -67 -3 -3 3 -14 13 -26 11 -11 17 -24 14 -28 -9 -16
72 -140 109 -168 12 -8 15 -16 9 -20 -11 -7 33 -85 69 -124 10 -12 19 -31 19
-44 0 -14 4 -22 9 -19 12 8 23 -23 16 -45 -3 -9 -1 -20 4 -24 7 -3 8 0 5 9 -3
9 -4 16 -1 16 3 0 13 -21 23 -47 17 -47 79 -152 154 -263 21 -30 52 -84 70
-120 18 -36 55 -100 83 -144 39 -60 48 -82 40 -94 -5 -9 -68 -50 -140 -92 -71
-41 -145 -87 -164 -102 -20 -15 -67 -44 -105 -64 -38 -20 -74 -40 -80 -45 -6
-5 -14 -6 -17 -2 -4 3 -7 1 -7 -5 0 -7 -9 -12 -21 -12 -12 0 -18 -4 -13 -11 4
-7 -10 0 -31 14 -21 14 -43 23 -48 20 -6 -3 -7 -1 -4 4 4 6 -3 23 -14 37 -12
15 -18 33 -15 41 3 8 0 14 -6 12 -6 -1 -12 8 -13 21 -1 12 -8 28 -15 35 -8 8
-11 8 -7 1 4 -7 0 -15 -9 -18 -8 -3 -13 -2 -9 3 3 5 0 11 -7 13 -6 2 -13 14
-15 27 -2 15 1 20 9 15 7 -4 8 -3 4 4 -4 7 -13 12 -19 12 -21 0 -69 51 -63 67
3 8 1 11 -4 8 -6 -3 -10 -2 -10 4 0 5 5 13 12 17 8 5 5 11 -7 20 -24 18 -50
88 -29 80 8 -3 14 -2 14 2 0 10 -67 52 -83 52 -7 0 -19 9 -27 20 -8 11 -18 20
-23 20 -9 0 -37 25 -37 34 0 3 7 6 15 6 8 0 15 2 15 5 0 13 -33 55 -43 55 -6
0 -19 8 -30 18 -15 12 -21 14 -24 4 -3 -6 -10 -9 -16 -5 -6 4 -8 0 -4 -10 14
-36 -4 -14 -45 56 -23 39 -45 74 -48 77 -7 6 -113 177 -129 208 -11 21 -11 22
8 10 11 -6 17 -16 15 -20 -3 -4 -1 -8 4 -8 5 0 12 -9 15 -20 3 -11 13 -20 22
-20 12 0 15 -6 10 -20 -4 -13 0 -23 14 -32 12 -7 21 -16 21 -21 0 -4 13 -22
30 -40 21 -22 26 -34 17 -39 -8 -5 -4 -8 11 -8 12 0 22 5 22 11 0 5 4 8 10 4
5 -3 7 -12 4 -19 -3 -9 6 -18 27 -25 23 -8 30 -15 25 -28 -4 -9 4 -5 19 11 31
34 31 41 -2 85 -16 20 -28 38 -28 41 -1 13 -17 30 -26 25 -5 -4 -9 0 -9 8 0 8
-7 18 -16 21 -14 5 -15 4 -4 -9 7 -8 8 -15 3 -15 -5 0 -15 11 -21 25 -6 14
-18 25 -26 25 -8 0 -18 5 -21 10 -4 6 -3 9 2 8 4 -2 9 1 10 6 1 5 7 13 15 18
10 8 9 9 -3 5 -24 -8 -47 9 -32 24 21 21 5 39 -25 28 -25 -8 -25 -8 -8 5 19
16 13 41 -9 32 -7 -2 -16 2 -19 10 -3 8 -11 13 -17 12 -6 -2 -14 3 -16 10 -3
8 1 10 11 6 27 -10 18 2 -23 31 -27 18 -38 32 -34 43 3 11 2 13 -4 6 -13 -17
-43 -13 -43 7 0 10 5 21 10 24 16 10 12 38 -4 32 -9 -4 -16 3 -20 19 -4 13
-11 24 -16 24 -16 0 -60 42 -54 52 3 4 0 9 -5 9 -6 1 -16 2 -21 3 -6 0 -15 8
-20 16 -5 8 -10 11 -10 7 0 -5 -7 -1 -16 7 -8 9 -12 21 -9 27 4 6 -3 13 -15
16 -13 3 -19 11 -16 19 3 8 1 14 -4 14 -5 0 -17 14 -25 31 -9 16 -25 39 -36
50 -10 10 -19 24 -19 29 0 17 19 11 32 -10 15 -23 33 -27 24 -5 -3 8 -2 15 3
15 12 0 9 70 -4 70 -5 0 3 12 18 25 32 29 28 31 -13 10 -16 -8 -31 -11 -34 -6
-3 5 4 11 16 14 20 6 18 9 -22 56 -23 28 -46 51 -52 51 -6 0 6 -18 26 -40 20
-22 36 -43 36 -46 0 -9 -30 16 -61 50 -26 28 -28 29 -45 12 -16 -16 -16 -20
-2 -44 17 -28 21 -50 19 -94 -1 -20 -5 -25 -20 -21 -20 5 -41 60 -42 114 0 32
-1 33 -11 12 -9 -18 -20 -23 -48 -23 -53 0 -81 -32 -37 -44 18 -5 20 -8 7 -16
-12 -8 -9 -10 13 -10 15 0 27 -4 27 -10 0 -14 -35 -30 -64 -30 -35 0 -33 -13
9 -59 37 -41 41 -65 27 -161 -5 -32 -9 -40 -14 -27 -4 9 -6 19 -5 21 1 1 -4
10 -11 18 -14 17 -33 81 -52 173 -6 33 -18 80 -25 105 -7 25 -18 73 -25 107
-7 35 -19 68 -26 74 -8 6 -14 19 -14 29 0 9 -7 31 -16 48 -11 23 -22 32 -41
32 -21 0 -23 -3 -14 -14 10 -12 8 -15 -11 -18 -19 -2 -23 -9 -24 -36 0 -18 -5
-37 -11 -40 -15 -10 -53 -98 -46 -106 4 -3 0 -6 -8 -6 -9 0 -6 -7 9 -22 75
-76 75 -75 68 -162 -3 -45 -8 -88 -10 -96 -11 -51 -21 -77 -38 -91 -21 -19
-25 -37 -5 -20 8 6 16 8 20 5 9 -9 -5 -77 -20 -101 -13 -19 -18 -20 -34 -10
-13 8 -19 20 -16 35 3 17 0 22 -15 22 -14 0 -18 -5 -14 -17 10 -33 26 -126 22
-130 -5 -5 -46 130 -46 151 0 20 22 69 35 78 6 5 6 8 -1 8 -7 0 -15 7 -18 16
-3 8 -2 12 4 9 18 -11 11 11 -11 34 -17 18 -18 25 -9 36 15 18 5 19 -51 2 -28
-9 -54 -11 -68 -5 -26 9 -45 -5 -61 -48 -10 -25 -3 -131 16 -243 4 -22 2 -31
-5 -26 -6 3 -11 17 -11 30 0 13 -9 47 -20 75 -13 32 -17 57 -12 68 5 9 8 40 8
67 l-1 50 -34 -3 c-19 -1 -37 -4 -39 -7 -2 -2 8 -30 22 -62 14 -32 20 -51 13
-43 -6 8 -36 35 -66 60 l-54 44 7 75 c3 42 13 99 21 126 l15 50 -6 -50 c-3
-27 -8 -61 -11 -73 -5 -20 -2 -23 18 -20 13 1 28 13 34 26 5 12 17 22 26 22
12 0 15 7 12 23 -3 17 2 26 21 35 27 12 30 23 20 84 -8 45 -41 85 -58 68 -8
-8 -7 -13 3 -19 7 -5 10 -14 7 -20 -15 -23 -26 -10 -27 32 l-1 42 -14 -50 -13
-50 6 80 c3 44 9 85 12 90 4 6 14 30 21 55 17 52 49 120 50 104 0 -6 -6 -29
-13 -50 -8 -22 -17 -51 -20 -65 -6 -23 -4 -25 21 -21 21 3 33 -3 47 -22 l20
-26 23 28 c18 20 22 22 16 7 -3 -11 -6 -28 -6 -38 0 -10 -12 -46 -29 -80 -43
-92 -37 -147 18 -147 34 0 72 -21 66 -36 -3 -9 -13 -12 -31 -7 -17 4 -23 2
-18 -6 4 -6 31 -11 62 -11 59 0 69 13 34 45 -25 22 -25 40 -2 57 12 9 18 29
19 70 l3 57 -44 26 c-53 31 -63 51 -38 79 11 12 19 35 19 54 0 41 6 47 34 31
17 -9 24 -9 27 0 2 6 11 11 21 11 9 0 25 6 35 13 16 12 16 14 -3 31 -16 15
-29 17 -58 12 -21 -4 -44 -8 -52 -8 -8 -1 -16 -9 -18 -19 -8 -28 -42 -29 -92
-2 -2 1 11 20 29 43 17 22 36 37 41 34 5 -3 8 -2 7 3 -2 4 15 34 37 65 29 41
45 56 57 52 10 -3 21 3 28 16 6 11 18 20 26 20 10 0 14 6 11 14 -3 8 5 26 18
41 20 20 22 27 10 30 -8 3 -22 7 -30 10 -26 8 -16 30 31 71 25 21 52 44 58 50
23 21 121 67 156 73 3 1 38 -8 78 -19z m-3789 6 c-2 -2 -26 -10 -53 -19 -53
-18 -55 -10 -3 10 31 11 65 17 56 9z m2788 -92 c-3 -3 -12 -4 -19 -1 -8 3 -5
6 6 6 11 1 17 -2 13 -5z m90 -20 c-3 -3 -12 -4 -19 -1 -8 3 -5 6 6 6 11 1 17
-2 13 -5z m50 -10 c-3 -3 -12 -4 -19 -1 -8 3 -5 6 6 6 11 1 17 -2 13 -5z m40
-10 c-3 -3 -12 -4 -19 -1 -8 3 -5 6 6 6 11 1 17 -2 13 -5z m1736 -89 c3 -41 2
-60 -3 -45 -8 25 -13 127 -6 119 2 -2 6 -35 9 -74z m-5083 48 c0 -5 -13 -17
-28 -27 l-27 -19 24 26 c26 28 31 32 31 20z m-60 -47 c0 -2 -8 -10 -17 -17
-16 -13 -17 -12 -4 4 13 16 21 21 21 13z m-136 -110 c-3 -8 -13 -17 -22 -21
-13 -5 -13 -2 3 15 21 24 26 25 19 6z m-50 -38 c-3 -7 -20 -24 -37 -37 l-32
-25 34 37 c38 40 43 44 35 25z m-44 -79 c-19 -16 -44 -34 -55 -40 -11 -6 -4 2
15 18 19 15 41 36 49 45 8 10 17 15 20 12 3 -3 -10 -19 -29 -35z m-31 8 c-2
-1 -15 -11 -29 -22 l-25 -20 19 23 c11 12 24 22 29 22 6 0 8 -1 6 -3z m-89
-69 c-18 -18 -38 -42 -46 -54 -8 -11 -35 -36 -62 -54 -39 -28 -33 -19 39 53
48 48 90 87 94 87 4 0 -7 -15 -25 -32z m5650 22 c0 -5 -5 -10 -11 -10 -5 0 -7
5 -4 10 3 6 8 10 11 10 2 0 4 -4 4 -10z m-2110 -44 c0 -2 -7 -9 -15 -16 -13
-11 -14 -10 -9 4 5 14 24 23 24 12z m92 -103 c-6 -3 -9 -9 -6 -14 3 -6 0 -41
-6 -80 -9 -55 -15 -69 -27 -65 -8 3 -17 6 -19 6 -11 0 -2 53 17 96 23 55 39
77 48 68 3 -4 0 -9 -7 -11z m-3877 -13 c-3 -5 -12 -7 -20 -3 -21 7 -19 13 6
13 11 0 18 -4 14 -10z m34 -33 c15 2 8 -3 -19 -12 -24 -8 -46 -12 -49 -10 -2
3 2 5 10 5 12 0 12 2 0 9 -7 5 -10 14 -6 20 5 9 11 9 22 -1 9 -7 28 -12 42
-11z m3052 -19 c43 -12 45 -16 25 -43 -21 -29 -70 -10 -74 28 -4 31 -3 31 49
15z m-3012 -55 c17 -21 31 -41 31 -45 0 -4 26 -46 58 -95 32 -48 73 -115 92
-148 18 -32 85 -138 149 -235 65 -96 148 -227 186 -290 37 -63 100 -164 140
-225 39 -60 91 -143 116 -183 24 -40 58 -95 76 -122 l32 -48 -27 -7 c-15 -3
-35 -8 -44 -11 -11 -3 -18 0 -18 7 0 7 -22 47 -48 88 -27 42 -80 126 -117 186
-37 61 -103 164 -145 230 -42 66 -87 138 -100 160 -13 22 -67 106 -120 186
-52 80 -111 173 -130 208 -19 34 -80 130 -134 212 -79 120 -97 153 -85 160 29
18 58 9 88 -28z m3041 -28 c25 -3 66 -2 93 3 38 8 47 7 47 -4 0 -15 -1 -15
-37 -19 -13 -1 -28 -7 -35 -13 -7 -5 -24 -12 -38 -14 -19 -2 -24 -8 -22 -25 4
-28 -25 -44 -80 -45 l-40 0 33 -29 c27 -23 31 -30 20 -43 -7 -9 -29 -19 -50
-23 -34 -6 -35 -7 -11 -14 l25 -7 -27 -1 c-15 -1 -56 14 -90 33 -74 40 -157
66 -209 66 -21 0 -44 7 -53 15 -9 10 -36 15 -73 16 -32 1 -69 4 -83 8 -24 7
-24 8 -5 18 31 17 205 24 272 12 110 -21 248 -36 251 -27 2 4 11 8 20 9 11 0
12 2 4 6 -6 2 -9 9 -6 15 3 5 6 25 6 44 0 31 3 35 22 31 11 -3 41 -8 66 -12z
m262 -58 c4 -7 8 -7 8 -2 0 6 7 -1 15 -15 13 -22 14 -23 15 -5 0 15 2 17 9 6
5 -7 14 -10 20 -7 12 8 15 -23 3 -39 -6 -10 -68 -17 -152 -19 l-35 -1 4 45 c1
25 5 49 8 53 7 12 96 -2 105 -16z m243 -7 c3 -5 1 -10 -4 -10 -6 0 -11 5 -11
10 0 6 2 10 4 10 3 0 8 -4 11 -10z m21 -68 c-9 -33 -16 -70 -16 -82 0 -18 -3
-20 -14 -11 -19 16 -187 50 -251 52 -27 0 -61 5 -75 9 l-25 8 25 1 c27 1 178
-16 220 -24 17 -4 21 -3 11 4 -16 10 -6 31 15 31 9 0 14 7 12 18 -2 9 2 16 9
15 6 -2 31 8 55 22 23 13 44 23 46 21 2 -2 -4 -31 -12 -64z m2359 59 c3 -5 1
-12 -5 -16 -5 -3 -10 1 -10 9 0 18 6 21 15 7z m-2431 -9 c2 -4 -4 -9 -15 -9
-11 -1 -17 2 -14 8 7 11 22 12 29 1z m614 -50 c6 -18 -15 -14 -22 4 -4 10 -1
14 6 12 6 -2 14 -10 16 -16z m1538 -25 c81 -90 87 -98 74 -111 -9 -8 -14 -8
-17 2 -9 23 -75 117 -95 135 -11 9 -16 17 -10 17 5 0 27 -19 48 -43z m-1652
-16 c-5 -3 -8 -22 -8 -41 2 -44 -5 -70 -17 -70 -6 0 -8 4 -4 9 3 5 1 12 -4 16
-6 3 -8 20 -5 38 3 17 6 38 6 45 1 6 5 12 10 12 4 0 8 8 8 18 1 15 2 15 11 -2
6 -10 7 -21 3 -25z m-884 -11 c0 -5 -4 -10 -10 -10 -5 0 -10 5 -10 10 0 6 5
10 10 10 6 0 10 -4 10 -10z m-3830 -20 c0 -5 -5 -10 -11 -10 -5 0 -7 5 -4 10
3 6 8 10 11 10 2 0 4 -4 4 -10z m3735 0 c3 -5 1 -10 -4 -10 -6 0 -11 5 -11 10
0 6 2 10 4 10 3 0 8 -4 11 -10z m218 -10 c9 0 17 -5 17 -10 0 -6 -11 -8 -25
-4 -17 4 -25 2 -25 -6 0 -10 -3 -10 -15 0 -22 19 -18 33 8 26 12 -3 30 -6 40
-6z m-576 -36 c-3 -3 -12 -4 -19 -1 -8 3 -5 6 6 6 11 1 17 -2 13 -5z m218 -3
c3 -6 -3 -9 -14 -8 -11 0 -17 5 -15 9 7 11 22 10 29 -1z m665 -1 c0 -5 -7 -7
-15 -4 -8 4 -15 8 -15 10 0 2 7 4 15 4 8 0 15 -4 15 -10z m-777 -7 c-7 -2 -19
-2 -25 0 -7 3 -2 5 12 5 14 0 19 -2 13 -5z m756 -93 c-6 -12 -9 -9 -10 10 -1
22 -2 22 -10 -7 -12 -40 -19 -43 -15 -5 2 15 4 33 5 40 0 7 6 10 13 6 6 -4 8
-3 5 4 -4 5 -4 18 0 29 6 14 9 8 14 -22 4 -22 3 -47 -2 -55z m-292 48 c-3 -7
-5 -2 -5 12 0 14 2 19 5 13 2 -7 2 -19 0 -25z m133 18 c0 -3 -4 -8 -10 -11 -5
-3 -10 -1 -10 4 0 6 5 11 10 11 6 0 10 -2 10 -4z m-34 -32 c-4 -9 -9 -15 -11
-12 -3 3 -3 13 1 22 4 9 9 15 11 12 3 -3 3 -13 -1 -22z m244 22 c0 -3 -4 -8
-10 -11 -5 -3 -10 -1 -10 4 0 6 5 11 10 11 6 0 10 -2 10 -4z m-130 -32 c0 -14
-4 -23 -9 -20 -5 3 -7 15 -4 26 7 28 13 25 13 -6z m-60 -4 c0 -5 -2 -10 -4
-10 -3 0 -8 5 -11 10 -3 6 -1 10 4 10 6 0 11 -4 11 -10z m90 -11 c0 -6 -4 -7
-10 -4 -5 3 -10 11 -10 16 0 6 5 7 10 4 6 -3 10 -11 10 -16z m120 -47 c0 -16
48 -62 65 -62 3 0 23 -11 43 -25 45 -31 82 -33 82 -5 0 11 5 20 10 20 16 0 12
-77 -5 -83 -8 -4 -38 -3 -66 0 -39 5 -58 13 -76 32 -30 34 -73 99 -73 111 0 6
-8 10 -17 11 -17 0 -17 1 -1 7 13 5 15 11 8 22 -17 27 -11 34 10 12 11 -12 20
-30 20 -40z m-2380 18 c0 -5 -4 -10 -9 -10 -6 0 -13 5 -16 10 -3 6 1 10 9 10
9 0 16 -4 16 -10z m4645 -40 c10 -11 16 -20 13 -20 -3 0 -13 9 -23 20 -10 11
-16 20 -13 20 3 0 13 -9 23 -20z m-6335 6 c0 -2 -8 -10 -17 -17 -16 -13 -17
-12 -4 4 13 16 21 21 21 13z m3868 -3 c-15 -2 -42 -2 -60 0 -18 2 -6 4 27 4
33 0 48 -2 33 -4z m80 -10 c-10 -2 -26 -2 -35 0 -10 3 -2 5 17 5 19 0 27 -2
18 -5z m-333 -24 c11 -17 -1 -21 -15 -4 -8 9 -8 15 -2 15 6 0 14 -5 17 -11z
m343 -17 c19 -8 39 -26 45 -39 5 -12 18 -23 28 -23 15 0 16 -5 7 -42 -5 -24
-13 -79 -18 -123 -8 -79 -8 -79 -6 33 2 62 0 109 -3 105 -3 -4 -18 -8 -33 -8
-21 -1 -28 4 -30 20 -1 11 -5 -18 -8 -65 l-6 -85 -2 82 c-1 45 -6 92 -11 105
-13 34 -76 50 -180 48 -103 -3 -124 -1 -91 10 42 12 271 -1 308 -18z m122 -77
c10 -12 10 -15 -4 -15 -9 0 -16 7 -16 15 0 8 2 15 4 15 2 0 9 -7 16 -15z m50
-45 c0 -5 -2 -10 -4 -10 -3 0 -8 5 -11 10 -3 6 -1 10 4 10 6 0 11 -4 11 -10z
m40 8 c7 -39 10 -111 4 -105 -11 11 -22 107 -12 107 4 0 8 -1 8 -2z m1559 -62
c-3 -3 -11 5 -18 17 -13 21 -12 21 5 5 10 -10 16 -20 13 -22z m-444 -86 c1
-44 0 -80 -3 -80 -13 0 -31 38 -32 65 0 37 19 109 27 101 3 -3 7 -42 8 -86z
m345 70 c6 -11 8 -20 6 -20 -3 0 -10 9 -16 20 -6 11 -8 20 -6 20 3 0 10 -9 16
-20z m-930 -23 c0 -5 -4 -5 -10 -2 -5 3 -10 14 -10 23 0 15 2 15 10 2 5 -8 10
-19 10 -23z m1054 7 c3 -8 2 -12 -4 -9 -6 3 -10 10 -10 16 0 14 7 11 14 -7z
m-1044 -55 c0 -11 -4 -17 -10 -14 -5 3 -10 15 -10 26 0 11 5 17 10 14 6 -3 10
-15 10 -26z m1068 6 c-3 -3 -9 2 -12 12 -6 14 -5 15 5 6 7 -7 10 -15 7 -18z
m-6128 -50 c-24 -25 -46 -45 -49 -45 -3 0 15 20 39 45 24 25 46 45 49 45 3 0
-15 -20 -39 -45z m4500 -11 c0 -8 -4 -14 -10 -14 -5 0 -10 9 -10 21 0 11 5 17
10 14 6 -3 10 -13 10 -21z m99 -20 c64 2 91 -9 91 -39 0 -7 3 -20 6 -29 10
-25 -24 -20 -94 14 -34 17 -66 29 -71 26 -5 -3 -11 3 -14 14 -5 21 3 36 12 21
3 -5 35 -8 70 -7z m1641 -4 c0 -11 -2 -20 -4 -20 -2 0 -6 9 -9 20 -3 11 -1 20
4 20 5 0 9 -9 9 -20z m-84 -89 c26 -36 55 -73 64 -81 23 -20 30 -44 18 -61 -7
-11 -11 -11 -15 -1 -2 7 -11 19 -20 27 -8 8 -11 15 -6 15 4 0 3 4 -2 8 -13 9
-65 79 -65 87 0 3 -11 23 -25 43 -14 20 -25 41 -25 46 0 16 30 -16 76 -83z
m-6272 -11 c-15 -22 -29 -38 -31 -36 -5 5 46 76 53 76 3 0 -8 -18 -22 -40z
m5742 14 c-4 -9 -9 -15 -11 -12 -3 3 -3 13 1 22 4 9 9 15 11 12 3 -3 3 -13 -1
-22z m-1159 -70 c-3 -3 -12 -4 -19 -1 -8 3 -5 6 6 6 11 1 17 -2 13 -5z m1967
-240 c3 -8 2 -12 -4 -9 -6 3 -10 10 -10 16 0 14 7 11 14 -7z m81 -87 l20 3
-20 -9 c-24 -10 -32 -7 -46 22 -10 22 -10 22 8 2 10 -11 27 -19 38 -18z
m-6735 10 c0 -2 -10 -12 -22 -23 l-23 -19 19 23 c18 21 26 27 26 19z m5310
-37 c0 -5 -2 -10 -4 -10 -3 0 -8 5 -11 10 -3 6 -1 10 4 10 6 0 11 -4 11 -10z
m-220 -15 c17 -20 7 -29 -18 -16 -11 6 -22 7 -26 4 -3 -3 -6 -2 -6 4 0 26 31
31 50 8z m1668 -16 c11 0 12 -3 4 -6 -18 -7 -4 -23 16 -17 13 5 14 4 3 -4 -7
-5 -10 -15 -7 -21 4 -6 5 -11 2 -11 -7 0 -56 77 -56 87 0 5 5 0 11 -9 5 -10
18 -18 27 -19z m-4394 2 c38 -42 123 -182 114 -187 -19 -12 -195 177 -183 196
10 16 51 11 69 -9z m-350 -169 c71 -112 89 -152 66 -152 -23 0 -200 227 -200
257 0 8 11 13 29 13 26 0 37 -12 105 -118z m4802 68 c0 -21 -11 -17 -26 10 -8
15 -6 17 8 13 10 -2 18 -13 18 -23z m-1566 0 c6 -11 8 -20 6 -20 -3 0 -10 9
-16 20 -6 11 -8 20 -6 20 3 0 10 -9 16 -20z m980 1 c0 -5 -13 -11 -30 -13 -29
-4 -37 1 -23 15 10 10 53 8 53 -2z m630 -55 c0 -3 -4 -8 -10 -11 -5 -3 -10 -1
-10 4 0 6 5 11 10 11 6 0 10 -2 10 -4z m81 -49 l11 -22 -21 22 c-22 23 -28 39
-11 28 5 -3 15 -16 21 -28z m-1631 14 c0 -5 -7 -11 -14 -14 -10 -4 -13 -1 -9
9 6 15 23 19 23 5z m-563 -78 c-3 -10 -5 -4 -5 12 0 17 2 24 5 18 2 -7 2 -21
0 -30z m2173 23 c0 -2 -7 -7 -16 -10 -8 -3 -12 -2 -9 4 6 10 25 14 25 6z m37
-31 c-1 -5 5 -8 13 -7 8 2 12 0 8 -4 -11 -11 11 -34 27 -28 7 3 16 0 21 -7 5
-9 2 -10 -9 -6 -18 7 -24 -8 -8 -18 5 -3 9 -19 9 -36 -1 -20 8 -39 27 -59 34
-35 27 -40 -8 -7 -34 31 -128 168 -122 178 8 11 44 7 42 -6z m-6737 -34 c0 -4
-24 -23 -52 -42 -66 -42 -68 -43 -68 -30 0 14 36 47 74 65 36 18 46 19 46 7z
m4527 -58 c-3 -10 -5 -4 -5 12 0 17 2 24 5 18 2 -7 2 -21 0 -30z m-4407 -8 c0
-2 -13 -11 -30 -20 -38 -19 -40 -11 -2 9 31 17 32 18 32 11z m7020 -6 c0 -6 5
-9 12 -7 14 5 52 -46 63 -83 4 -13 36 -85 70 -159 78 -165 111 -292 102 -389
-4 -36 -13 -140 -21 -231 -21 -228 -33 -300 -68 -409 -21 -64 -33 -89 -39 -80
-5 8 -9 10 -9 5 0 -5 -8 -2 -17 5 -15 12 -16 12 -10 -4 4 -10 7 -26 7 -35 0
-14 2 -15 10 -2 5 8 11 12 14 9 9 -9 -39 -120 -49 -112 -4 5 -5 0 -2 -10 8
-21 -100 -336 -145 -425 l-33 -63 -7 35 c-4 20 -3 47 2 61 13 33 12 38 0 30
-6 -4 -10 8 -11 27 0 24 -2 28 -8 15 -4 -10 -11 -19 -16 -20 -6 0 -18 -11 -28
-23 -10 -13 -24 -21 -32 -17 -8 3 -15 0 -15 -6 0 -22 -26 -10 -64 29 -21 22
-48 42 -60 45 -91 20 -202 36 -221 31 -14 -4 -24 -15 -28 -32 -4 -23 1 -29 42
-48 85 -39 189 -112 177 -123 -1 -2 -28 3 -60 9 -43 9 -61 10 -76 1 -15 -10
-24 -7 -52 17 -18 16 -36 30 -39 30 -4 0 -42 28 -85 61 -44 34 -86 64 -94 67
-8 3 -29 15 -45 27 -17 13 -39 24 -48 26 -10 2 -17 8 -17 14 2 11 -38 29 -60
27 -8 -1 -26 6 -38 16 l-24 18 59 50 c32 28 74 61 93 74 19 13 53 42 76 65 43
44 93 68 114 55 15 -9 4 -50 -14 -50 -7 0 -25 -9 -40 -21 -14 -11 -34 -19 -43
-17 -29 4 -43 -11 -43 -46 0 -18 -7 -41 -15 -52 -18 -24 -19 -37 -2 -29 6 4 3
-1 -7 -9 -11 -9 -16 -16 -10 -16 5 0 1 -7 -9 -14 -16 -13 -16 -14 -1 -20 11
-4 27 2 44 19 32 30 39 31 84 4 38 -22 163 -40 136 -19 -12 10 -11 11 8 7 29
-7 28 11 -2 22 -28 11 -91 84 -76 89 5 2 10 8 10 13 0 4 -7 6 -15 2 -13 -4
-15 2 -13 32 1 20 8 40 15 42 20 8 45 -18 39 -39 -2 -11 2 -22 10 -25 8 -3 14
-12 14 -20 0 -10 7 -14 20 -10 14 4 20 0 20 -13 0 -20 52 -46 71 -35 6 5 21 8
33 9 23 1 35 38 18 59 -15 20 2 62 23 59 29 -6 72 -39 91 -72 10 -16 28 -34
40 -41 37 -19 53 1 50 64 -1 29 1 63 6 76 6 17 4 27 -7 35 -9 6 -18 18 -19 26
-10 43 -32 79 -53 85 -25 6 -29 25 -12 57 8 15 8 19 0 14 -6 -4 -11 0 -11 9 0
11 -5 15 -14 12 -9 -4 -13 3 -13 21 0 15 2 21 4 14 3 -6 8 -10 13 -7 11 7 41
-30 42 -51 0 -11 -3 -27 -7 -36 -5 -13 -3 -18 9 -18 9 0 17 9 18 20 0 11 1 26
2 33 1 6 5 15 11 19 5 4 -7 14 -28 23 -23 9 -35 20 -31 27 4 6 3 8 -3 5 -15
-10 -93 31 -93 48 0 17 21 20 36 5 7 -7 19 -7 35 -1 l24 9 -25 10 c-14 5 -34
11 -44 13 -30 6 -32 29 -2 29 14 0 26 -4 26 -8 0 -8 14 -16 63 -40 4 -2 7 4 7
13 0 11 -5 15 -14 12 -12 -5 -76 47 -76 62 0 6 -35 10 -92 10 -39 1 -40 14 -3
32 30 14 33 14 27 0 -5 -13 -3 -14 9 -5 8 7 26 10 42 8 15 -1 27 2 27 7 0 5
-6 9 -12 10 -127 5 -154 33 -31 31 43 0 62 2 53 8 -25 15 -2 23 62 23 35 0 69
4 76 10 8 6 12 6 12 -2 0 -7 6 -11 13 -10 6 2 27 -1 45 -5 25 -6 32 -13 32
-31 0 -13 5 -27 10 -30 6 -4 8 -10 6 -14 -3 -4 13 -18 34 -31 21 -13 45 -37
54 -54 14 -27 15 -28 11 -6 l-6 25 19 -22 19 -22 -2 47 c-2 26 -4 57 -4 70 -1
26 -21 30 -21 5 0 -14 -6 -12 -25 11 -14 16 -25 35 -25 43 0 7 -4 13 -9 13 -8
0 -24 49 -22 65 3 15 -59 105 -73 105 -3 0 -6 -7 -6 -16 0 -10 -7 -14 -22 -12
-27 4 -36 28 -11 29 10 0 3 5 -14 10 -40 11 -41 21 -8 39 27 14 31 25 15 35
-5 3 -10 19 -10 35 0 16 -4 32 -10 35 -5 3 -10 14 -10 24 0 9 -14 31 -31 48
-27 28 -29 34 -17 52 7 12 16 21 20 21 5 0 8 6 8 13 0 10 12 13 38 11 20 -1
45 -2 54 -3 10 -1 25 -9 35 -19 10 -10 36 -24 58 -31 22 -8 56 -26 75 -41 19
-15 50 -35 68 -46 31 -18 34 -18 46 -3 10 15 16 15 44 3 18 -7 32 -10 32 -7 0
24 -105 188 -150 234 -75 78 -148 101 -305 100 -65 -1 -106 2 -100 7 14 13
122 32 140 26 25 -10 68 5 61 22 -4 11 0 13 22 8 15 -4 35 -11 45 -16 13 -7
17 -4 17 12 0 13 4 18 11 15 14 -10 89 -13 89 -4 0 3 -14 32 -31 64 -29 55
-32 91 -7 83 7 -3 13 -11 13 -19 0 -9 9 -24 19 -35 19 -19 19 -18 12 11 -4 17
-16 37 -26 47 -24 19 -25 28 -5 28 8 0 15 -5 15 -11z m-4406 -22 c-3 -8 9 -18
31 -27 51 -20 37 -35 -33 -35 -71 -1 -78 10 -31 49 34 29 41 32 33 13z m276 9
c0 -3 -4 -8 -10 -11 -5 -3 -10 -1 -10 4 0 6 5 11 10 11 6 0 10 -2 10 -4z m-62
-53 c-7 -16 -13 -29 -14 -31 -1 -2 -15 3 -30 11 -27 14 -27 14 -6 26 19 10 21
9 16 -6 -4 -14 -1 -13 13 4 25 31 35 28 21 -4z m1968 14 c53 -28 104 -95 104
-136 0 -22 -14 -28 -25 -11 -3 5 -21 7 -40 5 -25 -4 -37 0 -44 13 -15 25 -13
11 4 -38 22 -61 20 -70 -17 -71 -31 -2 -31 -2 7 -8 l40 -7 -45 -8 c-66 -11
-219 -12 -262 -2 -35 7 -38 6 -47 -17 -9 -22 -16 -25 -55 -25 -25 0 -48 4 -51
8 -3 5 -17 5 -32 -1 -14 -5 -27 -8 -28 -7 -1 2 -13 35 -25 73 -29 89 -55 141
-87 173 -14 13 -21 28 -16 33 15 15 229 34 414 37 142 3 182 1 205 -11z
m-2046 -23 c0 -8 -5 -12 -10 -9 -6 4 -8 11 -5 16 9 14 15 11 15 -7z m-2916
-59 c-38 -34 -54 -42 -54 -28 0 16 55 63 74 63 16 0 12 -7 -20 -35z m1860 19
c8 -22 8 -24 -8 -24 -15 0 -28 24 -19 34 11 10 21 7 27 -10z m573 -17 c22 -2
46 0 51 5 16 16 51 -1 68 -34 8 -16 13 -33 9 -36 -3 -3 -25 -5 -49 -3 -34 2
-47 -2 -55 -16 -6 -10 -11 -12 -11 -5 0 21 -20 13 -30 -13 -12 -31 -24 -33
-17 -2 4 14 -1 31 -14 47 l-21 25 7 -28 c3 -18 2 -26 -4 -23 -10 6 -13 84 -4
99 3 4 10 4 16 -1 7 -5 31 -12 54 -15z m4558 3 c3 -5 1 -10 -4 -10 -6 0 -11 5
-11 10 0 6 2 10 4 10 3 0 8 -4 11 -10z m-5170 -19 c3 -5 1 -12 -5 -16 -5 -3
-10 1 -10 9 0 18 6 21 15 7z m-1320 -20 c-6 -4 -23 -12 -40 -15 -29 -7 -29 -7
-10 8 21 16 66 23 50 7z m2802 -9 c-10 -10 -16 -29 -16 -43 1 -17 3 -19 6 -6
2 9 8 15 13 12 4 -3 7 3 6 13 -1 13 6 16 34 13 19 -1 41 -8 48 -13 6 -6 12 -7
12 -3 0 4 7 2 15 -5 10 -8 15 -9 15 -1 0 18 45 7 50 -12 5 -18 7 -18 32 3 25
19 32 20 61 9 26 -9 42 -9 68 0 23 8 35 8 37 1 5 -14 29 -13 34 2 8 22 268 12
268 -11 0 -4 -9 -17 -21 -30 -12 -12 -22 -33 -23 -47 -1 -16 -7 -24 -19 -24
-10 0 -16 -4 -13 -9 10 -16 -19 -19 -39 -5 -24 17 -36 18 -29 1 2 -7 -5 -23
-16 -35 -17 -18 -25 -20 -41 -11 -39 20 -106 36 -140 32 -26 -2 -29 -1 -14 5
16 7 8 11 -35 16 -75 10 -249 12 -282 3 -27 -7 -28 -6 -29 30 l-1 38 -10 -38
c-7 -26 -15 -37 -24 -33 -8 3 -14 -1 -14 -10 0 -8 -5 -12 -10 -9 -14 9 -3 65
20 97 11 15 20 31 20 35 0 15 31 53 42 53 6 0 4 -8 -5 -18z m-3730 -64 c-3 -7
-5 -2 -5 12 0 14 2 19 5 13 2 -7 2 -19 0 -25z m780 10 c-2 -7 -11 -12 -21 -10
-9 2 -16 -2 -16 -8 0 -6 -5 -8 -10 -5 -8 5 -7 11 1 21 14 17 52 19 46 2z
m4665 -14 c9 -19 18 -24 35 -21 14 3 23 -1 23 -8 0 -7 -16 -15 -35 -17 -36 -4
-35 -6 -51 55 -8 27 15 20 28 -9z m-4837 -34 c-3 -5 -12 -10 -18 -10 -7 0 -6
4 3 10 19 12 23 12 15 0z m2115 -22 c0 -5 -4 -8 -10 -8 -5 0 -10 10 -10 23 0
18 2 19 10 7 5 -8 10 -18 10 -22z m-2722 -67 c1 14 9 34 18 45 11 14 14 15 11
3 -3 -9 -8 -42 -13 -75 -6 -54 -6 -58 10 -45 9 7 16 19 16 26 0 7 7 16 16 19
17 7 17 12 -3 -104 -5 -34 -5 -35 14 -17 26 23 36 22 21 -2 -7 -11 -20 -22
-29 -24 -15 -4 -17 -14 -14 -55 3 -28 0 -54 -5 -57 -6 -3 -10 -1 -10 4 0 6 -5
11 -11 11 -5 0 -7 -4 -4 -10 3 -5 2 -10 -4 -10 -27 0 -51 220 -35 326 l8 59 7
-60 c3 -33 6 -48 7 -34z m562 75 c0 -3 -4 -8 -10 -11 -5 -3 -10 -1 -10 4 0 6
5 11 10 11 6 0 10 -2 10 -4z m2980 -10 c0 -11 -19 -15 -25 -6 -3 5 1 10 9 10
9 0 16 -2 16 -4z m-13 -32 c-3 -3 -12 -4 -19 -1 -8 3 -5 6 6 6 11 1 17 -2 13
-5z m-3107 -24 c-20 -13 -33 -13 -25 0 3 6 14 10 23 10 15 0 15 -2 2 -10z
m2490 -22 c0 -19 -2 -20 -10 -8 -13 19 -13 30 0 30 6 0 10 -10 10 -22z m-2641
-20 c10 -25 -3 -48 -25 -48 -8 0 -14 -4 -14 -8 0 -9 -60 -46 -65 -40 -7 7 7
48 17 48 5 0 6 -6 2 -12 -4 -7 -5 -11 -1 -8 3 3 6 10 7 15 3 17 22 35 31 29 5
-2 11 7 15 21 8 31 22 32 33 3z m490 6 c2 -2 -4 -7 -13 -10 -11 -4 -24 0 -34
10 -16 16 -15 17 13 10 17 -4 32 -8 34 -10z m2121 -27 c0 -5 -4 -5 -10 -2 -5
3 -10 14 -10 23 0 15 2 15 10 2 5 -8 10 -19 10 -23z m94 17 c3 -8 2 -12 -4 -9
-6 3 -10 10 -10 16 0 14 7 11 14 -7z m-5 -51 c12 -24 19 -43 16 -43 -5 0 -45
75 -45 86 0 11 6 2 29 -43z m-135 -15 c20 -29 45 -64 57 -78 17 -20 16 -16 -5
22 -14 26 -26 50 -26 54 0 10 60 -67 77 -99 8 -16 17 -27 19 -24 3 3 -8 29
-25 59 -49 87 -36 81 16 -7 30 -51 48 -74 51 -63 2 11 9 15 19 11 14 -5 15 -1
10 28 -6 30 -4 28 24 -21 16 -30 34 -59 39 -64 15 -15 12 -23 -12 -29 -12 -4
-29 -1 -37 6 -12 10 -13 8 -7 -18 7 -29 7 -29 -13 -11 -14 13 -21 15 -21 6 0
-10 -5 -9 -18 3 -10 10 -23 17 -28 17 -5 0 -33 39 -63 87 -30 47 -68 101 -84
119 -16 19 -26 38 -22 44 10 15 11 14 49 -42z m112 -14 c20 -36 34 -68 31 -71
-3 -3 -22 27 -41 66 -20 39 -34 71 -32 71 3 0 22 -29 42 -66z m54 21 c0 -5 -5
-3 -10 5 -5 8 -10 20 -10 25 0 6 5 3 10 -5 5 -8 10 -19 10 -25z m4175 -15 c-3
-5 -21 -12 -40 -16 -19 -3 -35 -9 -35 -13 0 -4 -19 -7 -41 -8 -57 -3 -41 9 39
28 84 21 84 21 77 9z m-4115 -73 c0 -5 -4 -5 -10 -2 -5 3 -10 14 -10 23 0 15
2 15 10 2 5 -8 10 -19 10 -23z m-235 -22 c24 -25 47 -54 50 -65 7 -22 -14 -73
-30 -73 -5 0 -26 28 -45 61 -19 34 -45 72 -57 86 -24 27 -21 36 14 36 15 0 40
-17 68 -45z m2435 25 c0 -5 -2 -10 -4 -10 -3 0 -8 5 -11 10 -3 6 -1 10 4 10 6
0 11 -4 11 -10z m80 6 c0 -8 -61 -12 -66 -4 -3 4 11 8 30 8 20 0 36 -2 36 -4z
m-170 -10 c0 -8 -61 -12 -66 -4 -3 4 11 8 30 8 20 0 36 -2 36 -4z m-100 -10
c0 -2 -11 -6 -25 -8 -14 -3 -25 -1 -25 3 0 5 11 9 25 9 14 0 25 -2 25 -4z
m-1953 -69 c8 -16 12 -32 8 -35 -9 -9 -32 19 -49 62 l-16 39 21 -19 c11 -10
28 -32 36 -47z m4108 -16 c5 -12 15 -21 21 -21 6 0 25 -7 42 -16 37 -18 54
-39 26 -31 -11 4 -32 9 -49 12 -27 6 -28 5 -12 -8 24 -19 4 -27 -48 -18 -36 6
-40 9 -42 40 -2 19 -10 45 -18 57 -8 13 -15 28 -15 33 0 17 84 -26 95 -48z
m-6796 -51 c-42 -69 -48 -58 -7 14 18 31 34 53 36 47 2 -5 -11 -32 -29 -61z
m-311 34 c0 -18 -3 -22 -9 -13 -11 18 -11 39 0 39 5 0 9 -12 9 -26z m147 -30
c-17 -58 -22 -63 -31 -30 -5 21 -1 33 17 52 12 13 24 24 25 24 2 0 -3 -21 -11
-46z m-145 -14 c0 -5 -4 -10 -10 -10 -5 0 -10 5 -10 10 0 6 5 10 10 10 6 0 10
-4 10 -10z m5435 0 c-3 -5 -12 -10 -18 -10 -7 0 -6 4 3 10 19 12 23 12 15 0z
m-3755 -21 c0 -6 -4 -7 -10 -4 -5 3 -10 11 -10 16 0 6 5 7 10 4 6 -3 10 -11
10 -16z m5271 -14 c0 -5 -18 -10 -38 -11 l-38 -2 30 14 c32 14 47 14 46 -1z
m176 -11 c-3 -3 -12 -4 -19 -1 -8 3 -5 6 6 6 11 1 17 -2 13 -5z m-6863 -31
c-7 -33 -39 -69 -47 -56 -6 9 38 83 49 83 2 0 1 -12 -2 -27z m2711 -123 c3 -5
1 -10 -4 -10 -6 0 -11 5 -11 10 0 6 2 10 4 10 3 0 8 -4 11 -10z m2284 -6 c8
-8 -95 -2 -119 6 -15 5 2 6 45 3 39 -3 72 -7 74 -9z m-54 -14 c54 -7 51 -8
-37 -7 -54 1 -98 5 -98 10 0 9 54 8 135 -3z m92 -16 c-3 -3 -12 -4 -19 -1 -8
3 -5 6 6 6 11 1 17 -2 13 -5z m-330 -10 c-3 -3 -12 -4 -19 -1 -8 3 -5 6 6 6
11 1 17 -2 13 -5z m56 -1 c-7 -2 -21 -2 -30 0 -10 3 -4 5 12 5 17 0 24 -2 18
-5z m247 -4 c16 -5 -22 -7 -100 -4 -145 5 -146 -2 -4 -14 l99 -9 -121 2 c-112
1 -120 2 -110 19 9 14 26 17 111 16 55 -1 111 -5 125 -10z m-325 -19 c-3 -5
-13 -10 -21 -10 -8 0 -12 5 -9 10 3 6 13 10 21 10 8 0 12 -4 9 -10z m58 3 c-7
-2 -21 -2 -30 0 -10 3 -4 5 12 5 17 0 24 -2 18 -5z m312 -23 c3 -5 1 -10 -4
-10 -6 0 -11 5 -11 10 0 6 2 10 4 10 3 0 8 -4 11 -10z m-182 -7 c-18 -2 -48
-2 -65 0 -18 2 -4 4 32 4 36 0 50 -2 33 -4z m-95 -45 c36 -1 35 -1 -8 -7 -36
-5 -44 -10 -42 -24 3 -15 -2 -17 -25 -11 -36 9 -42 14 -16 14 12 0 25 11 33
28 7 15 15 22 17 15 3 -7 21 -14 41 -15z m55 15 c-7 -2 -19 -2 -25 0 -7 3 -2
5 12 5 14 0 19 -2 13 -5z m70 0 c-7 -2 -19 -2 -25 0 -7 3 -2 5 12 5 14 0 19
-2 13 -5z m120 0 c-13 -2 -33 -2 -45 0 -13 2 -3 4 22 4 25 0 35 -2 23 -4z
m-326 -9 c-3 -3 -12 -4 -19 -1 -8 3 -5 6 6 6 11 1 17 -2 13 -5z m-64 -11 c-7
-2 -19 -2 -25 0 -7 3 -2 5 12 5 14 0 19 -2 13 -5z m334 1 c-3 -3 -12 -4 -19
-1 -8 3 -5 6 6 6 11 1 17 -2 13 -5z m-270 -10 c-3 -3 -12 -4 -19 -1 -8 3 -5 6
6 6 11 1 17 -2 13 -5z m170 0 c-3 -3 -12 -4 -19 -1 -8 3 -5 6 6 6 11 1 17 -2
13 -5z m-234 -11 c-7 -2 -19 -2 -25 0 -7 3 -2 5 12 5 14 0 19 -2 13 -5z m290
-10 c-7 -2 -19 -2 -25 0 -7 3 -2 5 12 5 14 0 19 -2 13 -5z m70 0 c-7 -2 -21
-2 -30 0 -10 3 -4 5 12 5 17 0 24 -2 18 -5z m577 -2 c0 -5 9 -7 20 -4 15 4 19
2 14 -10 -3 -9 -13 -18 -22 -22 -14 -5 -14 -7 -2 -15 13 -9 13 -10 0 -10 -20
0 -41 35 -34 55 7 16 24 21 24 6z m-767 -8 c-13 -2 -33 -2 -45 0 -13 2 -3 4
22 4 25 0 35 -2 23 -4z m-1925 -32 c17 -5 39 -17 48 -26 15 -15 14 -15 -10 -9
-35 9 -104 44 -86 44 9 0 30 -4 48 -9z m3872 -1 c0 -5 -4 -10 -10 -10 -5 0
-10 5 -10 10 0 6 5 10 10 10 6 0 10 -4 10 -10z m-1833 -47 c9 -21 30 -83 48
-137 25 -79 28 -95 13 -77 -13 17 -22 21 -31 13 -13 -11 -14 -5 -20 83 -2 47
-17 59 -57 50 -19 -4 -30 -3 -30 4 0 6 11 11 25 11 14 0 25 6 25 13 0 23 -11
27 -36 10 -27 -17 -54 -11 -54 12 0 9 -4 13 -10 10 -5 -3 -10 -17 -10 -31 0
-18 5 -24 23 -25 21 0 21 -1 2 -8 -24 -10 -187 -33 -192 -27 -2 2 -5 22 -6 45
-2 32 1 40 11 36 10 -3 12 0 9 10 -7 16 49 37 81 30 68 -13 132 -16 132 -7 0
6 -26 13 -57 15 -45 2 -38 4 30 5 l88 2 16 -37z m1813 18 c0 -5 7 -8 16 -7 9
0 19 -4 21 -11 3 -8 -8 -11 -31 -10 -33 2 -45 14 -29 30 9 10 23 9 23 -2z
m-3860 -47 c0 -2 -7 -4 -15 -4 -8 0 -15 4 -15 10 0 5 7 7 15 4 8 -4 15 -8 15
-10z m-409 -27 c24 -19 99 -122 99 -137 0 -9 -3 -10 -13 -1 -8 6 -16 8 -20 5
-3 -3 -13 8 -21 25 -9 16 -32 46 -52 65 -20 19 -33 40 -29 45 8 14 16 13 36
-2z m459 -17 c12 -8 9 -10 -12 -10 -16 0 -28 5 -28 10 0 13 20 13 40 0z m3949
-64 c9 -10 9 -16 1 -21 -12 -7 -40 11 -40 26 0 14 26 10 39 -5z m-3909 -91 c0
-8 -6 -15 -14 -15 -7 0 -19 7 -26 15 -11 13 -8 15 14 15 16 0 26 -5 26 -15z
m3690 11 c0 -2 -7 -7 -16 -10 -8 -3 -12 -2 -9 4 6 10 25 14 25 6z m69 -38 c31
-33 38 -48 24 -48 -12 0 -75 80 -64 80 5 0 24 -15 40 -32z m-1619 2 c0 -5 -2
-10 -4 -10 -3 0 -8 5 -11 10 -3 6 -1 10 4 10 6 0 11 -4 11 -10z m-132 -20 c12
-12 22 -24 22 -28 0 -4 22 -8 49 -9 44 -2 50 0 54 20 3 16 5 13 6 -10 0 -17
-3 -35 -9 -38 -19 -12 -93 -10 -98 3 -2 7 -22 13 -45 13 -28 1 -33 3 -17 6 33
6 51 23 24 23 -13 0 -20 7 -21 20 -2 25 8 25 35 0z m-2822 -32 l17 -33 -25 23
c-13 12 -31 22 -39 22 -12 0 -12 2 1 10 23 15 28 12 46 -22z m2574 28 c0 -2
-9 -6 -20 -9 -11 -3 -20 -1 -20 4 0 5 9 9 20 9 11 0 20 -2 20 -4z m320 0 c0
-3 -4 -8 -10 -11 -5 -3 -10 -1 -10 4 0 6 5 11 10 11 6 0 10 -2 10 -4z m-242
-53 c-10 -2 -26 -2 -35 0 -10 3 -2 5 17 5 19 0 27 -2 18 -5z m55 0 c-7 -2 -19
-2 -25 0 -7 3 -2 5 12 5 14 0 19 -2 13 -5z m86 -77 c-2 -2 -58 -6 -124 -9
l-120 -5 120 12 c114 11 134 11 124 2z m128 -106 c12 0 25 -5 28 -11 9 -13
-64 -1 -84 15 -12 9 -13 8 -8 -6 4 -12 0 -19 -14 -23 -27 -9 -39 4 -16 16 9 6
17 16 17 24 0 12 4 12 28 -1 15 -7 37 -14 49 -14z m-2757 -35 c0 -5 -5 -3 -10
5 -5 8 -10 20 -10 25 0 6 5 3 10 -5 5 -8 10 -19 10 -25z m2725 -15 c-3 -5 -2
-18 4 -28 7 -14 6 -18 -9 -19 -12 -1 -17 3 -14 13 2 8 6 21 9 29 2 8 7 15 10
15 4 0 3 -4 0 -10z m50 -10 c11 -17 -5 -32 -21 -19 -7 6 -11 15 -8 20 7 12 21
11 29 -1z m-60 -90 c0 -23 -3 -25 -35 -22 -43 5 -43 5 -35 32 5 17 13 20 38
18 27 -2 32 -7 32 -28z m1296 -27 c24 -12 28 -18 18 -29 -15 -18 -35 -18 -43
1 -8 23 -40 18 -67 -11 -22 -23 -24 -24 -36 -8 -11 15 -9 22 14 46 30 31 53
31 114 1z m-5394 -5 c-3 -8 -6 -5 -6 6 -1 11 2 17 5 13 3 -3 4 -12 1 -19z
m2343 -29 c0 -5 -5 -9 -11 -9 -7 0 -10 -12 -7 -30 3 -17 1 -27 -4 -22 -4 4 -9
24 -10 45 -2 20 -6 37 -9 37 -4 0 -10 7 -13 16 -4 11 2 10 24 -6 17 -12 30
-26 30 -31z m1864 -89 c4 -50 3 -68 -4 -53 -5 12 -11 61 -14 110 -7 107 9 58
18 -57z m-49 32 c-9 -9 -26 41 -19 56 5 13 9 8 15 -18 4 -19 6 -36 4 -38z
m1075 32 c-6 -16 -14 -31 -18 -34 -4 -3 -15 -22 -24 -42 -16 -34 -48 -53 -48
-28 0 6 3 10 8 10 4 0 13 15 21 33 16 37 61 100 67 94 3 -2 0 -17 -6 -33z
m299 -43 c18 -17 36 -31 40 -31 5 0 51 -38 107 -90 12 -11 26 -20 32 -20 10 0
26 -29 24 -42 -1 -5 7 -8 17 -8 17 0 18 4 11 30 -5 16 -11 34 -15 40 -6 10 12
70 21 70 3 0 12 -4 22 -9 9 -5 34 -16 55 -25 20 -8 37 -22 37 -31 0 -8 3 -15
8 -15 12 0 62 -86 62 -106 -1 -18 -2 -18 -13 -2 -15 19 -34 11 -39 -17 -2 -17
2 -19 25 -17 19 3 27 -1 27 -12 0 -9 -4 -16 -8 -16 -12 0 -35 -76 -38 -125 -2
-22 -3 -48 -4 -57 -2 -22 -29 -46 -31 -27 -1 8 -1 18 0 22 1 5 -3 6 -9 2 -7
-4 -7 -12 0 -26 6 -11 16 -16 22 -13 7 5 9 2 5 -9 -3 -9 -2 -19 3 -22 6 -4 10
-11 10 -16 0 -6 -4 -7 -10 -4 -6 3 -7 -1 -4 -9 3 -9 1 -16 -5 -16 -6 0 -8 -6
-5 -14 9 -23 -11 -26 -25 -4 -7 11 -8 17 -2 13 18 -11 12 28 -9 55 -22 29 -26
45 -7 34 6 -4 9 -4 5 0 -4 5 -2 20 3 35 7 18 7 38 -1 66 -7 22 -14 46 -16 52
-5 18 -73 -28 -74 -49 0 -10 -5 -18 -10 -18 -6 0 -8 12 -5 28 6 26 6 26 -9 8
-21 -26 -20 -33 5 -41 13 -4 18 -12 15 -21 -3 -9 -1 -12 4 -9 14 9 12 -19 -2
-33 -7 -7 -8 -12 -2 -12 5 0 16 9 23 19 15 20 41 18 41 -3 0 -7 -7 -21 -16
-32 -15 -18 -15 -18 -5 3 13 26 14 33 3 33 -5 0 -14 -11 -20 -25 -10 -21 -9
-26 7 -35 14 -7 21 -6 24 3 2 6 8 9 12 4 5 -4 4 -12 -2 -18 -13 -13 1 -47 24
-62 7 -4 10 -14 6 -22 -4 -11 -13 -3 -33 28 -15 24 -47 58 -71 77 -63 49 -71
59 -64 70 4 6 1 9 -7 8 -7 -2 -14 7 -16 19 -2 17 1 21 11 17 8 -3 18 -1 22 5
3 7 -2 11 -14 11 -11 0 -25 -8 -31 -17 -8 -13 -13 -14 -16 -5 -3 6 -12 12 -19
12 -8 0 -24 10 -37 23 -13 13 -27 25 -33 27 -5 3 -9 9 -7 13 1 5 -2 6 -8 2 -6
-4 -39 11 -73 33 -70 44 -158 87 -171 84 -5 -2 -16 4 -26 13 -9 8 -19 12 -22
9 -4 -3 -17 0 -30 7 -12 7 -36 13 -53 13 -24 1 -29 5 -27 21 2 11 8 25 14 30
7 7 8 3 3 -12 -4 -15 -2 -23 5 -23 7 0 14 8 17 19 3 11 14 19 26 19 12 0 34 2
50 5 23 4 27 1 27 -19 0 -13 5 -24 11 -24 5 0 8 4 4 9 -3 5 -1 12 5 16 6 3 13
-1 16 -10 6 -14 10 -13 41 5 49 29 56 26 48 -19 -8 -46 9 -64 26 -28 9 19 7
31 -5 55 -14 27 -14 38 -4 77 7 25 18 45 26 45 7 0 10 5 7 10 -4 6 -11 7 -17
4 -7 -5 -9 -1 -5 9 3 9 2 19 -3 22 -15 9 -12 25 5 25 9 0 12 6 8 16 -8 23 62
-14 106 -55z m-3118 -23 c8 -15 8 -18 0 -14 -6 4 -16 16 -22 28 -8 15 -8 18 0
14 6 -4 16 -16 22 -28z m3605 -5 c-4 -8 -1 -11 5 -8 6 4 13 -2 16 -14 3 -11 9
-18 14 -15 12 7 60 -26 53 -37 -13 -22 9 -28 26 -7 10 13 2 -11 -17 -53 -20
-42 -42 -76 -49 -76 -8 0 -14 4 -14 9 0 16 -15 8 -25 -14 -14 -31 -41 -46 -56
-31 -10 10 -9 17 6 33 15 16 15 21 3 25 -10 4 -13 20 -12 55 2 28 -2 65 -7 83
-6 21 -6 33 1 35 6 2 8 8 4 13 -3 5 2 9 10 9 9 0 16 4 16 10 0 5 7 7 16 3 8
-3 13 -12 10 -20z m-3656 -18 c12 -19 20 -40 18 -46 -2 -5 -13 10 -26 35 -26
55 -22 60 8 11z m165 -85 c22 -10 36 -19 30 -19 -5 -1 -16 -5 -24 -10 -12 -8
-12 -12 -2 -25 7 -8 11 -21 8 -28 -3 -7 -14 8 -26 35 -12 26 -26 47 -31 47 -6
0 -10 5 -10 10 0 13 8 12 55 -10z m1639 -3 c13 -9 17 -23 14 -51 l-3 -38 -32
28 c-25 22 -31 34 -27 52 7 25 22 28 48 9z m-1914 -209 c40 -62 79 -123 86
-135 16 -26 19 -83 4 -83 -5 0 -19 17 -30 37 -11 21 -28 49 -39 63 -10 14 -43
68 -73 120 -54 92 -61 119 -48 180 0 3 7 -12 14 -32 7 -21 46 -88 86 -150z
m220 126 c0 -3 -7 -1 -15 6 -8 7 -15 17 -15 22 0 5 7 3 15 -6 8 -8 15 -18 15
-22z m-917 -24 c8 -29 0 -24 -19 13 -14 27 -15 30 -2 19 9 -7 18 -22 21 -32z
m3022 -45 c12 -36 18 -70 14 -77 -11 -18 -22 -3 -22 32 0 16 -4 30 -9 30 -4 0
-8 10 -8 23 0 13 -5 28 -11 34 -6 6 -8 16 -4 23 10 17 16 7 40 -65z m-1985 35
c-19 -13 -30 -13 -30 0 0 6 10 10 23 10 18 0 19 -2 7 -10z m-84 -62 c-10 -6
-20 -7 -24 -3 -9 8 20 25 31 18 5 -3 2 -10 -7 -15z m180 -84 c33 -14 36 -17
20 -26 -22 -12 -46 -4 -46 17 0 8 -5 15 -11 15 -5 0 -7 -4 -4 -10 3 -5 2 -10
-3 -10 -6 0 -12 7 -16 15 -7 19 12 19 60 -1z m1914 -4 c0 -5 -5 -10 -11 -10
-5 0 -7 5 -4 10 3 6 8 10 11 10 2 0 4 -4 4 -10z m-1490 -93 c-1 -13 -26 16
-41 48 -7 13 -1 10 15 -8 14 -15 26 -33 26 -40z m1554 -64 c5 -14 3 -23 -3
-23 -6 0 -11 7 -11 15 0 8 -9 30 -19 49 -11 19 -17 37 -13 40 6 7 34 -42 46
-81z m-1925 32 c24 -25 42 -45 40 -45 -11 0 -72 50 -86 69 -25 36 0 23 46 -24z
m2385 -1 c-3 -21 -32 -26 -57 -9 -32 20 -36 40 -7 32 11 -3 20 -1 20 5 0 6 10
4 23 -4 12 -9 21 -19 21 -24z m-2144 -22 c0 -9 -4 -24 -10 -32 -7 -12 -12 -12
-29 4 l-20 18 22 18 c24 20 37 17 37 -8z m460 -37 c51 -26 100 -122 71 -139
-18 -11 -50 13 -57 42 -11 48 -47 92 -74 92 -20 0 -22 2 -10 10 21 13 36 12
70 -5z m-1001 -24 c12 -16 21 -34 21 -40 0 -6 4 -11 8 -11 5 0 19 -19 32 -42
l23 -43 -31 29 c-18 17 -32 34 -32 39 0 4 -11 23 -24 40 -33 45 -39 57 -27 57
5 0 19 -13 30 -29z m255 14 c3 -8 1 -15 -4 -15 -6 0 -10 7 -10 15 0 8 2 15 4
15 2 0 6 -7 10 -15z m149 -74 c10 -11 8 -13 -12 -6 -22 7 -61 39 -61 51 0 8
59 -29 73 -45z m1955 2 c-10 -2 -28 -2 -40 0 -13 2 -5 4 17 4 22 1 32 -1 23
-4z m-2328 -95 c0 -4 -11 -8 -24 -8 -29 0 -60 38 -46 55 5 7 7 16 3 21 -4 5 9
-7 30 -25 20 -19 37 -39 37 -43z m373 37 c43 -41 44 -45 17 -45 -12 0 -25 10
-32 25 -6 14 -15 25 -19 25 -4 0 -9 7 -13 15 -9 24 6 17 47 -20z m-1016 -37
c-3 -7 -5 -2 -5 12 0 14 2 19 5 13 2 -7 2 -19 0 -25z"/>
<path d="M3955 8650 c-19 -8 -19 -9 3 -9 12 -1 22 4 22 9 0 6 -1 10 -2 9 -2 0
-12 -4 -23 -9z"/>
<path d="M3761 8629 c-35 -4 -72 -16 -82 -25 -25 -23 -17 -30 13 -10 13 8 48
18 78 22 30 3 80 10 110 14 l55 8 -55 0 c-30 -1 -84 -4 -119 -9z"/>
<path d="M4105 8460 c-3 -5 -16 -10 -28 -10 -22 -1 -22 -1 -2 -16 16 -12 17
-16 6 -23 -19 -12 -2 -18 48 -17 39 1 44 4 46 24 1 13 -6 27 -17 33 -20 11
-24 -1 -7 -18 8 -8 8 -13 0 -17 -18 -12 -33 5 -27 30 6 24 -7 33 -19 14z"/>
<path d="M5470 7068 c0 -15 5 -30 10 -33 13 -8 13 25 0 45 -8 12 -10 9 -10
-12z"/>
<path d="M5530 7041 c0 -5 5 -13 10 -16 6 -3 10 -2 10 4 0 5 -4 13 -10 16 -5
3 -10 2 -10 -4z"/>
<path d="M5490 6982 c0 -23 5 -42 11 -42 6 0 8 14 4 37 -8 52 -15 54 -15 5z"/>
<path d="M5598 6863 c6 -2 10 -9 7 -14 -4 -5 1 -6 9 -3 24 9 19 24 -6 23 -13
0 -17 -3 -10 -6z"/>
<path d="M6150 6850 c0 -5 5 -10 10 -10 6 0 10 5 10 10 0 6 -4 10 -10 10 -5 0
-10 -4 -10 -10z"/>
<path d="M5536 6827 c3 -10 9 -15 12 -12 3 3 0 11 -7 18 -10 9 -11 8 -5 -6z"/>
<path d="M7304 5860 c15 -74 27 -206 22 -238 -25 -167 -25 -176 -3 -199 21
-24 71 -31 82 -12 4 6 1 10 -6 8 -49 -6 -49 -7 -49 135 0 130 -20 283 -41 316
-8 11 -9 9 -5 -10z"/>
<path d="M5340 5830 c0 -5 5 -10 10 -10 6 0 10 5 10 10 0 6 -4 10 -10 10 -5 0
-10 -4 -10 -10z"/>
<path d="M5233 5800 c-10 -27 -9 -30 9 -30 15 0 18 4 13 21 -5 14 -3 19 3 15
6 -3 13 -2 16 3 5 7 -14 21 -28 21 -1 0 -7 -13 -13 -30z"/>
<path d="M5568 5665 c-3 -3 2 -21 10 -40 12 -25 26 -38 52 -46 19 -7 63 -26
97 -44 35 -18 96 -41 138 -51 l75 -18 25 24 c33 31 32 38 -12 46 -21 4 -63 19
-94 35 -57 28 -252 99 -273 99 -7 0 -15 -2 -18 -5z"/>
<path d="M6130 5600 c0 -5 6 -10 13 -11 6 0 -4 -7 -23 -15 -34 -13 -34 -14 -5
-9 17 2 53 7 80 11 l50 7 -50 13 c-61 16 -65 17 -65 4z"/>
<path d="M5948 5333 c-14 -16 -34 -41 -43 -58 -23 -38 -86 -105 -94 -100 -4 2
-22 -10 -41 -25 -27 -22 -32 -31 -23 -41 9 -9 18 -8 38 5 14 9 31 14 37 10 7
-5 8 -3 3 5 -4 8 3 23 18 39 14 15 42 54 62 86 21 33 49 70 63 83 14 13 21 23
15 23 -5 0 -21 -12 -35 -27z"/>
<path d="M5682 5156 c1 -10 8 -17 13 -17 15 1 12 24 -3 29 -9 3 -13 -2 -10
-12z"/>
<path d="M5617 5120 c-14 -11 -29 -20 -34 -20 -5 0 -18 -7 -29 -15 -19 -15
-19 -15 1 -8 23 8 26 11 -69 -99 -32 -38 -52 -68 -44 -68 7 0 32 21 53 47 22
27 69 78 104 115 61 66 70 89 18 48z"/>
<path d="M5148 5083 c6 -2 18 -2 25 0 6 3 1 5 -13 5 -14 0 -19 -2 -12 -5z"/>
<path d="M5198 5073 c7 -3 16 -2 19 1 4 3 -2 6 -13 5 -11 0 -14 -3 -6 -6z"/>
<path d="M5783 5036 c-11 -36 -11 -38 3 -24 9 8 14 26 12 39 -2 20 -5 18 -15
-15z"/>
<path d="M5340 4946 c0 -2 7 -7 16 -10 8 -3 12 -2 9 4 -6 10 -25 14 -25 6z"/>
<path d="M7490 5339 c0 -5 5 -7 10 -4 6 3 10 8 10 11 0 2 -4 4 -10 4 -5 0 -10
-5 -10 -11z"/>
<path d="M5925 5090 c-3 -5 -1 -10 4 -10 6 0 11 5 11 10 0 6 -2 10 -4 10 -3 0
-8 -4 -11 -10z"/>
<path d="M6700 5000 c0 -5 7 -7 15 -4 8 4 15 8 15 10 0 2 -7 4 -15 4 -8 0 -15
-4 -15 -10z"/>
<path d="M7420 4966 c-6 -9 -10 -21 -8 -28 3 -8 9 -4 17 10 15 28 9 39 -9 18z"/>
<path d="M6540 4906 c0 -2 7 -9 15 -16 13 -11 14 -10 9 4 -5 14 -24 23 -24 12z"/>
<path d="M6123 4797 c-48 -33 -43 -48 17 -46 50 3 67 16 30 26 -16 4 -18 9 -9
24 12 24 2 23 -38 -4z"/>
<path d="M7356 4787 c3 -10 9 -15 12 -12 3 3 0 11 -7 18 -10 9 -11 8 -5 -6z"/>
<path d="M6493 4715 c25 -22 28 -31 28 -90 1 -37 5 -65 11 -65 6 0 8 6 5 14
-3 8 7 31 23 53 20 26 30 50 30 76 0 41 -2 42 -30 25 -16 -10 -24 -10 -40 0
-11 6 -28 12 -37 12 -15 -1 -13 -5 10 -25z"/>
<path d="M7171 4694 c33 -71 59 -104 59 -74 0 6 -4 10 -9 10 -5 0 -14 14 -21
30 -7 17 -17 33 -23 37 -5 3 -8 2 -6 -3z"/>
<path d="M7410 4450 c0 -5 5 -10 11 -10 5 0 7 5 4 10 -3 6 -8 10 -11 10 -2 0
-4 -4 -4 -10z"/>
<path d="M7474 4385 c-18 -14 -18 -14 9 -15 15 0 27 4 27 9 0 18 -17 20 -36 6z"/>
<path d="M5705 4265 c0 -19 5 -25 23 -25 12 0 25 -1 30 -2 13 -3 14 34 0 43
-28 18 -53 10 -53 -16z"/>
<path d="M5840 4265 c0 -8 9 -15 20 -15 11 0 20 2 20 5 0 2 -9 9 -20 15 -16 9
-20 8 -20 -5z"/>
<path d="M6939 4243 c6 -13 15 -23 19 -23 4 0 22 -14 40 -31 18 -17 36 -28 40
-24 4 4 -3 14 -16 24 -13 9 -40 30 -59 46 -32 26 -35 27 -24 8z"/>
<path d="M6920 3950 c0 -5 4 -10 9 -10 6 0 13 5 16 10 3 6 -1 10 -9 10 -9 0
-16 -4 -16 -10z"/>
<path d="M7834 3719 c-3 -6 -14 -9 -24 -6 -13 3 -17 0 -13 -9 4 -10 10 -10 29
-2 13 6 24 15 24 20 0 11 -8 10 -16 -3z"/>
<path d="M7350 3670 c0 -5 5 -10 10 -10 6 0 10 5 10 10 0 6 -4 10 -10 10 -5 0
-10 -4 -10 -10z"/>
<path d="M7357 3630 c3 -11 7 -20 9 -20 2 0 4 9 4 20 0 11 -4 20 -9 20 -5 0
-7 -9 -4 -20z"/>
<path d="M7480 3616 c0 -9 5 -16 10 -16 6 0 10 4 10 9 0 6 -4 13 -10 16 -5 3
-10 -1 -10 -9z"/>
<path d="M7510 3620 c0 -6 7 -10 15 -10 8 0 15 2 15 4 0 2 -7 6 -15 10 -8 3
-15 1 -15 -4z"/>
<path d="M7360 3588 c0 -7 8 -27 19 -43 10 -17 24 -48 31 -70 7 -22 19 -46 27
-53 7 -8 11 -17 8 -22 -3 -4 1 -10 9 -13 12 -5 221 95 269 128 31 21 13 19
-34 -6 -23 -11 -47 -18 -55 -15 -8 3 -13 1 -11 -5 2 -8 -143 -94 -148 -87 -12
17 -89 185 -87 191 1 4 -5 7 -13 7 -8 0 -15 -6 -15 -12z"/>
<path d="M7520 3576 c0 -2 8 -10 18 -17 15 -13 16 -12 3 4 -13 16 -21 21 -21
13z"/>
<path d="M7520 3500 c-8 -5 -11 -12 -8 -16 4 -3 14 1 23 10 18 17 9 21 -15 6z"/>
<path d="M7560 3474 l-25 -15 25 7 c14 3 29 10 35 15 15 14 -7 10 -35 -7z"/>
<path d="M7487 3445 c3 -8 9 -12 14 -9 12 7 11 11 -5 17 -10 4 -13 1 -9 -8z"/>
<path d="M7320 3386 c0 -2 7 -9 15 -16 13 -11 14 -10 9 4 -5 14 -24 23 -24 12z"/>
<path d="M7540 3261 c0 -22 58 -108 97 -145 24 -23 62 -69 83 -103 37 -58 57
-80 65 -71 2 2 -19 40 -46 85 -33 54 -61 88 -85 102 -24 15 -34 26 -30 37 3 8
2 13 -3 9 -5 -3 -23 17 -40 45 -30 48 -41 60 -41 41z"/>
<path d="M7699 3123 c5 -10 17 -27 25 -38 14 -17 14 -14 -1 18 -9 20 -21 37
-25 37 -5 0 -4 -8 1 -17z"/>
<path d="M7835 2980 c-3 -6 1 -7 9 -4 18 7 21 14 7 14 -6 0 -13 -4 -16 -10z"/>
<path d="M4230 4430 c0 -5 10 -12 23 -14 102 -20 171 -41 222 -66 33 -17 51
-24 41 -15 -25 19 -15 30 14 15 11 -6 29 -10 38 -8 31 7 -29 36 -83 42 -27 2
-77 14 -110 26 -67 24 -145 35 -145 20z"/>
<path d="M7982 2590 c6 -19 19 -44 29 -56 11 -11 19 -25 19 -31 0 -20 30 -37
42 -25 8 8 2 21 -23 49 -19 21 -44 52 -56 68 l-23 30 12 -35z"/>
<path d="M8107 1749 c-7 -26 7 -67 17 -51 4 7 4 18 -1 25 -4 6 -6 20 -5 30 4
24 -5 21 -11 -4z"/>
<path d="M7920 1681 c0 -6 5 -13 10 -16 29 -18 -17 -95 -56 -95 -7 0 -14 -7
-14 -15 0 -8 -4 -15 -10 -15 -5 0 -10 5 -10 11 0 6 -7 3 -16 -6 -12 -11 -16
-33 -16 -71 0 -30 -3 -52 -8 -49 -12 7 -33 -22 -25 -35 4 -6 13 -9 21 -6 7 3
16 1 19 -4 3 -5 11 -7 18 -4 7 2 18 -9 25 -26 8 -16 20 -30 27 -30 25 0 38 41
45 144 4 56 8 91 9 79 2 -45 20 -22 23 30 4 62 -10 117 -29 117 -7 0 -13 -4
-13 -9z"/>
<path d="M8105 1657 c-5 -18 -11 -25 -17 -19 -11 11 -48 4 -48 -10 0 -5 5 -6
10 -3 6 4 10 -17 10 -54 0 -34 4 -61 10 -61 11 0 12 10 12 75 -1 22 2 32 4 23
3 -10 10 -18 15 -18 6 0 9 8 8 18 -1 9 1 25 5 34 5 10 6 23 3 30 -2 7 -8 0
-12 -15z"/>
<path d="M8071 1484 c0 -11 3 -14 6 -6 3 7 2 16 -1 19 -3 4 -6 -2 -5 -13z"/>
<path d="M7670 1481 c0 -5 5 -13 10 -16 6 -3 10 -2 10 4 0 5 -4 13 -10 16 -5
3 -10 2 -10 -4z"/>
<path d="M8016 1394 c-9 -24 -7 -54 4 -54 6 0 10 16 10 35 0 38 -4 44 -14 19z"/>
<path d="M7037 1119 c7 -7 15 -10 18 -7 3 3 -2 9 -12 12 -14 6 -15 5 -6 -5z"/>
<path d="M5563 2552 c10 -11 27 -22 38 -25 19 -5 19 -4 6 16 -8 12 -25 24 -38
26 -23 3 -23 3 -6 -17z"/>
<path d="M4370 2520 c-9 -6 -10 -10 -3 -10 6 0 15 5 18 10 8 12 4 12 -15 0z"/>
<path d="M4457 2501 c24 -24 59 -32 92 -19 25 10 24 11 -29 24 -76 18 -84 18
-63 -5z"/>
<path d="M7535 2110 c3 -5 13 -10 21 -10 8 0 12 5 9 10 -3 6 -13 10 -21 10 -8
0 -12 -4 -9 -10z"/>
<path d="M5578 1653 c6 -2 18 -2 25 0 6 3 1 5 -13 5 -14 0 -19 -2 -12 -5z"/>
<path d="M7069 711 c7 -12 9 -26 6 -31 -3 -5 -1 -11 5 -15 5 -3 10 -1 10 4 0
6 5 11 11 11 6 0 1 -12 -11 -27 -15 -20 -18 -28 -8 -34 17 -10 38 8 39 35 1
11 5 3 9 -19 4 -22 5 -44 2 -49 -3 -5 1 -5 9 0 25 15 37 13 32 -7 -3 -10 -3
-19 0 -19 3 0 11 16 16 36 12 45 -1 84 -28 84 -11 0 -23 5 -26 10 -4 6 -11 8
-16 5 -5 -4 -9 1 -9 9 0 9 -4 16 -9 16 -5 0 -17 3 -26 7 -15 5 -16 3 -6 -16z"/>
<path d="M6886 653 c-6 -14 -5 -15 5 -6 7 7 10 15 7 18 -3 3 -9 -2 -12 -12z"/>
<path d="M7226 642 c-4 -6 -9 -26 -11 -43 -4 -30 -3 -31 16 -13 18 17 19 16
19 -14 0 -18 4 -32 10 -32 5 0 6 -7 3 -17 -5 -11 -3 -14 6 -8 8 4 17 2 22 -6
7 -12 11 -11 24 2 20 19 11 76 -9 60 -9 -8 -11 -1 -8 24 3 22 0 35 -7 35 -6 0
-11 -9 -11 -20 0 -20 0 -20 -19 -1 -10 10 -20 24 -23 32 -3 10 -6 10 -12 1z"/>
<path d="M7317 493 c-2 -4 4 -17 15 -28 18 -19 18 -19 15 5 -4 24 -21 38 -30
23z"/>
<path d="M6600 30 c0 -5 5 -10 11 -10 5 0 7 5 4 10 -3 6 -8 10 -11 10 -2 0 -4
-4 -4 -10z"/>
<path d="M6630 10 c0 -6 7 -10 15 -10 8 0 15 2 15 4 0 2 -7 6 -15 10 -8 3 -15
1 -15 -4z"/>
<path d="M6930 10 c0 -5 5 -10 11 -10 5 0 7 5 4 10 -3 6 -8 10 -11 10 -2 0 -4
-4 -4 -10z"/>
<path d="M6558 3 c6 -2 18 -2 25 0 6 3 1 5 -13 5 -14 0 -19 -2 -12 -5z"/>
</g>
</svg>
