<?xml version="1.0" standalone="no"?>
<!DOCTYPE svg PUBLIC "-//W3C//DTD SVG 20010904//EN"
 "http://www.w3.org/TR/2001/REC-SVG-20010904/DTD/svg10.dtd">
<svg version="1.0" xmlns="http://www.w3.org/2000/svg"
 width="48.000000pt" height="48.000000pt" viewBox="0 0 48.000000 48.000000"
 preserveAspectRatio="xMidYMid meet">

<g transform="translate(0.000000,888.000000) scale(0.100000,-0.100000)"
fill="#000000" stroke="none">
<path d="M0 4440 l0 -4440 3091 0 c2815 0 3091 1 3085 16 -3 9 -6 25 -6 35 0
14 -14 26 -45 40 l-46 20 3 52 c3 44 6 52 23 52 11 1 31 -6 44 -14 22 -14 94
-18 161 -9 21 3 25 -2 30 -32 4 -19 14 -49 22 -65 9 -17 16 -38 16 -45 -1 -8
0 -23 0 -32 2 -17 69 -18 1253 -18 l1250 0 -2 94 c-2 88 -4 93 -20 83 -10 -6
-20 -18 -23 -27 -2 -10 -4 -8 -5 5 -1 21 33 58 43 48 3 -4 6 46 6 110 0 99 -2
116 -15 111 -8 -4 -15 -1 -15 6 0 6 -5 8 -11 5 -6 -4 -8 -12 -6 -19 3 -8 -13
-12 -54 -13 -44 -1 -59 3 -59 13 0 8 -5 14 -11 14 -6 0 -9 -8 -7 -17 4 -14 -2
-18 -26 -20 -205 -13 -203 -13 -217 4 -13 14 -11 16 18 11 18 -2 34 -1 35 4 2
5 17 11 33 13 17 3 50 10 75 15 44 10 60 12 193 25 66 7 67 8 67 38 l0 30
-107 -7 c-116 -7 -114 -7 -247 -30 -48 -9 -92 -13 -97 -10 -9 5 -13 34 -5 34
2 0 43 7 92 16 49 8 136 21 194 29 57 7 106 18 108 23 1 4 16 6 32 4 27 -4 30
-1 30 22 0 24 -3 26 -42 26 -24 0 -88 -7 -142 -15 -55 -8 -108 -13 -118 -9
-10 3 -18 1 -18 -5 0 -6 -10 -10 -22 -10 -13 0 -50 -4 -83 -9 -45 -7 -62 -6
-72 4 -20 19 -17 21 40 29 71 10 78 12 112 19 17 3 64 10 105 16 41 6 84 12
95 15 11 2 48 4 83 4 l63 1 -3 33 c-3 30 -5 32 -48 34 -25 2 -92 -6 -150 -17
-143 -27 -290 -50 -320 -50 -37 1 -6 16 49 24 24 4 49 10 55 14 11 6 16 8 48
10 11 1 15 7 12 17 -4 8 -1 15 5 15 6 0 11 -5 11 -10 0 -22 134 11 170 41 14
11 20 18 13 15 -6 -4 -16 7 -22 26 -13 38 -14 35 2 35 6 1 49 4 95 8 82 8 82
8 82 36 0 18 -5 27 -12 25 -7 -3 -57 -7 -110 -10 -92 -6 -97 -5 -103 15 -10
30 4 39 71 44 114 9 154 17 154 31 0 8 -11 14 -27 15 -16 0 -37 3 -48 6 -11 3
-44 5 -72 4 -29 0 -53 4 -53 9 0 6 -5 10 -11 10 -6 0 -9 -6 -6 -14 9 -22 -5
-28 -25 -9 -20 18 -25 55 -5 52 6 -2 37 3 68 10 44 11 60 11 79 1 19 -10 24
-10 32 4 5 9 22 16 38 16 l30 0 0 108 c0 71 -4 112 -12 120 -9 9 -9 12 0 12 6
0 0 11 -13 25 -14 13 -25 28 -25 34 0 15 -72 132 -78 127 -8 -9 59 -178 80
-200 26 -28 22 -39 -7 -20 -14 9 -25 20 -25 25 0 5 -7 9 -15 9 -8 0 -30 32
-50 71 -19 39 -48 90 -64 113 -15 22 -38 63 -49 89 -12 26 -31 61 -42 77 -25
35 -22 36 30 11 22 -11 40 -15 40 -10 0 5 11 9 25 9 16 0 25 6 25 15 0 11 12
15 45 15 45 0 88 -19 112 -50 15 -20 27 -7 20 22 -9 32 -54 100 -82 120 -28
21 -75 34 -75 20 0 -6 11 -24 25 -40 30 -36 31 -45 5 -37 -12 4 -26 2 -33 -3
-7 -5 -41 -12 -77 -15 -61 -5 -125 -28 -225 -79 -22 -11 -42 -23 -45 -27 -3
-3 -16 -14 -30 -23 -138 -92 -193 -138 -268 -227 -24 -28 -50 -51 -59 -51 -8
0 -31 12 -51 28 l-37 27 33 -38 c17 -21 32 -42 32 -47 0 -4 -11 -22 -25 -39
l-26 -30 -24 23 c-14 13 -25 31 -25 41 0 14 -3 15 -15 5 -8 -7 -13 -16 -10
-20 3 -4 -4 -19 -15 -31 l-20 -24 -45 47 c-44 46 -55 68 -35 68 6 0 10 5 10
12 0 9 -3 9 -12 0 -21 -21 -32 -14 -68 43 -19 30 -38 55 -42 55 -4 0 -16 -12
-27 -26 l-21 -26 -41 30 c-36 27 -69 33 -69 13 0 -4 14 -20 31 -37 34 -32 69
-94 73 -128 3 -23 24 -68 37 -77 5 -3 -9 -24 -32 -46 l-41 -42 -47 49 -47 48
-24 -19 c-14 -10 -20 -19 -13 -19 17 0 6 -51 -15 -66 -11 -8 -21 -9 -29 -3 -8
7 -11 3 -9 -14 2 -13 6 -29 10 -35 4 -7 3 -12 -3 -12 -5 0 -11 8 -14 18 -2 9
-4 -5 -5 -33 0 -27 4 -67 10 -88 10 -32 9 -39 -7 -51 -11 -8 -16 -20 -12 -30
9 -23 30 -20 22 4 -5 15 -3 18 9 14 18 -7 5 -51 -14 -46 -6 1 -9 -2 -5 -8 4
-6 -5 -31 -20 -56 -15 -25 -28 -44 -29 -42 -1 2 -8 12 -16 22 -14 17 -13 18 6
12 27 -8 37 14 24 49 -5 13 -5 27 -1 29 9 6 0 74 -12 93 -4 6 0 14 8 17 8 3
14 9 14 13 -1 4 1 16 5 25 9 21 3 75 -14 136 -11 36 -10 45 3 60 14 15 14 19
-4 41 -25 31 -24 47 6 67 24 16 27 16 48 -2 31 -27 -26 37 -122 136 l-82 85
20 40 21 40 -25 9 c-14 6 -25 13 -25 17 0 13 75 99 88 99 6 0 12 4 12 9 0 5
13 11 30 14 19 4 35 17 45 37 15 30 15 31 -14 60 -43 44 -92 41 -182 -10 -67
-38 -129 -52 -129 -30 0 6 7 10 15 10 8 0 24 9 34 19 10 10 28 22 40 26 21 6
37 38 27 54 -3 5 6 17 21 27 50 32 102 86 97 99 -8 19 116 29 196 16 57 -10
67 -9 78 6 11 15 12 15 12 -3 0 -15 21 -27 101 -57 55 -22 109 -37 120 -34 10
3 22 1 25 -4 10 -17 22 -9 29 21 9 39 -8 60 -47 60 -16 0 -42 7 -58 15 -16 8
-61 18 -102 22 l-73 7 49 11 c57 12 65 24 35 51 -16 15 -40 20 -106 23 -78 3
-85 2 -81 -15 2 -11 12 -20 23 -20 11 -1 28 -2 38 -3 9 -1 17 -7 17 -13 0 -9
-20 -13 -65 -14 l-65 -1 3 31 c2 30 0 31 -43 37 -44 5 -44 7 8 25 32 12 -57
45 -106 40 -48 -4 -59 7 -48 48 6 25 14 26 56 9 19 -8 107 -10 139 -4 2 1 -4
10 -13 20 -17 19 -17 20 2 30 11 6 41 10 66 9 51 -3 52 -2 61 33 6 23 2 27
-37 39 -24 7 -47 17 -52 22 -18 15 -36 8 -46 -18 -7 -18 -17 -25 -33 -24 -57
5 -58 -8 -3 -41 32 -20 31 -21 -39 -23 -22 -1 -46 -5 -53 -10 -10 -6 -10 -1 0
21 6 15 18 35 25 44 7 8 13 20 13 26 0 16 97 116 115 119 16 2 40 -17 47 -36
2 -6 39 -13 83 -15 44 -3 73 -2 65 1 -8 3 -29 12 -47 20 -40 18 -44 18 -37 -3
5 -14 4 -15 -4 -4 -5 7 -16 10 -23 7 -8 -4 -2 2 14 14 15 12 27 26 27 32 0 6
-6 6 -15 -2 -12 -10 -21 -10 -44 0 -17 6 -36 9 -43 5 -7 -4 -1 5 14 21 25 26
31 27 58 17 16 -6 30 -8 30 -4 0 3 12 12 28 19 44 20 72 38 66 44 -5 6 -55 -4
-89 -18 -11 -4 -3 7 18 26 29 25 41 30 50 21 6 -6 18 -11 27 -11 10 0 53 -26
98 -57 126 -90 141 -99 232 -146 47 -25 96 -54 110 -65 24 -20 24 -21 3 -15
-35 8 -27 -13 9 -28 38 -16 57 -19 123 -23 l49 -4 -23 19 c-12 10 -57 37 -99
60 -42 24 -110 65 -150 91 -40 27 -105 65 -145 83 -89 42 -119 63 -147 98
l-22 27 28 -11 c46 -17 144 -71 144 -79 0 -4 18 -10 41 -13 53 -7 349 -176
349 -199 0 -5 -9 -4 -21 2 -11 7 -23 10 -25 8 -6 -7 117 -89 126 -83 12 8 104
-57 114 -81 11 -25 148 -129 170 -129 15 0 45 -34 66 -75 10 -21 10 -23 -1
-12 -7 6 -20 12 -28 12 -9 0 5 -20 34 -50 27 -27 56 -50 65 -50 9 0 31 -16 50
-35 19 -19 30 -35 26 -35 -5 0 -3 -7 4 -15 9 -10 17 -12 23 -6 12 12 -41 83
-56 74 -6 -3 -7 -1 -3 6 4 6 0 24 -9 38 l-18 26 34 -24 c18 -13 52 -42 76 -64
l43 -42 0 3494 0 3493 -4440 0 -4440 0 0 -4440z m4285 4210 c-3 -5 -12 -10
-20 -10 -8 0 -17 5 -20 10 -4 6 5 10 20 10 15 0 24 -4 20 -10z m45 6 c0 -11
-19 -15 -25 -6 -3 5 1 10 9 10 9 0 16 -2 16 -4z m270 0 c0 -9 -39 -13 -51 -5
-10 6 -4 9 19 9 17 0 32 -2 32 -4z m102 -15 c4 -4 -10 -5 -32 -3 -22 2 -40 8
-40 13 0 9 60 1 72 -10z m-652 -12 c0 -6 7 -9 15 -5 18 6 19 1 5 -25 -7 -13
-7 -19 0 -19 16 0 12 -31 -7 -52 -18 -20 -4 -25 15 -6 7 7 12 9 12 6 0 -4 14
-3 30 2 29 8 30 8 25 -21 -4 -19 -1 -28 7 -27 16 4 32 -44 25 -73 -5 -18 -13
-24 -34 -25 -50 -2 -137 -14 -172 -24 -19 -5 -37 -7 -42 -5 -4 3 -11 0 -14 -6
-4 -5 -14 -8 -23 -4 -8 3 -19 0 -24 -7 -5 -9 -8 -10 -8 -1 0 7 12 25 26 40 21
22 25 24 20 8 -6 -20 -6 -20 9 0 9 11 14 24 11 30 -2 5 2 16 10 22 8 8 14 9
16 2 2 -6 14 9 27 32 13 23 19 39 12 35 -6 -4 -11 -3 -11 3 0 10 -19 9 -37 -2
-8 -5 -13 -3 -13 4 0 6 -9 1 -20 -12 -15 -19 -19 -20 -14 -5 6 16 4 17 -12 8
-11 -6 -32 -23 -47 -38 -17 -17 -27 -22 -27 -13 -1 11 -3 11 -13 -1 -7 -8 -21
-20 -32 -26 -10 -6 -20 -17 -23 -25 -2 -8 3 -6 12 5 20 25 20 8 1 -18 -8 -11
-15 -14 -15 -7 0 7 -5 9 -12 5 -8 -5 -9 0 -5 16 l6 22 -21 -21 c-26 -28 -38
-18 -12 10 35 40 -111 -57 -174 -115 l-33 -31 7 44 7 45 -31 -23 c-32 -22 -36
-20 -33 19 0 10 -1 11 -5 3 -6 -14 -34 -18 -34 -6 0 4 12 17 28 30 15 12 22
22 15 23 -6 0 -29 -19 -50 -42 -21 -24 -35 -39 -30 -33 11 15 8 27 -5 19 -42
-25 37 44 100 87 79 53 69 57 -26 12 -29 -14 -55 -23 -58 -20 -9 9 136 74 246
111 58 19 125 43 150 54 48 21 187 41 160 22 -9 -6 -10 -10 -3 -10 7 0 16 6
20 14 13 23 103 36 103 15z m810 -10 c0 -5 -9 -9 -20 -9 -11 0 -20 -6 -20 -12
-1 -8 -5 -7 -13 4 -7 9 -24 18 -37 20 -14 3 1 5 33 6 31 0 57 -4 57 -9z m246
-93 c39 -11 97 -39 129 -61 l58 -40 -64 -3 c-61 -3 -65 -2 -91 30 -15 18 -28
29 -28 25 0 -5 7 -15 15 -23 38 -39 24 -115 -23 -122 -22 -3 -22 -3 3 23 15
14 25 33 23 42 -3 19 -102 57 -190 73 -28 6 -53 12 -55 13 -1 2 -4 28 -7 59
l-4 55 82 -25 c44 -13 113 -34 152 -46z m43 39 c23 -8 45 -14 49 -15 24 -1
126 -33 139 -43 7 -5 17 -6 22 -3 5 4 12 2 16 -4 3 -5 15 -10 25 -10 22 0 135
-59 200 -104 25 -17 48 -30 52 -29 4 2 17 -10 30 -25 13 -15 49 -49 81 -75 31
-27 55 -52 52 -57 -3 -4 2 -11 11 -14 9 -4 15 -9 12 -12 -8 -7 -60 15 -54 24
2 4 -16 27 -40 52 -31 31 -44 39 -44 27 0 -9 -5 -17 -12 -17 -16 0 -118 62
-118 72 0 4 -6 8 -12 8 -7 1 -38 21 -68 45 -65 51 -163 105 -240 130 -94 31
-172 63 -154 64 6 1 30 -6 53 -14z m-1180 -97 c-8 -14 -14 -18 -17 -10 -2 6
-8 10 -13 7 -5 -4 -6 1 -2 10 4 13 8 14 14 4 6 -10 9 -9 15 4 3 10 9 16 11 13
3 -2 -1 -15 -8 -28z m-92 -19 c-6 -10 -13 -16 -16 -13 -3 2 0 9 6 15 6 6 9 19
6 28 -4 13 -3 13 5 2 7 -10 7 -20 -1 -32z m43 18 c0 -2 -10 -12 -22 -23 l-23
-19 19 23 c18 21 26 27 26 19z m-565 -57 c-3 -5 -12 -10 -18 -10 -7 0 -6 4 3
10 19 12 23 12 15 0z m2070 -20 c22 -10 66 -37 97 -61 31 -24 92 -63 135 -87
99 -55 126 -77 126 -105 0 -13 7 -29 17 -35 15 -9 17 -8 13 11 -3 18 -1 17 12
-6 9 -16 15 -33 13 -39 -2 -6 6 -22 18 -35 30 -32 38 -75 24 -118 -12 -37 -30
-47 -31 -17 0 16 -1 16 -7 -1 -6 -15 -16 -10 -73 36 -85 71 -103 82 -311 196
-43 24 -78 46 -78 51 0 11 26 31 36 28 5 -1 26 9 46 22 60 40 51 75 -32 128
-98 62 -99 63 -70 56 14 -3 43 -14 65 -24z m-1605 -60 c0 -5 -5 -10 -11 -10
-5 0 -7 5 -4 10 3 6 8 10 11 10 2 0 4 -4 4 -10z m-140 -30 c-6 -11 -12 -20
-14 -20 -2 0 -2 9 1 20 3 11 9 20 15 20 5 0 4 -9 -2 -20z m30 0 c0 -5 -5 -10
-11 -10 -5 0 -7 5 -4 10 3 6 8 10 11 10 2 0 4 -4 4 -10z m1605 -81 c25 -12 45
-25 45 -30 0 -7 -85 32 -99 46 -10 10 11 4 54 -16z m-514 -15 c180 -31 481
-137 525 -185 16 -18 16 -23 -5 -102 -24 -87 -107 -347 -172 -538 -21 -64 -39
-123 -39 -132 0 -22 70 -53 183 -81 54 -13 102 -27 105 -31 4 -4 -4 -4 -18 0
-14 5 -54 9 -90 10 -70 2 -98 13 -191 76 -66 44 -90 85 -177 304 -157 391
-186 449 -252 490 l-40 25 0 90 0 90 38 0 c21 0 81 -7 133 -16z m1074 -84 c3
-5 1 -10 -4 -10 -6 0 -11 5 -11 10 0 6 2 10 4 10 3 0 8 -4 11 -10z m275 -322
c23 -29 52 -73 63 -98 11 -25 49 -106 84 -180 76 -157 145 -321 138 -328 -2
-2 -26 12 -53 32 -27 20 -53 36 -56 36 -10 0 -67 41 -104 75 -18 16 -42 49
-52 72 -11 26 -37 55 -69 79 -46 35 -51 42 -51 79 0 50 -27 110 -83 183 -55
73 -60 82 -48 82 5 0 19 -16 31 -35 25 -40 64 -71 103 -80 31 -8 38 13 12 35
-21 18 -19 50 7 77 12 13 24 23 28 23 4 0 26 -24 50 -52z m-1311 -155 c1 -7
12 -36 25 -65 52 -113 87 -223 49 -153 -27 50 -134 327 -132 343 1 10 57 -111
58 -125z m-30 -187 c38 -97 67 -176 65 -176 -7 0 -90 172 -113 235 -12 33 -27
68 -32 77 -8 16 -2 54 7 45 3 -2 35 -83 73 -181z m-2255 -32 c-14 -38 -26 -75
-27 -81 0 -7 -5 -13 -10 -13 -14 0 -2 46 28 114 35 79 41 66 9 -20z m1142
-191 c-10 -10 -19 5 -10 18 6 11 8 11 12 0 2 -7 1 -15 -2 -18z m1721 -115 c-3
-8 -6 -5 -6 6 -1 11 2 17 5 13 3 -3 4 -12 1 -19z m622 -89 c17 -17 31 -35 31
-40 0 -5 7 -9 16 -9 10 0 38 -21 63 -48 68 -70 131 -104 131 -71 0 5 4 8 8 5
4 -2 14 -1 21 4 15 8 81 -25 81 -41 0 -5 7 -9 16 -9 11 0 14 6 9 20 -8 24 -3
25 34 6 44 -23 52 -38 39 -72 -8 -23 -7 -41 5 -84 19 -63 14 -79 -7 -28 -8 19
-21 40 -29 46 -22 19 -147 59 -255 82 -53 12 -106 24 -117 27 -11 3 -29 6 -40
7 -11 0 -26 5 -32 9 -7 5 -13 4 -13 -1 0 -13 -294 8 -308 23 -2 1 0 14 4 29 5
21 11 25 30 22 19 -4 24 0 24 16 0 12 5 18 13 15 7 -3 21 1 30 8 12 9 30 10
60 4 62 -12 89 -10 49 4 l-32 12 39 24 c27 17 41 34 45 54 5 25 9 28 30 23 14
-3 38 -20 55 -37z m-3725 -144 c-4 -8 -8 -15 -10 -15 -2 0 -4 7 -4 15 0 8 4
15 10 15 5 0 7 -7 4 -15z m3330 -90 c-7 -16 -24 -21 -24 -6 0 8 7 13 27 20 1
1 0 -6 -3 -14z m166 -31 c0 -8 -5 -12 -11 -9 -6 4 -23 11 -37 15 -25 8 -24 8
11 9 27 1 37 -3 37 -15z m382 -30 c15 -8 30 -19 34 -26 8 -12 7 -78 -1 -86 -3
-3 -91 27 -157 53 -12 5 -18 18 -18 40 0 62 5 65 63 48 29 -8 64 -21 79 -29z
m-332 16 c0 -5 -7 -7 -15 -4 -8 4 -15 8 -15 10 0 2 7 4 15 4 8 0 15 -4 15 -10z
m30 0 c0 -5 -4 -10 -10 -10 -5 0 -10 5 -10 10 0 6 5 10 10 10 6 0 10 -4 10
-10z m143 -15 c-7 -21 -13 -19 -13 6 0 11 4 18 10 14 5 -3 7 -12 3 -20z m539
-42 c19 -32 59 -123 91 -203 51 -129 60 -164 82 -313 22 -148 24 -170 11 -183
-13 -13 -16 -12 -26 6 -6 11 -13 33 -15 48 -11 71 -106 426 -115 432 -6 4 -10
11 -8 16 3 10 -19 87 -34 121 -6 11 -8 27 -6 35 3 7 2 20 -3 29 -9 18 -20 69
-14 69 2 0 19 -26 37 -57z m-253 -19 c3 -16 1 -17 -13 -5 -19 16 -21 34 -3 29
6 -3 14 -13 16 -24z m56 -4 c14 -5 38 -21 53 -35 15 -15 20 -23 10 -20 -12 5
-21 -3 -33 -29 -18 -36 -35 -55 -35 -38 0 5 6 22 14 37 8 15 12 34 9 41 -8 22
-31 16 -35 -8 -2 -12 -9 -23 -16 -26 -9 -3 -11 3 -6 22 5 21 3 26 -12 26 -18
1 -18 1 -2 14 10 7 15 16 11 19 -9 10 12 8 42 -3z m-1335 -165 c5 -3 10 -2 10
3 0 5 11 7 25 4 14 -2 25 -8 25 -12 0 -4 14 -10 31 -14 17 -3 28 -10 24 -16
-4 -6 6 -10 22 -11 15 0 39 -3 53 -5 14 -2 43 -6 65 -8 50 -4 145 -40 179 -67
15 -12 33 -18 41 -16 8 4 23 -7 37 -25 13 -17 33 -40 46 -51 12 -11 22 -27 22
-34 0 -7 5 -13 10 -13 6 0 10 -10 10 -23 0 -13 3 -27 8 -31 4 -4 7 -11 7 -14
0 -4 11 -22 24 -40 19 -27 21 -36 11 -45 -10 -9 -11 -9 -6 0 3 6 2 14 -4 18
-5 3 -10 0 -11 -7 0 -7 -5 -3 -11 10 -6 12 -17 22 -23 22 -7 0 -15 7 -18 15
-10 23 -195 141 -206 130 -3 -3 1 -10 9 -15 8 -6 10 -10 5 -10 -6 0 -20 7 -32
15 -27 19 -109 33 -99 17 5 -9 0 -9 -19 -2 -19 7 -24 7 -19 -2 5 -8 0 -9 -16
-5 -12 3 -32 0 -44 -7 -30 -19 -103 -28 -126 -16 -16 9 -20 8 -20 -6 0 -11 -5
-14 -16 -10 -9 4 -23 1 -31 -6 -18 -15 -105 -11 -115 5 -5 8 -8 6 -8 -6 0 -15
-7 -17 -41 -13 -22 2 -43 7 -47 10 -3 3 -15 0 -27 -8 -21 -14 -79 -11 -70 4 3
4 -3 14 -12 21 -15 12 -16 12 -10 -6 5 -15 1 -13 -18 8 -14 15 -25 35 -25 43
0 8 -3 14 -8 14 -4 0 -14 14 -21 32 -8 18 -16 27 -19 20 -2 -7 3 -24 12 -38
15 -21 15 -26 3 -39 -11 -10 -15 -40 -14 -107 0 -95 16 -166 54 -244 11 -22
28 -68 38 -103 18 -60 39 -86 54 -64 11 17 66 -21 65 -45 -1 -12 4 -22 10 -22
6 0 4 -5 -4 -11 -11 -7 -12 -12 -3 -15 7 -3 10 -11 7 -19 -7 -18 16 -31 27
-14 8 12 11 11 22 -2 6 -9 19 -14 27 -11 8 3 12 1 8 -3 -4 -4 7 -19 24 -33 23
-20 44 -27 77 -28 25 -1 73 -10 105 -19 42 -12 81 -16 131 -13 85 6 107 15 80
35 -12 8 -14 13 -6 13 11 0 11 3 1 14 -6 8 -18 12 -26 9 -8 -3 -14 0 -14 6 0
6 3 11 8 10 18 -3 52 15 52 27 0 8 -4 14 -10 14 -5 0 -10 5 -10 12 0 6 11 1
25 -12 32 -30 34 -54 3 -44 -21 6 -21 6 -5 -11 14 -14 20 -15 32 -5 8 7 15 19
15 27 0 8 8 13 17 11 10 -2 18 2 18 9 0 6 10 21 21 32 21 19 25 19 75 5 83
-22 117 -19 125 10 3 14 3 30 -1 35 -3 6 1 11 10 11 9 0 13 4 10 10 -3 5 5 15
19 21 23 11 24 13 9 24 -10 7 -23 11 -30 8 -7 -3 -13 -1 -13 4 0 16 36 44 51
41 9 -2 13 4 11 14 -2 12 2 16 13 12 10 -4 15 0 15 10 0 9 5 16 10 16 6 0 9
-13 8 -30 -2 -24 -6 -29 -20 -24 -10 3 -18 1 -18 -5 0 -5 -3 -16 -6 -25 -5
-12 0 -16 20 -16 14 0 26 4 26 10 0 5 16 9 34 8 19 -1 34 -4 33 -7 -1 -3 4
-16 11 -29 7 -12 10 -27 7 -32 -6 -9 12 -24 30 -25 6 0 9 -8 9 -18 -1 -9 2
-17 6 -17 5 0 6 -9 3 -20 -3 -11 -1 -20 4 -20 5 0 8 -24 7 -52 -1 -38 3 -56
15 -65 14 -11 14 -12 1 -13 -13 0 -13 -1 0 -10 9 -6 10 -10 3 -10 -7 0 -11
-16 -9 -45 2 -32 -2 -45 -11 -45 -16 0 -17 -12 -1 -28 9 -9 9 -17 -2 -36 -7
-14 -10 -31 -7 -40 4 -11 1 -13 -10 -9 -10 4 -14 2 -9 -5 3 -6 -1 -15 -11 -20
-14 -8 -17 -23 -16 -70 2 -42 -2 -64 -12 -72 -18 -15 -20 -40 -2 -40 7 0 8 -3
2 -8 -15 -11 -18 -55 -2 -47 6 4 4 0 -5 -7 -24 -20 -46 -128 -26 -128 4 0 8
-4 8 -10 0 -5 -6 -10 -14 -10 -8 0 -12 -8 -9 -22 2 -13 -1 -29 -6 -37 -8 -12
-12 -12 -25 -2 -14 12 -16 9 -16 -25 0 -30 -3 -35 -12 -26 -20 20 -27 13 -25
-25 1 -26 -2 -37 -10 -35 -16 3 -17 -30 -2 -45 9 -9 6 -19 -10 -42 -13 -17
-27 -31 -33 -31 -10 0 -7 -31 8 -80 7 -24 6 -24 -17 5 -33 40 -64 89 -51 81 5
-3 10 0 9 7 -1 31 4 48 13 42 5 -3 6 -13 3 -22 -4 -11 -3 -14 5 -9 17 10 15
31 -7 57 -16 19 -22 22 -32 12 -7 -7 -8 -13 -3 -13 6 0 9 -13 6 -30 -5 -33
-11 -37 -30 -18 -18 18 -16 -26 4 -64 11 -22 18 -27 24 -18 6 9 10 7 15 -9 9
-28 0 -38 -20 -21 -13 10 -15 9 -15 -8 0 -11 -7 -22 -15 -26 -18 -6 -19 -2 -4
25 6 12 8 27 5 34 -6 18 -46 7 -46 -12 0 -9 -6 -13 -15 -9 -18 6 -18 2 -6 -42
7 -21 6 -32 -1 -32 -6 0 -6 -6 2 -15 7 -9 10 -18 6 -22 -10 -10 -18 3 -20 31
0 15 -7 26 -15 26 -9 0 -11 -8 -7 -26 6 -23 4 -25 -16 -19 -22 6 -22 6 -4 -9
14 -11 22 -13 27 -5 4 7 12 3 23 -12 21 -30 21 -60 1 -53 -8 4 -15 12 -15 20
0 8 -2 14 -4 14 -2 0 -12 3 -20 6 -12 5 -15 2 -9 -12 4 -12 3 -15 -5 -10 -16
10 -15 -7 0 -22 10 -10 10 -14 0 -21 -10 -6 -7 -14 10 -37 19 -26 20 -27 2
-11 -28 24 -36 21 -22 -8 6 -14 15 -25 20 -25 4 0 8 -5 8 -11 0 -5 -4 -7 -10
-4 -5 3 -10 -1 -10 -10 0 -9 -4 -14 -9 -11 -4 3 -6 -6 -3 -21 4 -20 2 -24 -8
-18 -10 6 -12 3 -8 -13 4 -12 2 -22 -3 -22 -5 0 -12 13 -15 30 -4 16 -10 28
-14 25 -10 -6 -27 41 -29 78 0 15 4 27 9 27 18 0 10 35 -14 62 -14 14 -23 28
-20 31 3 3 -24 33 -60 68 -45 43 -62 65 -54 70 9 6 7 10 -7 15 -11 4 -24 13
-28 21 -4 7 -13 13 -19 13 -7 0 -7 -4 1 -14 6 -7 8 -21 5 -30 -5 -13 -9 -14
-21 -4 -9 7 -27 12 -41 13 -14 0 -27 7 -29 15 -4 13 -3 13 6 0 9 -13 11 -13
11 1 0 9 -11 28 -25 43 -19 21 -29 25 -42 17 -14 -7 -24 -4 -42 12 -25 22 -25
21 -6 -26 6 -13 -30 -18 -50 -6 -5 4 -23 9 -40 13 -16 4 -39 10 -49 13 -15 4
-18 1 -13 -11 5 -13 2 -15 -21 -10 -15 4 -29 8 -31 10 -8 7 25 30 37 26 10 -3
10 2 1 21 -10 21 -9 29 5 42 22 23 20 28 -9 21 -32 -8 -68 20 -44 34 7 5 18 5
25 0 14 -12 24 -3 24 22 0 10 3 17 8 16 4 -2 7 0 7 4 0 4 14 22 32 40 40 42
52 74 41 115 -7 26 -16 34 -55 47 -58 20 -92 20 -99 1 -4 -8 -14 -15 -24 -15
-11 0 -21 -4 -24 -9 -7 -11 -71 3 -93 21 -9 7 -32 30 -51 51 -19 20 -39 37
-45 37 -6 0 -19 7 -29 17 -23 21 -24 106 -2 183 27 96 27 102 13 110 -9 6 -14
34 -15 88 -2 44 -10 101 -18 126 -17 49 -21 108 -9 120 4 4 8 48 8 97 1 55 6
94 13 101 7 7 12 28 12 48 0 24 7 43 20 55 11 10 20 24 20 31 0 8 8 19 18 25
12 8 17 20 14 34 -2 13 1 26 8 30 8 5 8 10 -1 21 -6 8 -12 27 -14 44 -1 19
-13 39 -31 55 -29 25 -29 25 -44 4 -11 -14 -22 -18 -35 -13 -18 7 -19 6 -5
-11 14 -17 13 -18 -17 -13 -26 3 -34 0 -39 -14 -7 -23 -62 -25 -70 -3 -4 8
-10 15 -16 15 -15 0 -128 120 -128 136 0 8 -9 14 -21 14 -15 0 -19 -4 -15 -16
5 -14 4 -15 -9 -4 -8 7 -15 17 -15 23 0 6 -8 19 -17 30 -17 19 -17 19 4 13 15
-5 24 -2 31 10 5 9 14 14 21 10 15 -9 14 -33 -1 -38 -7 -3 -6 -7 5 -11 13 -5
20 2 31 27 14 33 43 44 58 22 5 -7 8 -7 8 -1 0 11 68 14 85 4 6 -3 19 -4 30
-4 18 2 20 -4 18 -44 -1 -42 -1 -43 5 -11 4 19 12 35 17 36 6 0 17 3 25 7 40
15 69 14 73 -4 3 -11 13 -17 27 -16 14 1 20 7 17 18 -3 12 1 15 22 11 14 -3
29 -9 32 -14 10 -15 38 3 47 30 l9 27 6 -28 c9 -33 27 -36 27 -4 0 29 40 35
47 7 3 -10 12 -21 20 -24 11 -4 13 -2 9 9 -3 10 3 17 19 21 28 7 34 24 9 24
-13 0 -13 2 -2 13 8 8 33 12 65 10 29 -1 55 2 58 7 3 6 19 10 36 10 16 0 29 4
29 9 0 8 92 -3 110 -14z m-2886 -154 c-4 -17 -9 -30 -11 -27 -3 2 -2 19 2 36
9 41 17 33 9 -9z m-24 -101 l-11 -25 6 25 c2 14 5 34 6 45 2 19 2 19 6 0 2
-12 -1 -32 -7 -45z m-7 -77 c-5 -16 -7 -93 -6 -173 1 -91 -1 -138 -7 -125 -19
43 -9 325 12 325 4 0 5 -12 1 -27z m3607 -108 c0 -9 -6 -12 -16 -8 -13 5 -13
7 -2 14 17 11 18 11 18 -6z m1040 -112 c0 -10 3 -29 6 -43 4 -18 3 -21 -4 -10
-15 25 -23 70 -12 70 5 0 10 -8 10 -17z m-1590 -93 c0 -5 -5 -10 -11 -10 -5 0
-7 5 -4 10 3 6 8 10 11 10 2 0 4 -4 4 -10z m-2096 -46 c5 -14 4 -15 -9 -4 -17
14 -19 20 -6 20 5 0 12 -7 15 -16z m14 -71 c0 -13 -4 -26 -9 -28 -4 -3 -4 -18
1 -34 7 -25 6 -29 -8 -23 -15 5 -15 4 -3 -11 8 -10 11 -20 7 -24 -3 -3 -6 -1
-6 5 0 7 -6 12 -14 12 -9 0 -13 -12 -12 -40 1 -22 -1 -40 -5 -40 -4 0 -6 -25
-5 -55 1 -40 5 -54 14 -50 15 5 16 -27 1 -42 -8 -8 -8 -13 0 -17 6 -4 11 0 11
9 0 9 5 13 11 10 6 -4 8 -13 5 -21 -3 -8 -2 -14 3 -14 4 0 7 -26 6 -57 -1 -32
2 -68 8 -81 8 -16 7 -30 -3 -50 -22 -42 -23 -49 -6 -28 9 11 19 17 23 13 3 -4
-1 -15 -10 -25 -10 -10 -14 -22 -10 -27 5 -4 0 -5 -9 -2 -10 3 -20 2 -23 -4
-4 -5 -1 -8 7 -7 7 2 11 -4 10 -12 -2 -8 -4 -31 -5 -50 0 -19 -3 -37 -6 -40
-13 -11 -29 -69 -19 -67 6 1 12 -11 14 -28 2 -22 1 -26 -6 -15 -7 11 -9 3 -8
-27 1 -30 5 -40 15 -36 19 7 6 -24 -25 -62 l-25 -30 7 37 c3 20 3 38 -1 40 -4
3 -2 3 5 2 9 -3 10 1 2 16 -5 10 -7 26 -3 36 4 12 3 15 -6 10 -8 -5 -10 1 -6
23 3 19 1 31 -5 31 -6 0 -8 5 -5 10 4 6 10 8 15 5 4 -3 6 4 3 16 -5 16 -8 18
-15 7 -6 -9 -7 -6 -3 10 3 12 2 22 -3 22 -15 0 -7 121 9 132 11 8 11 9 -3 4
-27 -8 -34 10 -42 112 -2 23 -6 45 -9 48 -3 3 -3 12 0 20 3 8 0 58 -8 110 -14
105 -5 152 34 187 11 9 17 17 12 17 -4 0 0 11 9 25 13 20 21 50 25 98 1 4 8 7
16 7 8 0 15 5 15 10 0 6 7 6 19 -2 10 -6 19 -22 19 -35z m2243 17 c6 0 7 -4 4
-10 -3 -5 -2 -10 4 -10 18 0 0 -28 -22 -35 -44 -13 -87 -23 -87 -19 0 2 19 22
43 45 23 22 34 38 25 35 -10 -3 -18 -1 -18 4 0 14 35 17 38 3 2 -7 8 -13 13
-13z m1419 -74 c0 -16 -21 -56 -30 -56 -14 0 -13 33 2 48 12 12 28 16 28 8z
m-539 -358 c1 -13 1 -43 -1 -67 -1 -29 2 -41 9 -37 6 4 11 16 11 27 0 10 4 19
9 19 13 0 4 -57 -21 -145 -23 -79 -47 -129 -89 -188 -16 -22 -29 -49 -29 -61
0 -81 -65 -168 -122 -164 -17 1 -33 9 -36 17 -3 8 1 48 8 90 7 42 12 103 11
136 -1 33 3 83 9 110 6 27 18 99 26 159 7 60 16 111 18 114 3 2 12 -21 21 -52
16 -55 16 -56 -9 -99 -25 -43 -25 -57 -1 -57 19 0 123 111 136 145 24 65 29
75 39 75 5 0 11 -10 11 -22z m-3744 -230 c-3 -8 -6 -5 -6 6 -1 11 2 17 5 13 3
-3 4 -12 1 -19z m632 -30 c-8 -14 -14 -18 -17 -10 -4 13 17 46 25 38 3 -2 -1
-15 -8 -28z m1 -38 c0 -5 -5 -10 -11 -10 -5 0 -7 5 -4 10 3 6 8 10 11 10 2 0
4 -4 4 -10z m-30 -70 c0 -5 -4 -10 -10 -10 -5 0 -10 5 -10 10 0 6 5 10 10 10
6 0 10 -4 10 -10z m-338 -40 c-2 -16 -8 -30 -13 -30 -10 0 -12 21 -3 44 10 27
21 18 16 -14z m-15 -72 c-3 -8 -6 -5 -6 6 -1 11 2 17 5 13 3 -3 4 -12 1 -19z
m305 -147 c-5 -3 -12 -13 -15 -21 -3 -9 -6 -4 -6 12 -1 21 3 26 15 21 9 -3 11
-9 6 -12z m1694 -15 c18 -14 17 -15 -13 -14 -32 1 -40 8 -26 21 9 10 17 9 39
-7z m1054 -57 c0 -6 -4 -7 -10 -4 -5 3 -10 11 -10 16 0 6 5 7 10 4 6 -3 10
-11 10 -16z m-3349 -26 c-12 -20 -14 -14 -5 12 4 9 9 14 11 11 3 -2 0 -13 -6
-23z m2284 -3 c3 -5 1 -10 -4 -10 -6 0 -11 5 -11 10 0 6 2 10 4 10 3 0 8 -4
11 -10z m1025 -48 c0 -7 -4 -10 -10 -7 -5 3 -10 16 -10 28 0 18 2 19 10 7 5
-8 10 -21 10 -28z m-739 11 c13 -16 12 -17 -3 -4 -17 13 -22 21 -14 21 2 0 10
-8 17 -17z m-368 -32 c17 3 47 -12 47 -23 0 -5 -4 -6 -10 -3 -5 3 -17 2 -26
-3 -11 -6 -13 -11 -5 -16 6 -4 11 -1 11 6 0 10 2 10 8 1 4 -7 17 -14 27 -16
34 -7 70 -24 84 -41 7 -9 21 -16 30 -16 10 0 17 -9 19 -24 2 -24 -5 -26 -38
-13 -76 29 -137 37 -173 22 -27 -11 -35 4 -11 23 25 21 25 19 14 66 -5 21 -6
46 -2 55 6 14 7 14 10 -2 2 -10 9 -17 15 -16z m517 -56 c14 -19 14 -19 -2 -6
-10 7 -18 18 -18 24 0 6 1 8 3 6 1 -2 9 -13 17 -24z m472 -41 c-3 -16 -8 -22
-14 -16 -5 5 -6 21 -2 37 8 33 23 15 16 -21z m55 24 c-3 -8 -6 -5 -6 6 -1 11
2 17 5 13 3 -3 4 -12 1 -19z m-1230 -34 c12 -12 19 -25 15 -30 -4 -4 -2 -4 5
-1 12 8 43 -1 43 -12 0 -13 -45 -4 -95 19 -57 26 -72 42 -47 51 24 9 53 -1 79
-27z m1220 -76 c-2 -13 -4 -5 -4 17 -1 22 1 32 4 23 2 -10 2 -28 0 -40z m847
-47 c8 -13 -46 -21 -128 -20 l-71 1 65 13 c82 15 127 18 134 6z m126 -11 c0
-5 -6 -10 -14 -10 -8 0 -18 5 -21 10 -3 6 3 10 14 10 12 0 21 -4 21 -10z
m-4244 -46 c-4 -14 -9 -24 -12 -21 -3 2 -2 17 2 31 3 15 9 25 11 22 3 -3 2
-17 -1 -32z m4355 14 c42 -23 76 -68 102 -136 23 -56 21 -93 -3 -120 -24 -25
-34 -26 -79 -11 -26 9 -37 8 -69 -9 l-37 -19 -43 29 c-32 22 -59 31 -103 35
-32 3 -59 3 -59 0 0 -3 25 -21 55 -39 59 -35 70 -62 38 -90 -37 -31 -51 -29
-64 10 -6 20 -19 51 -29 67 -9 17 -15 38 -13 48 4 13 -2 17 -26 17 -40 0 -48
16 -20 46 28 30 68 31 128 4 57 -26 67 -25 88 10 9 17 26 30 36 30 15 0 17 3
9 13 -12 15 10 57 44 81 15 12 17 17 7 27 -14 14 -17 29 -7 29 4 0 24 -10 45
-22z m-2031 -35 c11 3 23 1 26 -5 3 -5 12 -7 20 -4 7 3 16 1 20 -5 3 -5 13 -9
22 -7 10 1 22 0 27 -3 6 -4 43 -3 84 2 74 8 101 0 101 -30 0 -6 6 -11 13 -11
6 0 22 -15 34 -32 17 -24 20 -35 11 -45 -9 -11 -8 -13 2 -11 7 2 15 -3 18 -11
3 -8 0 -11 -7 -7 -6 4 -9 2 -6 -6 3 -7 0 -20 -5 -28 -8 -12 -13 -13 -30 -2
-24 15 -30 15 -30 2 0 -5 7 -10 15 -10 20 0 19 -16 -1 -24 -19 -7 -34 0 -34
17 0 7 -9 18 -21 25 -19 12 -20 11 -15 -6 7 -22 -19 -39 -30 -20 -4 7 -9 7
-13 0 -4 -7 -12 -6 -24 3 -15 11 -16 17 -6 39 7 15 18 25 25 22 8 -3 11 0 7
10 -8 22 -52 17 -62 -8 -6 -18 -9 -19 -14 -5 -5 13 -18 16 -61 14 -30 -1 -53
0 -51 3 2 3 -38 5 -88 6 -51 0 -109 6 -130 13 -35 12 -63 16 -129 20 -23 1
-28 6 -28 25 0 34 16 41 24 11 7 -28 29 -35 24 -7 -1 9 5 28 15 42 14 20 17
21 17 7 0 -14 5 -17 23 -11 12 4 25 12 29 18 5 8 11 7 20 -2 16 -16 28 -15 28
2 0 9 12 15 33 16 67 3 86 5 93 12 4 4 13 3 21 -3 7 -6 22 -9 33 -6z m1890 -3
c12 -7 12 -12 2 -22 -9 -9 -12 -9 -12 1 0 7 -4 9 -10 6 -13 -8 -32 4 -25 16 8
12 26 11 45 -1z m-1300 -35 c7 -9 8 -15 2 -15 -5 0 -12 7 -16 15 -3 8 -4 15
-2 15 2 0 9 -7 16 -15z m1044 -107 c-3 -13 -11 -28 -16 -35 -11 -14 -90 -54
-82 -42 2 4 -12 17 -33 28 l-38 19 45 20 c69 29 73 30 103 31 25 1 28 -2 21
-21z m-239 -64 c-16 -9 -36 -23 -42 -32 -7 -8 -16 -12 -20 -9 -10 11 55 55 82
56 6 0 -3 -7 -20 -15z m-335 -84 c0 -10 -6 -23 -14 -29 -8 -7 -17 -26 -20 -44
-4 -18 -14 -41 -23 -52 -15 -19 -15 -18 -9 14 3 18 6 42 6 52 0 11 8 26 19 35
11 10 16 24 14 35 -4 15 -1 18 11 13 9 -3 16 -14 16 -24z m-3327 5 c-3 -9 -8
-14 -10 -11 -3 3 -2 9 2 15 9 16 15 13 8 -4z m4426 -32 c9 -20 14 -24 21 -14
5 10 10 5 14 -16 5 -22 1 -41 -15 -69 -23 -38 -23 -39 -2 -21 l22 19 -14 -49
c-23 -85 -39 -119 -77 -164 -33 -38 -38 -41 -38 -21 0 21 -17 28 -57 23 -7 -1
-13 4 -13 12 0 7 6 19 13 27 6 7 -13 -4 -43 -26 -30 -21 -51 -33 -47 -27 5 8
-3 18 -20 27 -31 17 -73 51 -73 60 0 13 56 56 70 53 8 -1 20 4 26 12 9 12 13
2 19 -47 5 -46 3 -67 -6 -80 -7 -9 -1 -6 14 8 24 20 27 30 23 57 -3 18 -9 50
-12 71 l-6 37 21 -32 c23 -36 42 -43 39 -15 -5 59 4 101 25 123 25 27 89 78
98 79 3 0 11 -12 18 -27z m-377 -65 c3 -7 3 -41 0 -76 l-4 -62 -32 5 c-17 3
-81 7 -143 10 -96 4 -120 8 -167 32 -31 15 -56 31 -56 35 0 4 6 5 14 2 14 -5
31 11 31 31 0 20 85 33 216 34 101 1 138 -2 141 -11z m-1767 -37 c33 -14 68
-33 78 -43 10 -10 28 -18 41 -18 27 0 51 -24 41 -40 -5 -8 -11 -8 -21 1 -18
15 -29 6 -20 -17 4 -10 13 -14 26 -11 14 3 27 -5 46 -30 14 -19 24 -37 21 -39
-3 -3 -14 6 -25 20 -23 29 -34 34 -25 10 5 -14 3 -15 -15 -5 -11 6 -23 16 -25
23 -4 9 -6 8 -6 -3 -1 -22 33 -51 54 -47 10 2 20 -2 22 -7 4 -14 -35 -17 -43
-3 -4 6 -10 5 -15 -3 -7 -12 -9 -12 -9 -1 0 25 -43 51 -72 45 -20 -4 -29 -1
-34 11 -3 9 -11 16 -16 16 -6 0 -7 -7 -4 -16 3 -8 2 -13 -3 -10 -5 3 -14 -1
-21 -9 -7 -8 -16 -12 -21 -9 -15 9 -48 -6 -43 -20 4 -10 -2 -12 -22 -8 l-28 5
27 23 c38 32 35 48 -7 41 -40 -6 -63 8 -68 42 -4 31 -21 37 -44 14 -21 -21
-55 -26 -47 -7 2 7 -4 14 -14 16 -13 3 -8 7 16 14 52 15 48 30 -6 26 -38 -2
-44 0 -30 8 9 6 17 17 17 24 0 8 10 13 24 12 20 -1 22 -4 13 -15 -8 -9 0 -8
23 5 19 10 46 19 59 21 13 1 25 3 26 5 11 11 100 -2 150 -21z m1020 -48 c-23
-35 -31 -21 -11 21 9 19 17 40 17 48 1 7 4 0 6 -15 3 -16 -3 -39 -12 -54z
m-3394 40 c-5 -10 -17 -27 -26 -38 -16 -19 -17 -19 -3 5 26 46 29 50 34 50 3
0 0 -8 -5 -17z m3765 10 c-11 -11 -48 -14 -41 -3 3 5 16 10 27 10 12 0 18 -3
14 -7z m-96 -18 c0 -3 -17 -12 -37 -20 -48 -20 -40 -25 94 -58 56 -15 116 -33
132 -41 36 -19 53 -41 19 -26 -18 9 -33 7 -71 -10 -26 -11 -47 -26 -47 -32 0
-12 -91 -6 -124 7 -31 13 -14 -18 19 -34 l28 -14 -34 -11 c-71 -25 -209 -142
-195 -165 4 -6 3 -11 -2 -11 -12 0 -95 33 -157 62 -14 6 -28 8 -31 5 -10 -10
17 -38 51 -54 17 -8 41 -21 55 -28 29 -17 74 -20 65 -5 -3 6 -2 10 4 10 5 0
12 -4 15 -9 10 -15 72 -22 100 -11 15 5 51 14 81 18 57 9 65 5 65 -39 0 -28
52 -81 69 -70 11 7 10 19 -8 66 -12 32 -20 64 -17 72 11 28 45 12 80 -37 20
-27 40 -50 45 -50 6 0 21 10 36 23 l25 22 -29 55 c-17 30 -30 60 -31 66 0 6
31 27 68 48 38 21 97 59 133 86 35 27 68 49 73 50 11 0 35 -31 36 -47 0 -7 -5
-13 -11 -13 -5 0 -30 -9 -55 -20 -42 -20 -49 -30 -45 -72 1 -10 -2 -18 -8 -18
-15 0 -2 -27 15 -34 9 -3 25 -1 36 5 11 6 22 8 25 5 3 -3 -6 -11 -20 -17 -14
-6 -28 -18 -31 -25 -3 -7 11 -2 31 12 47 31 51 31 59 -10 7 -41 0 -56 -26 -56
-10 0 -22 -5 -26 -12 -4 -7 -3 -8 4 -4 7 4 12 1 12 -8 0 -19 -11 -21 -28 -4
-13 13 -42 -6 -42 -28 0 -8 -4 -14 -9 -14 -5 0 -11 -8 -14 -19 -5 -19 -64 -54
-77 -46 -5 3 -6 14 -3 25 8 30 -16 24 -29 -7 -6 -16 -10 -32 -9 -37 1 -4 -4
-14 -10 -22 -6 -8 -19 -29 -28 -47 -21 -43 -66 -49 -103 -14 l-27 25 -10 -29
c-12 -34 -59 -81 -73 -73 -5 3 -18 -2 -29 -12 -10 -9 -19 -14 -19 -9 0 4 -6 2
-14 -4 -8 -6 -18 -11 -22 -10 -5 1 -17 -1 -27 -6 -25 -11 -36 4 -14 19 9 7 17
18 17 23 0 9 41 41 138 110 10 6 14 14 11 18 -4 3 -47 -14 -95 -38 -49 -24
-100 -48 -114 -52 -25 -7 -24 -6 4 17 28 24 28 25 12 51 -16 24 -78 77 -90 77
-3 0 -6 -8 -6 -17 0 -21 -83 -91 -118 -100 -15 -3 -35 0 -51 10 -25 15 -27 14
-69 -20 -40 -33 -92 -51 -92 -32 0 5 -27 9 -60 9 -37 0 -64 5 -72 13 -10 12
-22 9 -68 -13 -73 -37 -100 -44 -100 -30 0 7 -7 10 -15 6 -8 -3 -14 0 -12 7 2
11 -6 13 -60 16 -13 1 -23 6 -23 12 0 5 5 7 10 4 6 -3 10 -1 10 4 0 6 -4 11
-10 11 -5 0 -10 4 -10 9 0 14 56 -4 86 -28 14 -11 32 -17 40 -14 19 7 13 13
-39 38 -22 11 -43 25 -45 32 -2 6 14 23 36 38 34 23 42 24 73 14 19 -7 47 -23
63 -37 29 -23 30 -23 43 -5 20 27 27 64 16 82 -12 19 -50 26 -66 12 -9 -7 -16
-5 -24 9 -10 15 -8 21 10 33 12 8 45 36 72 61 77 73 135 108 165 101 14 -4 41
-9 60 -11 29 -4 33 -3 20 8 -13 11 -17 42 -12 85 1 6 39 35 85 64 45 29 100
67 123 85 47 39 102 64 139 64 14 0 42 9 62 20 35 19 73 26 73 15z m-3600 -35
c0 -15 -7 -20 -27 -20 l-28 0 25 20 c31 24 30 24 30 0z m-116 -44 c-3 -9 -10
-16 -15 -16 -6 0 -5 9 1 21 13 24 24 20 14 -5z m2766 0 c0 -9 -30 -14 -35 -6
-4 6 3 10 14 10 12 0 21 -2 21 -4z m-660 -36 c0 -5 -12 -10 -26 -10 -14 0 -23
4 -19 10 3 6 15 10 26 10 10 0 19 -4 19 -10z m190 -44 c0 -2 -9 -6 -20 -9 -11
-3 -18 -1 -14 4 5 9 34 13 34 5z m390 -27 c0 -6 -4 -7 -10 -4 -5 3 -10 11 -10
16 0 6 5 7 10 4 6 -3 10 -11 10 -16z m-274 -46 c-11 -11 -17 4 -9 23 7 18 8
18 11 1 2 -10 1 -21 -2 -24z m1954 -32 c0 -16 4 -31 9 -33 5 -1 3 -12 -5 -22
-18 -25 -20 -22 -28 37 -6 39 -5 47 8 47 11 0 16 -9 16 -29z m-51 -18 c-1 -10
-4 -29 -8 -43 -6 -22 -8 -23 -14 -7 -4 11 -12 15 -18 11 -8 -4 -9 -3 -5 4 4 7
2 12 -5 12 -12 0 31 39 44 40 4 0 7 -8 6 -17z m-69 -43 c0 -5 -5 -10 -11 -10
-5 0 -7 5 -4 10 3 6 8 10 11 10 2 0 4 -4 4 -10z m-4420 -134 c0 -12 -5 -7 -19
24 -11 24 -11 24 3 6 9 -11 16 -24 16 -30z m4480 24 c-25 -47 -145 -150 -225
-194 l-50 -27 40 36 c82 73 115 99 131 101 21 3 94 74 94 91 0 7 5 13 10 13 7
0 7 -6 0 -20z m-4896 -65 c-9 -14 -18 -25 -21 -25 -5 0 5 18 20 38 17 22 18
13 1 -13z m4751 5 c-3 -5 -10 -10 -16 -10 -5 0 -9 5 -9 10 0 6 7 10 16 10 8 0
12 -4 9 -10z m-4271 -95 c26 -49 38 -79 27 -65 -20 24 -81 142 -81 157 0 10 4
4 54 -92z m76 -130 c14 -19 14 -19 -2 -6 -10 7 -18 18 -18 24 0 6 1 8 3 6 1
-2 9 -13 17 -24z m3180 -35 c0 -5 -4 -10 -9 -10 -6 0 -13 5 -16 10 -3 6 1 10
9 10 9 0 16 -4 16 -10z m660 -35 c0 -7 -279 -141 -310 -149 -14 -3 11 11 55
31 44 20 116 56 160 79 81 42 95 48 95 39z m-576 -90 c-4 -9 -14 -14 -23 -13
-9 2 -15 -3 -14 -9 2 -8 -7 -12 -22 -11 -38 3 -16 20 62 47 1 1 0 -6 -3 -14z
m-4003 -78 c-10 -9 -11 -8 -5 6 3 10 9 15 12 12 3 -3 0 -11 -7 -18z m5249 20
c0 -2 -24 -23 -52 -46 l-53 -43 50 46 c48 44 55 50 55 43z m-5340 -137 c-22
-31 -49 -54 -35 -29 10 17 47 59 52 59 3 0 -5 -13 -17 -30z m-95 -70 c-3 -5
-10 -10 -16 -10 -5 0 -9 5 -9 10 0 6 7 10 16 10 8 0 12 -4 9 -10z m111 -48
c-17 -16 -18 -16 -5 5 7 12 15 20 18 17 3 -2 -3 -12 -13 -22z m-261 -32 c-3
-5 -11 -10 -16 -10 -6 0 -32 -18 -59 -41 -27 -23 -53 -38 -59 -35 -10 6 -107
-60 -162 -112 -17 -15 -35 -22 -50 -20 -23 4 -22 5 10 24 18 10 60 37 93 59
175 119 263 168 243 135z m6130 -220 c-3 -5 -14 -10 -23 -10 -15 0 -15 2 -2
10 20 13 33 13 25 0z m-6525 -110 c0 -5 -7 -10 -15 -10 -8 0 -15 -8 -15 -19 0
-10 -7 -24 -15 -31 -20 -17 -20 1 0 40 15 28 45 42 45 20z m-230 -120 c-58
-55 -107 -100 -110 -100 -3 0 40 45 95 100 55 55 104 100 110 100 5 0 -37 -45
-95 -100z m26 -28 c-32 -31 -52 -47 -44 -34 26 39 90 104 96 97 3 -3 -20 -31
-52 -63z m6558 18 c-6 -37 -5 -40 17 -41 23 0 23 -1 3 -9 -28 -11 -76 -69 -68
-82 4 -6 2 -8 -3 -5 -12 8 -108 -90 -117 -120 -4 -12 -13 -24 -21 -27 -8 -3
-15 -14 -15 -25 0 -21 -35 -51 -58 -51 -12 0 -12 3 -2 15 11 13 8 15 -19 15
-39 0 -32 20 7 21 15 0 22 3 15 5 -21 9 -2 33 35 45 21 6 45 18 54 26 15 14
16 18 3 43 -16 31 -39 43 -66 35 -13 -5 -17 -2 -14 7 3 9 24 14 55 16 26 1 60
6 74 12 23 8 25 12 14 29 -6 10 -25 26 -42 34 -17 9 -24 16 -15 16 21 1 53 37
45 50 -4 6 9 13 31 16 21 4 43 8 48 10 37 13 45 5 39 -35z m-6459 -75 c-9 -29
-23 -56 -32 -59 -10 -4 -13 -2 -10 6 35 90 53 126 56 117 2 -6 -4 -35 -14 -64z
m-75 17 c0 -5 -7 -17 -16 -28 -8 -10 -14 -14 -11 -9 2 6 7 18 10 28 7 17 17
23 17 9z m-39 -75 c-10 -9 -11 -8 -5 6 3 10 9 15 12 12 3 -3 0 -11 -7 -18z
m-106 -47 c-9 -16 -18 -30 -21 -30 -2 0 2 14 11 30 9 17 18 30 21 30 2 0 -2
-13 -11 -30z m-72 -137 c-39 -84 -53 -106 -53 -82 0 14 77 159 85 159 2 0 -12
-35 -32 -77z m136 37 c-13 -17 -25 -26 -27 -20 -4 12 38 63 46 56 2 -3 -7 -19
-19 -36z m6746 -9 c-11 -11 -46 -33 -78 -50 -32 -18 -70 -43 -85 -56 -15 -14
-44 -27 -68 -31 -54 -8 -61 -25 -24 -58 25 -22 51 -89 39 -100 -2 -2 -47 -6
-99 -7 l-94 -4 -9 30 c-5 17 -13 38 -18 48 -7 14 -5 17 14 17 29 0 75 45 55
53 -7 3 3 6 23 6 35 1 37 3 43 41 5 30 13 43 36 55 16 8 36 15 45 15 21 0 19
17 -2 23 -10 3 25 5 77 6 56 1 107 8 125 16 41 18 42 18 20 -4z m1256 -162
c16 -34 28 -63 26 -66 -3 -2 -16 1 -29 7 -15 7 -10 0 14 -22 48 -42 102 -146
86 -166 -8 -9 -8 -16 0 -24 19 -19 14 -28 -13 -28 -27 0 -32 -9 -14 -27 6 -6
9 -19 7 -28 -3 -16 -5 -15 -28 4 -14 11 -19 20 -12 21 6 0 12 5 12 11 0 14
-104 5 -200 -17 -36 -8 -94 -19 -130 -23 -61 -8 -67 -6 -97 18 -18 14 -33 32
-33 39 0 6 -4 12 -9 12 -5 0 -15 10 -24 23 -14 22 -12 25 37 79 55 60 106 101
196 160 65 42 150 87 167 88 7 0 27 -27 44 -61z m-7331 22 c0 -6 -4 -13 -10
-16 -5 -3 -10 1 -10 9 0 9 5 16 10 16 6 0 10 -4 10 -9z m5651 -36 c-54 -31
-62 -31 -48 0 10 20 19 25 52 25 l40 0 -44 -25z m-6625 -37 c-9 -13 -37 -63
-62 -113 -55 -108 -166 -297 -171 -291 -6 6 95 217 121 250 12 17 42 64 65
104 24 39 48 72 53 72 6 0 3 -10 -6 -22z m5450 -12 c10 -8 17 -17 14 -19 -3
-3 -16 3 -30 13 -29 22 -14 27 16 6z m-753 -151 c-3 -9 -8 -14 -10 -11 -3 3
-2 9 2 15 9 16 15 13 8 -4z m1977 -65 c0 -5 9 -14 20 -20 11 -6 18 -15 15 -21
-4 -5 -1 -9 6 -9 8 0 10 -11 6 -36 -4 -26 -2 -37 9 -41 13 -5 13 -7 2 -14 -8
-6 -9 -12 -3 -16 11 -8 13 -21 18 -94 2 -25 7 -50 10 -56 4 -6 2 -13 -5 -15
-6 -2 -9 -11 -6 -19 8 -22 7 -34 -4 -31 -5 1 -7 -2 -3 -8 3 -5 13 -10 22 -10
9 0 13 -3 10 -7 -4 -3 -1 -13 6 -21 10 -13 8 -14 -16 -10 -25 5 -26 4 -14 -11
16 -18 28 -69 17 -76 -4 -2 -6 -17 -5 -33 l2 -29 -61 2 c-53 2 -63 5 -75 27
-12 22 -11 28 10 60 13 21 34 42 47 47 12 6 22 15 22 20 0 13 -58 5 -76 -10
-11 -9 -14 -9 -14 0 0 8 -8 10 -20 6 -13 -4 -20 -2 -20 7 0 8 -9 14 -20 14
-14 0 -20 -7 -20 -23 0 -14 -6 -23 -15 -23 -8 0 -15 7 -15 16 0 9 5 12 13 8 7
-5 6 -1 -3 10 -8 11 -16 14 -18 7 -2 -6 -12 -11 -22 -11 -10 0 -22 -5 -25 -10
-4 -7 -12 -7 -25 0 -10 5 -29 10 -41 10 -16 0 -20 5 -16 20 3 11 0 23 -6 27
-6 4 -1 10 12 15 14 5 21 14 18 22 -6 14 32 53 47 48 5 -2 6 4 3 12 -3 8 1 17
9 20 9 4 14 0 12 -9 -2 -7 0 -14 5 -14 20 -2 27 0 25 7 -4 18 15 40 29 35 11
-4 14 -3 9 6 -6 8 -2 11 10 9 12 -2 18 2 16 11 -2 8 3 18 10 23 11 8 11 10 0
15 -10 4 -10 8 3 17 15 11 39 121 30 136 -3 4 -16 5 -30 2 -20 -3 -25 0 -25
17 0 11 5 21 10 21 6 0 10 6 10 13 0 7 15 20 33 28 31 14 32 13 55 -19 12 -18
22 -37 22 -42z m-286 -25 c-13 -9 -20 -10 -23 -3 -2 6 5 17 15 25 13 9 20 10
22 3 2 -6 -4 -17 -14 -25z m2102 -9 c8 -8 14 -20 14 -26 0 -15 -36 5 -44 25
-7 19 11 20 30 1z m57 0 c3 -8 3 -16 0 -19 -7 -8 -32 16 -26 26 7 11 20 8 26
-7z m-105 -23 c2 -28 -2 -29 -28 -3 -25 25 -25 28 3 26 16 -1 24 -8 25 -23z
m-171 -25 c-6 -9 -12 -16 -12 -15 0 1 -7 10 -14 19 -12 16 -11 18 12 16 21 -2
23 -5 14 -20z m-39 -24 c-10 -10 -28 6 -28 24 0 15 1 15 17 -1 9 -9 14 -19 11
-23z m-48 16 c0 -5 -2 -10 -4 -10 -3 0 -8 5 -11 10 -3 6 -1 10 4 10 6 0 11 -4
11 -10z m-105 -21 c11 -17 -1 -21 -15 -4 -8 9 -8 15 -2 15 6 0 14 -5 17 -11z
m-576 -13 c8 -9 8 -16 2 -20 -5 -4 -12 -2 -16 3 -3 6 -12 8 -20 4 -15 -5 -21
8 -8 20 11 11 30 8 42 -7z m537 -13 c-10 -11 -19 -7 -22 10 -2 15 0 16 12 6 8
-6 12 -14 10 -16z m-476 -22 c0 -13 -28 -22 -35 -11 -3 4 1 11 7 13 20 8 28 8
28 -2z m123 -84 c-8 -14 -20 2 -27 34 -4 20 -1 38 6 47 11 13 14 8 19 -29 4
-24 4 -47 2 -52z m-1948 63 c3 -5 1 -10 -4 -10 -6 0 -11 5 -11 10 0 6 2 10 4
10 3 0 8 -4 11 -10z m2090 0 c3 -5 1 -10 -4 -10 -6 0 -11 5 -11 10 0 6 2 10 4
10 3 0 8 -4 11 -10z m-1947 -96 c2 -1 -6 0 -17 3 -26 7 -81 56 -81 73 0 7 21
-7 48 -30 26 -24 49 -45 50 -46z m1721 -26 c36 -57 57 -106 58 -138 1 -19 -1
-27 -3 -17 -4 12 -16 17 -41 17 -27 0 -34 -3 -29 -15 7 -18 2 -19 -24 -2 -17
10 -26 9 -50 -5 -16 -9 -32 -13 -35 -8 -8 12 10 51 34 77 12 12 21 31 21 41 0
19 35 72 48 72 4 0 14 -10 21 -22z m81 -33 c0 -15 -6 -25 -15 -25 -12 0 -13 4
-3 25 6 14 13 25 15 25 1 0 3 -11 3 -25z m487 -37 c-3 -8 -6 -5 -6 6 -1 11 2
17 5 13 3 -3 4 -12 1 -19z m188 2 c3 -5 1 -10 -4 -10 -6 0 -11 5 -11 10 0 6 2
10 4 10 3 0 8 -4 11 -10z m-245 -30 c0 -5 -5 -10 -11 -10 -5 0 -7 5 -4 10 3 6
8 10 11 10 2 0 4 -4 4 -10z m-1726 -45 c-4 -8 -10 -15 -15 -15 -4 0 -6 7 -3
15 4 8 10 15 15 15 4 0 6 -7 3 -15z m779 0 c-3 -9 -8 -14 -10 -11 -3 3 -2 9 2
15 9 16 15 13 8 -4z m87 -60 c0 -8 -4 -15 -10 -15 -5 0 -10 6 -10 14 0 7 -13
16 -30 19 -28 6 -29 8 -18 33 l12 26 28 -31 c15 -17 28 -38 28 -46z m440 65
c0 -5 -4 -10 -10 -10 -5 0 -10 5 -10 10 0 6 5 10 10 10 6 0 10 -4 10 -10z
m400 0 c0 -5 -5 -10 -11 -10 -5 0 -7 5 -4 10 3 6 8 10 11 10 2 0 4 -4 4 -10z
m44 -5 c-6 -16 -24 -21 -24 -7 0 11 11 22 21 22 5 0 6 -7 3 -15z m146 -5 c0
-5 -5 -10 -11 -10 -5 0 -7 5 -4 10 3 6 8 10 11 10 2 0 4 -4 4 -10z m50 -10 c0
-5 -4 -10 -10 -10 -5 0 -10 5 -10 10 0 6 5 10 10 10 6 0 10 -4 10 -10z m-1931
-24 c9 -11 7 -15 -8 -19 -14 -3 -17 0 -14 14 6 23 7 23 22 5z m1761 4 c0 -5
-4 -10 -10 -10 -5 0 -10 5 -10 10 0 6 5 10 10 10 6 0 10 -4 10 -10z m45 0 c3
-5 1 -10 -4 -10 -6 0 -11 5 -11 10 0 6 2 10 4 10 3 0 8 -4 11 -10z m92 -12
c-3 -8 -6 -5 -6 6 -1 11 2 17 5 13 3 -3 4 -12 1 -19z m-107 -28 c0 -5 -4 -10
-10 -10 -5 0 -10 5 -10 10 0 6 5 10 10 10 6 0 10 -4 10 -10z m-1779 -30 c22
-13 26 -58 5 -66 -23 -9 -56 28 -49 54 6 24 15 27 44 12z m1759 0 c0 -5 -4
-10 -10 -10 -5 0 -10 5 -10 10 0 6 5 10 10 10 6 0 10 -4 10 -10z m32 -42 c-6
-6 -12 -6 -16 1 -4 6 -2 11 3 11 6 0 12 8 12 18 1 15 2 15 6 -2 3 -10 0 -23
-5 -28z m98 38 c0 -3 -4 -8 -10 -11 -5 -3 -10 -1 -10 4 0 6 5 11 10 11 6 0 10
-2 10 -4z m-627 -43 c-3 -7 -9 -13 -14 -13 -11 0 -12 34 -2 43 9 10 22 -13 16
-30z m592 9 c-3 -3 -11 0 -18 7 -9 10 -8 11 6 5 10 -3 15 -9 12 -12z m52 -14
c-3 -8 -6 -5 -6 6 -1 11 2 17 5 13 3 -3 4 -12 1 -19z m-597 -60 c0 -5 -7 -8
-15 -8 -8 0 -15 -4 -15 -9 0 -5 -12 -8 -27 -8 -14 0 -31 -7 -37 -14 -6 -8 -38
-32 -71 -53 -114 -73 -125 -81 -125 -88 0 -5 -5 -8 -11 -8 -6 0 -9 7 -5 15 7
19 -3 19 -34 -1 -14 -9 -2 6 25 32 28 27 50 56 50 64 0 9 12 15 32 17 19 2 65
25 114 59 l83 56 18 -24 c9 -12 18 -26 18 -30z m-616 -7 c3 -5 -1 -11 -9 -14
-9 -4 -12 -1 -8 9 6 16 10 17 17 5z m346 -22 c0 -6 -4 -7 -10 -4 -5 3 -10 11
-10 16 0 6 5 7 10 4 6 -3 10 -11 10 -16z m-425 1 c3 -5 2 -17 -3 -26 -8 -14
-10 -12 -14 10 -5 26 5 35 17 16z m685 -10 c0 -5 -5 -10 -11 -10 -5 0 -7 5 -4
10 3 6 8 10 11 10 2 0 4 -4 4 -10z m26 -20 c0 -11 -6 -20 -12 -20 -7 0 -10 8
-7 20 3 11 8 20 12 20 4 0 7 -9 7 -20z m-662 -41 c12 -14 16 -29 11 -46 -6
-26 -31 -26 -29 0 1 10 -4 13 -13 10 -12 -5 -13 -2 -6 13 6 10 8 25 6 32 -7
19 11 14 31 -9z m660 -10 c-6 -11 -24 -2 -24 11 0 5 7 7 15 4 8 -4 12 -10 9
-15z m-1269 -17 c0 -13 8 -28 18 -33 24 -14 21 -31 -12 -63 -23 -22 -33 -26
-47 -18 -29 16 -62 55 -64 77 -5 42 -1 47 33 41 17 -3 26 -3 19 0 -21 10 -2
25 26 22 21 -2 27 -9 27 -26z m-205 -54 c0 -15 7 -33 15 -42 8 -8 15 -17 15
-20 0 -3 -7 -6 -15 -6 -19 0 -19 -4 1 -152 17 -131 14 -178 -4 -82 -7 34 -26
87 -42 119 -17 32 -30 65 -30 72 0 15 -35 48 -50 48 -12 0 -82 96 -75 103 6 7
88 -29 98 -43 4 -6 9 -2 13 11 6 24 55 46 66 30 4 -6 8 -23 8 -38z m61 -10 c6
-11 8 -22 6 -25 -8 -7 -47 30 -47 44 0 18 28 5 41 -19z m997 -63 c1 -21 -3
-25 -23 -25 -31 0 -32 14 -3 34 12 9 23 16 23 16 0 0 2 -11 3 -25z m-583 -56
c8 -12 6 -15 -22 -23 -16 -5 -23 -2 -28 13 -9 30 2 43 25 31 10 -6 22 -15 25
-21z m-755 -37 c46 -23 56 -33 65 -64 5 -20 13 -40 18 -44 4 -4 7 -13 7 -21 0
-15 -64 -17 -123 -4 -48 11 -49 13 -39 42 6 16 5 39 -4 69 -8 25 -14 46 -14
48 0 9 44 -3 90 -26z m420 -7 c61 -31 70 -31 71 -2 1 20 2 19 14 -8 8 -16 14
-40 15 -52 0 -23 0 -23 -20 -3 -16 16 -24 18 -44 9 -48 -22 -124 19 -112 59 9
28 16 28 76 -3z m660 -56 c0 -11 -4 -17 -10 -14 -5 3 -10 13 -10 21 0 8 5 14
10 14 6 0 10 -9 10 -21z m-553 -91 c-3 -7 -5 -2 -5 12 0 14 2 19 5 13 2 -7 2
-19 0 -25z m-111 -50 c16 -18 28 -41 26 -50 -4 -21 -9 -22 -39 -5 -19 10 -73
73 -73 84 0 2 13 3 28 3 20 0 38 -10 58 -32z m2169 3 c-3 -6 -11 -8 -17 -5 -6
4 -5 9 3 15 16 10 23 4 14 -10z m-2048 -13 c-3 -8 -6 -5 -6 6 -1 11 2 17 5 13
3 -3 4 -12 1 -19z m16 -71 c-10 -17 -20 4 -15 30 l6 28 6 -25 c4 -14 5 -28 3
-33z m2002 35 c-3 -3 -11 0 -18 7 -9 10 -8 11 6 5 10 -3 15 -9 12 -12z m85 8
c0 -5 -5 -10 -11 -10 -5 0 -7 5 -4 10 3 6 8 10 11 10 2 0 4 -4 4 -10z m-139
-33 c-1 -12 -15 -9 -19 4 -3 6 1 10 8 8 6 -3 11 -8 11 -12z m-8084 -3 c-3 -3
-12 -4 -19 -1 -8 3 -5 6 6 6 11 1 17 -2 13 -5z m-67 -8 c0 -3 -4 -8 -10 -11
-5 -3 -10 -1 -10 4 0 6 5 11 10 11 6 0 10 -2 10 -4z m8145 -37 c-10 -15 -25
-10 -19 6 4 8 10 12 15 9 5 -3 7 -10 4 -15z m-511 -5 c4 -9 4 -19 2 -21 -8 -8
-26 8 -26 23 0 19 16 18 24 -2z"/>
<path d="M3825 8590 c-13 -6 -15 -9 -5 -9 8 0 22 4 30 9 18 12 2 12 -25 0z"/>
<path d="M3875 8590 c3 -5 8 -10 11 -10 2 0 4 5 4 10 0 6 -5 10 -11 10 -5 0
-7 -4 -4 -10z"/>
<path d="M3735 8560 c-22 -10 -47 -19 -56 -19 -8 -1 -24 -10 -36 -20 -11 -11
-38 -28 -59 -39 -21 -11 -48 -28 -59 -36 -11 -9 45 16 125 55 80 40 147 74
149 76 13 10 -29 -1 -64 -17z"/>
<path d="M4025 8430 c-4 -6 -10 -8 -15 -5 -5 3 -11 1 -14 -4 -5 -8 15 -8 34
-1 3 1 9 2 13 1 5 -1 6 3 2 9 -8 13 -12 13 -20 0z"/>
<path d="M3469 8413 c-13 -15 -12 -15 9 -4 23 12 28 21 13 21 -5 0 -15 -7 -22
-17z"/>
<path d="M3936 8392 c-3 -5 1 -9 9 -9 8 0 12 4 9 9 -3 4 -7 8 -9 8 -2 0 -6 -4
-9 -8z"/>
<path d="M6166 7591 c-3 -4 -1 -24 5 -44 7 -26 21 -42 52 -60 31 -19 44 -22
49 -13 8 14 -12 90 -28 106 -13 13 -72 21 -78 11z"/>
<path d="M6247 7443 c-10 -9 13 -33 30 -33 10 0 13 6 9 16 -3 9 -6 18 -6 20 0
7 -26 5 -33 -3z"/>
<path d="M5984 6958 c-7 -11 28 -10 46 2 11 7 8 9 -13 8 -16 -2 -31 -6 -33
-10z"/>
<path d="M4957 6239 c7 -7 15 -10 18 -7 3 3 -2 9 -12 12 -14 6 -15 5 -6 -5z"/>
<path d="M5855 5360 c3 -5 8 -10 11 -10 2 0 4 5 4 10 0 6 -5 10 -11 10 -5 0
-7 -4 -4 -10z"/>
<path d="M5565 4980 c-4 -6 -1 -18 6 -26 10 -12 14 -12 20 -2 5 7 9 19 9 26 0
15 -26 16 -35 2z"/>
<path d="M5701 4844 c0 -11 3 -14 6 -6 3 7 2 16 -1 19 -3 4 -6 -2 -5 -13z"/>
<path d="M5040 4580 c0 -5 5 -10 11 -10 5 0 7 5 4 10 -3 6 -8 10 -11 10 -2 0
-4 -4 -4 -10z"/>
<path d="M5222 4454 c10 -10 20 -15 24 -12 3 4 -5 12 -18 18 -22 12 -22 12 -6
-6z"/>
<path d="M3032 5190 c0 -14 2 -19 5 -12 2 6 2 18 0 25 -3 6 -5 1 -5 -13z"/>
<path d="M3066 5197 c3 -10 9 -15 12 -12 3 3 0 11 -7 18 -10 9 -11 8 -5 -6z"/>
<path d="M3034 5031 c1 -21 4 -26 12 -20 7 5 10 19 7 29 -8 30 -20 24 -19 -9z"/>
<path d="M3045 4809 c-4 -6 -5 -12 -2 -15 2 -3 7 2 10 11 7 17 1 20 -8 4z"/>
<path d="M6187 5123 c-4 -3 -7 -11 -7 -17 0 -6 5 -5 12 2 6 6 9 14 7 17 -3 3
-9 2 -12 -2z"/>
<path d="M6163 5077 c-4 -7 -16 -16 -25 -20 -10 -3 -18 -16 -18 -27 0 -25 18
-27 27 -2 3 9 13 25 21 35 8 9 13 20 10 23 -4 3 -10 -1 -15 -9z"/>
<path d="M5040 4066 c0 -2 7 -7 16 -10 8 -3 12 -2 9 4 -6 10 -25 14 -25 6z"/>
<path d="M6859 3743 c-13 -16 -12 -17 4 -4 9 7 17 15 17 17 0 8 -8 3 -21 -13z"/>
<path d="M6810 3705 c-7 -8 -8 -15 -2 -15 5 0 15 7 22 15 7 8 8 15 2 15 -5 0
-15 -7 -22 -15z"/>
<path d="M6760 3660 c-8 -5 -12 -12 -9 -15 4 -3 12 1 19 10 14 17 11 19 -10 5z"/>
<path d="M5705 3630 c-8 -13 5 -13 25 0 13 8 13 10 -2 10 -9 0 -20 -4 -23 -10z"/>
<path d="M5907 3284 c-9 -9 16 -55 42 -78 12 -11 24 -16 27 -13 10 10 -4 51
-26 75 -21 23 -32 27 -43 16z"/>
<path d="M6970 1120 c0 -5 5 -10 11 -10 5 0 7 5 4 10 -3 6 -8 10 -11 10 -2 0
-4 -4 -4 -10z"/>
<path d="M6706 1035 c-27 -23 -27 -25 -8 -25 11 0 23 -4 27 -9 3 -6 13 -9 23
-9 9 1 35 -2 58 -6 29 -5 44 -3 52 6 9 11 5 14 -21 13 -42 -1 -50 4 -37 20 9
11 5 14 -18 13 -20 -1 -29 -5 -26 -13 4 -9 -3 -11 -23 -7 -19 4 -22 7 -10 10
9 2 17 10 17 18 0 18 0 18 -34 -11z"/>
<path d="M6650 1031 c0 -5 5 -13 10 -16 6 -3 10 -2 10 4 0 5 -4 13 -10 16 -5
3 -10 2 -10 -4z"/>
<path d="M7634 2549 c-3 -6 0 -15 7 -20 19 -12 59 -11 59 1 0 6 -9 10 -20 10
-11 0 -20 5 -20 10 0 13 -17 13 -26 -1z"/>
<path d="M7544 2464 c-23 -19 -26 -25 -15 -33 7 -5 10 -14 7 -20 -5 -7 2 -11
19 -11 15 0 24 4 20 10 -3 6 -2 10 3 10 6 0 12 -7 16 -15 3 -8 1 -15 -5 -15
-6 0 -8 -8 -4 -19 3 -12 0 -21 -10 -25 -31 -11 -14 -25 33 -24 65 0 80 6 88
31 3 12 16 29 27 39 20 15 24 15 60 -4 21 -10 51 -18 67 -16 15 1 34 -2 41 -8
8 -6 21 -11 29 -11 8 0 25 -3 38 -7 30 -10 28 5 -8 39 -25 24 -32 26 -46 15
-14 -12 -15 -11 -12 4 2 13 -13 27 -52 49 -51 29 -62 31 -161 33 -99 1 -109 0
-135 -22z"/>
<path d="M8117 2459 c7 -7 15 -10 18 -7 3 3 -2 9 -12 12 -14 6 -15 5 -6 -5z"/>
<path d="M7771 2324 c-12 -14 -12 -17 0 -25 21 -13 24 -11 25 16 2 29 -5 31
-25 9z"/>
<path d="M7450 2324 c0 -4 8 -13 18 -20 16 -13 16 -15 -7 -34 -28 -24 -47 -26
-55 -5 -9 25 -76 16 -76 -11 0 -16 18 -20 130 -30 92 -8 124 -8 213 2 62 6 70
14 35 32 -28 14 -158 42 -198 42 -15 0 -30 7 -34 15 -5 15 -26 21 -26 9z"/>
<path d="M8260 2298 c0 -7 19 -31 42 -55 47 -48 46 -63 -2 -38 -18 9 -34 14
-36 12 -3 -3 37 -44 88 -91 51 -48 94 -82 97 -75 2 6 0 14 -5 18 -5 3 -22 20
-37 37 -25 28 -26 34 -17 60 11 28 9 31 -42 77 -63 58 -88 73 -88 55z"/>
<path d="M8028 2264 c-11 -24 -16 -26 -65 -22 -29 3 -53 1 -53 -4 0 -7 -39
-27 -145 -74 -16 -7 -39 -14 -49 -16 -35 -5 -28 -25 11 -31 63 -10 89 -16 126
-32 58 -24 74 -20 81 21 5 25 16 41 37 52 16 9 29 20 29 24 0 4 7 5 16 1 14
-5 16 -2 10 20 -8 32 -4 33 33 6 25 -18 31 -19 52 -7 49 27 47 37 -14 67 -54
26 -55 26 -69 -5z"/>
<path d="M8225 2051 c-8 -14 25 -43 42 -37 8 3 17 6 19 6 2 0 4 6 4 14 0 22
-53 36 -65 17z"/>
<path d="M8526 2033 c56 -52 86 -75 90 -70 6 6 -69 73 -98 87 -19 9 -17 6 8
-17z"/>
<path d="M7962 2018 c-17 -17 -15 -32 9 -62 12 -15 18 -33 15 -43 -4 -10 5
-27 26 -47 18 -17 56 -56 84 -87 l50 -57 52 16 c45 14 51 19 46 37 -4 11 -3
17 1 13 10 -9 37 41 29 53 -8 13 -32 11 -37 -3 -3 -8 -40 22 -93 73 -123 119
-152 137 -182 107z"/>
<path d="M8290 1955 c-11 -13 -10 -24 0 -58 8 -23 15 -44 16 -46 7 -9 73 42
67 52 -38 66 -60 80 -83 52z"/>
<path d="M7471 1920 c-24 -17 -48 -30 -53 -30 -20 0 -6 -31 21 -44 34 -18 121
-28 121 -14 0 5 5 6 10 3 6 -4 10 10 10 34 0 31 -6 44 -26 60 -15 12 -29 21
-33 21 -3 0 -26 -14 -50 -30z"/>
<path d="M7926 1911 c-4 -7 -5 -15 -2 -18 9 -9 19 4 14 18 -4 11 -6 11 -12 0z"/>
<path d="M8826 1861 c-4 -6 6 -27 21 -46 21 -26 29 -31 31 -19 6 26 -8 65 -19
58 -6 -4 -15 -1 -19 6 -5 8 -10 9 -14 1z"/>
<path d="M7811 1736 c-12 -18 -21 -40 -21 -48 0 -17 72 -132 89 -143 7 -3 31
5 56 19 52 31 51 31 58 6 6 -22 50 -43 80 -38 25 4 31 49 12 95 -16 39 -23 40
-59 12 -39 -31 -72 -13 -124 66 -23 36 -49 65 -56 65 -8 0 -24 -15 -35 -34z"/>
<path d="M8790 1691 c0 -6 4 -12 9 -15 10 -7 61 -109 61 -124 0 -6 5 -14 10
-17 6 -4 10 14 10 45 0 46 -4 56 -34 86 -33 33 -56 43 -56 25z"/>
<path d="M7727 1618 c-9 -20 -17 -49 -17 -65 0 -20 -5 -30 -15 -30 -8 0 -15 4
-15 9 0 4 -4 8 -10 8 -16 0 -12 -32 11 -75 38 -73 42 -74 97 -21 l50 48 -16
31 c-8 18 -18 34 -21 37 -3 3 -15 25 -27 49 l-20 44 -17 -35z"/>
<path d="M7830 1460 c0 -5 7 -10 15 -10 8 0 15 5 15 10 0 6 -7 10 -15 10 -8 0
-15 -4 -15 -10z"/>
<path d="M7473 1313 c-17 -6 -16 -28 0 -42 10 -8 19 -7 32 3 16 12 17 16 6 30
-14 17 -18 18 -38 9z"/>
<path d="M7326 847 c3 -10 9 -15 12 -12 3 3 0 11 -7 18 -10 9 -11 8 -5 -6z"/>
<path d="M8768 823 c-30 -15 -36 -28 -15 -35 21 -7 127 4 127 13 0 5 -7 9 -15
9 -9 0 -28 6 -43 13 -23 11 -31 11 -54 0z"/>
</g>
</svg>
